# This file uses centimeters as units for non-parametric coordinates.

mtllib Locator.mtl
g default
v 0.000000 0.000000 0.000000
v 0.050000 -0.050000 -0.500000
v -0.050000 -0.050000 -0.500000
v -0.050000 0.050000 -0.500000
v 0.050000 0.050000 -0.500000
v 0.000000 0.000000 0.000000
v 0.500000 -0.050000 0.050000
v 0.500000 -0.050000 -0.050000
v 0.500000 0.050000 -0.050000
v 0.500000 0.050000 0.050000
v 0.000000 0.000000 0.000000
v -0.050000 -0.050000 0.500000
v 0.050000 -0.050000 0.500000
v 0.050000 0.050000 0.500000
v -0.050000 0.050000 0.500000
v 0.000000 0.000000 0.000000
v -0.050000 0.500000 -0.050000
v -0.050000 0.500000 0.050000
v 0.050000 0.500000 0.050000
v 0.050000 0.500000 -0.050000
v 0.000000 0.000000 0.000000
v -0.500000 -0.050000 -0.050000
v -0.500000 -0.050000 0.050000
v -0.500000 0.050000 0.050000
v -0.500000 0.050000 -0.050000
v 0.000000 0.000000 0.000000
v 0.050000 -0.500000 -0.050000
v 0.050000 -0.500000 0.050000
v -0.050000 -0.500000 0.050000
v -0.050000 -0.500000 -0.050000
vt 0.500000 0.500000
vt 0.000000 0.000000
vt 1.000000 0.000000
vt 1.000000 1.000000
vt 0.000000 1.000000
vt 0.000000 0.000000
vt 1.000000 0.000000
vt 1.000000 1.000000
vt 0.000000 1.000000
vt 0.500000 0.500000
vt 0.000000 0.000000
vt 1.000000 0.000000
vt 1.000000 1.000000
vt 0.000000 1.000000
vt 0.500000 0.500000
vt 0.000000 0.000000
vt 1.000000 0.000000
vt 1.000000 1.000000
vt 0.000000 1.000000
vt 0.500000 0.500000
vt 0.000000 0.000000
vt 1.000000 0.000000
vt 1.000000 1.000000
vt 0.000000 1.000000
vt 0.500000 0.500000
vt 0.000000 0.000000
vt 1.000000 0.000000
vt 1.000000 1.000000
vt 0.000000 1.000000
vt 0.500000 0.500000
vn 0.000000 0.000000 -1.000000
vn 0.000000 0.000000 -1.000000
vn 0.000000 0.000000 -1.000000
vn 0.000000 0.000000 -1.000000
vn 0.000000 -0.995037 0.099504
vn 0.000000 -0.995037 0.099504
vn 0.000000 -0.995037 0.099504
vn -0.995037 0.000000 0.099504
vn -0.995037 0.000000 0.099504
vn -0.995037 0.000000 0.099504
vn 0.000000 0.995037 0.099504
vn 0.000000 0.995037 0.099504
vn 0.000000 0.995037 0.099504
vn 0.995037 0.000000 0.099504
vn 0.995037 0.000000 0.099504
vn 0.995037 0.000000 0.099504
vn 1.000000 0.000000 0.000000
vn 1.000000 0.000000 0.000000
vn 1.000000 0.000000 0.000000
vn 1.000000 0.000000 0.000000
vn -0.099504 -0.995037 0.000000
vn -0.099504 -0.995037 0.000000
vn -0.099504 -0.995037 0.000000
vn -0.099504 0.000000 -0.995037
vn -0.099504 0.000000 -0.995037
vn -0.099504 0.000000 -0.995037
vn -0.099504 0.995037 0.000000
vn -0.099504 0.995037 0.000000
vn -0.099504 0.995037 0.000000
vn -0.099504 0.000000 0.995037
vn -0.099504 0.000000 0.995037
vn -0.099504 0.000000 0.995037
vn 0.000000 0.000000 1.000000
vn 0.000000 0.000000 1.000000
vn 0.000000 0.000000 1.000000
vn 0.000000 0.000000 1.000000
vn 0.000000 -0.995037 -0.099504
vn 0.000000 -0.995037 -0.099504
vn 0.000000 -0.995037 -0.099504
vn 0.995037 0.000000 -0.099504
vn 0.995037 0.000000 -0.099504
vn 0.995037 0.000000 -0.099504
vn 0.000000 0.995037 -0.099504
vn 0.000000 0.995037 -0.099504
vn 0.000000 0.995037 -0.099504
vn -0.995037 0.000000 -0.099504
vn -0.995037 0.000000 -0.099504
vn -0.995037 0.000000 -0.099504
vn 0.000000 1.000000 0.000000
vn 0.000000 1.000000 0.000000
vn 0.000000 1.000000 0.000000
vn 0.000000 1.000000 0.000000
vn -0.995037 -0.099504 0.000000
vn -0.995037 -0.099504 0.000000
vn -0.995037 -0.099504 0.000000
vn 0.000000 -0.099504 0.995037
vn 0.000000 -0.099504 0.995037
vn 0.000000 -0.099504 0.995037
vn 0.995037 -0.099504 0.000000
vn 0.995037 -0.099504 0.000000
vn 0.995037 -0.099504 0.000000
vn 0.000000 -0.099504 -0.995037
vn 0.000000 -0.099504 -0.995037
vn 0.000000 -0.099504 -0.995037
vn -1.000000 0.000000 0.000000
vn -1.000000 0.000000 0.000000
vn -1.000000 0.000000 0.000000
vn -1.000000 0.000000 0.000000
vn 0.099504 -0.995037 0.000000
vn 0.099504 -0.995037 0.000000
vn 0.099504 -0.995037 0.000000
vn 0.099504 0.000000 0.995037
vn 0.099504 0.000000 0.995037
vn 0.099504 0.000000 0.995037
vn 0.099504 0.995037 0.000000
vn 0.099504 0.995037 0.000000
vn 0.099504 0.995037 0.000000
vn 0.099504 0.000000 -0.995037
vn 0.099504 0.000000 -0.995037
vn 0.099504 0.000000 -0.995037
vn 0.000000 -1.000000 0.000000
vn 0.000000 -1.000000 0.000000
vn 0.000000 -1.000000 0.000000
vn 0.000000 -1.000000 0.000000
vn 0.995037 0.099504 0.000000
vn 0.995037 0.099504 0.000000
vn 0.995037 0.099504 0.000000
vn 0.000000 0.099504 0.995037
vn 0.000000 0.099504 0.995037
vn 0.000000 0.099504 0.995037
vn -0.995037 0.099504 0.000000
vn -0.995037 0.099504 0.000000
vn -0.995037 0.099504 0.000000
vn 0.000000 0.099504 -0.995037
vn 0.000000 0.099504 -0.995037
vn 0.000000 0.099504 -0.995037
s off
g Locator
usemtl initialShadingGroup
f 2/2/1 3/3/2 4/4/3 5/5/4
f 1/1/5 3/3/6 2/2/7
f 1/1/8 4/4/9 3/3/10
f 1/1/11 5/5/12 4/4/13
f 1/1/14 2/2/15 5/5/16
f 7/6/17 8/7/18 9/8/19 10/9/20
f 6/10/21 8/7/22 7/6/23
f 6/10/24 9/8/25 8/7/26
f 6/10/27 10/9/28 9/8/29
f 6/10/30 7/6/31 10/9/32
f 12/11/33 13/12/34 14/13/35 15/14/36
f 11/15/37 13/12/38 12/11/39
f 11/15/40 14/13/41 13/12/42
f 11/15/43 15/14/44 14/13/45
f 11/15/46 12/11/47 15/14/48
f 17/16/49 18/17/50 19/18/51 20/19/52
f 16/20/53 18/17/54 17/16/55
f 16/20/56 19/18/57 18/17/58
f 16/20/59 20/19/60 19/18/61
f 16/20/62 17/16/63 20/19/64
f 22/21/65 23/22/66 24/23/67 25/24/68
f 21/25/69 23/22/70 22/21/71
f 21/25/72 24/23/73 23/22/74
f 21/25/75 25/24/76 24/23/77
f 21/25/78 22/21/79 25/24/80
f 27/26/81 28/27/82 29/28/83 30/29/84
f 26/30/85 28/27/86 27/26/87
f 26/30/88 29/28/89 28/27/90
f 26/30/91 30/29/92 29/28/93
f 26/30/94 27/26/95 30/29/96
