# This file uses centimeters as units for non-parametric coordinates.

mtllib Floor6Roof_Tex_Hite.mtl
g default
v -1039.994761 475.964265 -2072.035994
v -1039.994761 475.965064 -1023.953980
v -1126.525209 475.964265 -2044.327019
v -680.008021 475.964265 -1023.997556
v -732.404140 475.965307 -1467.703670
v -679.999959 475.965307 -1467.703670
v -679.999959 475.965307 -1548.000304
v -732.404140 475.965307 -1548.000304
v -665.889714 475.963083 -915.984371
v -897.957403 475.963083 -921.678175
v -794.687167 475.963083 -921.691241
v -897.957403 475.963083 -856.501959
v -794.688070 475.963083 -856.501056
v -795.630760 475.963083 -2151.853639
v -795.630760 475.963083 -2214.148551
v -897.851764 475.963083 -2151.853639
v -897.851486 475.963083 -2214.148551
v -668.912797 475.963083 -2151.852666
v -668.912519 475.963083 -2268.642299
v -337.983354 475.963257 -2268.642299
v -1039.821430 475.963083 -2151.853639
v -1240.151927 475.963083 -2044.327019
v -1240.151788 475.963083 -2160.520625
v -1130.834030 475.963083 -2160.520625
v -1039.819484 475.963083 -2415.997330
v -1130.834030 475.963083 -2395.317103
v -1126.523263 475.963083 -2395.317103
v -1126.523263 475.963083 -2718.939731
v -1036.929145 475.963083 -2465.002993
v -1036.747751 475.963083 -2718.939731
v -840.092102 475.963083 -2415.997330
v -1023.999763 475.963083 -2465.002993
v -337.983354 475.963083 -1703.125641
v 195.427973 475.963083 -1703.125641
v 195.427973 475.963083 -1526.484277
v 1074.336120 475.963083 -1526.484277
v 1074.336120 475.963083 -1504.834394
v 1701.077122 475.963083 -1504.834394
v 1887.833283 475.963083 -1370.609181
v 1701.077122 475.963083 -1701.365779
v 1887.833283 475.963083 -1701.365779
v -1126.526460 475.963083 -1364.783606
v -1126.526599 475.963083 -1256.875434
v -1126.525626 475.964821 -1029.530539
v -1022.769207 475.963083 -921.696662
v -1022.769624 475.963083 -340.100912
v -1126.525070 475.963083 -456.935719
v -1126.525209 475.963083 -354.762357
v -1126.525209 475.963083 -236.916820
v -1022.769624 475.963083 -267.344732
v -1022.769902 475.963083 -236.916820
v -1364.121677 475.963083 -354.763538
v -1550.476688 475.963083 -456.936692
v -1636.491034 475.963083 -456.936692
v -1471.589500 475.963083 -456.936692
v -1557.830136 475.963083 -350.450512
v -1364.121677 475.963083 -350.449539
v -1557.830553 475.963083 -292.171551
v -1636.491312 475.963083 -292.171829
v -1550.476132 475.963083 -802.036011
v -1471.588527 475.963083 -969.790284
v -1550.475993 475.963083 -911.485678
v -1471.588388 475.963083 -1084.950574
v -1471.588110 475.963083 -1256.868206
v -1550.475437 475.963083 -1256.868484
v -1557.893798 475.963083 -1364.792919
v -1697.752907 475.963083 -1256.868484
v -1697.752907 475.963083 -1309.197884
v -1933.989828 475.963083 -1309.198440
v -1933.989828 475.963083 -1364.793475
v -1636.674373 475.963083 -1364.792919
v -1557.893659 475.963083 -1420.229912
v -1636.674234 475.963083 -1420.229912
v -1008.378115 475.963083 -340.100912
v -1008.378393 475.963083 -267.344732
v -1637.251218 475.963083 -802.036150
v -1637.251079 475.963083 -911.485678
v -1413.457739 475.963083 -969.790284
v -1413.457461 475.963083 -1084.950574
v -451.664002 475.963083 -915.981035
v -665.889714 475.963083 -921.692214
v -680.008021 475.964265 -2072.042110
v -451.643118 475.963257 -1370.636702
v -1023.999763 475.963083 -2559.250510
v -681.514280 475.963083 -2415.997886
v -689.155734 475.963083 -2465.002993
v -681.514280 475.963083 -2465.002993
v -689.155734 475.963083 -2469.528791
v 1887.833283 475.963083 -1653.189244
v -695.909056 475.963327 -2743.997862
v -1023.999763 475.963327 -2743.997862
v -696.029985 475.963083 -2469.499601
v -696.029985 475.963257 -2415.997886
v -840.092102 475.963083 -2438.666352
v -960.627750 475.963083 -2559.250510
v -696.029985 487.565375 -2415.997886
v -695.909056 487.565618 -2743.997862
v -1023.999763 487.565549 -2743.997862
v -696.029985 487.565375 -2469.499601
v -1039.995456 487.565375 -2072.035994
v -1039.995456 487.566591 -1023.942999
v -679.999959 487.565375 -1548.000304
v -679.999959 487.565375 -2072.034048
v -679.999959 487.565375 -1024.013680
v -679.999959 487.565375 -1467.703670
v -732.404140 487.565375 -1467.703670
v -732.404140 487.565375 -1548.000304
v -840.092102 487.565375 -2438.666352
v -840.092102 487.565375 -2415.997330
v -1023.999763 487.565375 -2559.250510
v -960.627750 487.565375 -2559.250510
vt 0.654783 0.275144
vt 0.654783 0.001992
vt 0.657794 0.001992
vt 0.657794 0.275144
vt 0.664033 0.138568
vt 0.664033 0.001992
vt 0.667053 0.001992
vt 0.667053 0.138559
vt 0.673283 0.117628
vt 0.673283 0.001992
vt 0.676303 0.001992
vt 0.676303 0.117628
vt 0.779903 0.001992
vt 0.779903 0.007893
vt 0.776874 0.007893
vt 0.776874 0.001992
vt 0.719523 0.050136
vt 0.719523 0.001992
vt 0.722535 0.001992
vt 0.722535 0.050136
vt 0.710282 0.087473
vt 0.710282 0.015932
vt 0.713302 0.015932
vt 0.713302 0.087473
vt 0.710282 0.001992
vt 0.713302 0.001992
vt 0.471430 0.667523
vt 0.469942 0.667523
vt 0.471430 0.611695
vt 0.352939 0.611686
vt 0.443274 0.671200
vt 0.327638 0.671200
vt 0.469942 0.701087
vt 0.306715 0.671200
vt 0.118906 0.582068
vt 0.469942 0.727997
vt 0.327638 0.684854
vt 0.306715 0.684854
vt 0.170139 0.671200
vt 0.266289 0.582068
vt 0.469942 0.760532
vt 0.443291 0.765014
vt 0.486927 0.727997
vt 0.486927 0.701087
vt 0.149347 0.668310
vt 0.312322 0.443052
vt 0.441837 0.787572
vt 0.149347 0.701329
vt 0.118906 0.668310
vt 0.266289 0.443052
vt 0.352947 0.001992
vt 0.317964 0.213994
vt 0.382583 0.787572
vt 0.621513 0.760532
vt 0.591064 0.787572
vt 0.170148 0.765014
vt 0.149347 0.727980
vt 0.312322 0.213994
vt 0.317964 0.050664
vt 0.354461 0.787572
vt 0.617688 0.787572
vt 0.177364 0.787572
vt 0.133105 0.701329
vt 0.133105 0.727980
vt 0.266748 0.050664
vt 0.279303 0.001992
vt 0.354461 0.899989
vt 0.382592 0.877500
vt 0.648397 0.787572
vt 0.640471 0.760532
vt 0.617688 0.849491
vt 0.177364 0.817182
vt 0.266748 0.001992
vt 0.382592 0.898059
vt 0.621513 0.756776
vt 0.640471 0.756776
vt 0.648397 0.760532
vt 0.591064 0.877500
vt 0.149347 0.764979
vt 0.472598 0.898059
vt 0.382592 0.936439
vt 0.618813 0.849491
vt 0.147088 0.788688
vt 0.427396 0.877500
vt 0.368955 0.936439
vt 0.354461 0.920522
vt 0.591064 0.898059
vt 0.147088 0.817182
vt 0.085896 0.788688
vt 0.085896 0.787572
vt 0.457404 0.877500
vt 0.368946 0.998008
vt 0.354461 0.998008
vt 0.340011 0.899989
vt 0.340011 0.920522
vt 0.501127 0.898059
vt 0.618813 0.899976
vt 0.080505 0.764979
vt 0.457404 0.862349
vt 0.427396 0.862349
vt 0.591064 0.920475
vt 0.001557 0.787572
vt 0.067733 0.764218
vt 0.501127 0.920674
vt 0.472598 0.920674
vt 0.633999 0.899976
vt 0.633999 0.920475
vt 0.001557 0.764175
vt 0.080505 0.712924
vt 0.067733 0.760852
vt 0.074595 0.712924
vt 0.043168 0.760852
vt 0.043168 0.744334
vt 0.749077 0.003169
vt 0.751072 0.003169
vt 0.751072 0.015940
vt 0.747286 0.015940
vt 0.749077 0.001992
vt 0.747286 0.002001
vt 0.685552 0.095814
vt 0.682533 0.095814
vt 0.682533 0.002001
vt 0.685552 0.001992
vt 0.761403 0.001992
vt 0.761403 0.015646
vt 0.758383 0.015646
vt 0.758383 0.001992
vt 0.767633 0.015672
vt 0.767633 0.002001
vt 0.770644 0.002001
vt 0.770644 0.015672
vt 0.694794 0.095832
vt 0.691782 0.095832
vt 0.691782 0.002001
vt 0.694794 0.002035
vt 0.738036 0.018510
vt 0.738036 0.002001
vt 0.741047 0.002001
vt 0.741047 0.018510
vt 0.731793 0.002001
vt 0.731793 0.039554
vt 0.728782 0.039554
vt 0.728782 0.002001
vt 0.701032 0.087499
vt 0.701032 0.001992
vt 0.704052 0.001992
vt 0.704052 0.087499
vn 1.000000 0.000059 -0.000000
vn 1.000000 0.000059 -0.000000
vn 1.000000 0.000059 -0.000000
vn 1.000000 0.000059 -0.000000
vn -1.000000 0.000346 0.000008
vn -1.000000 0.000346 0.000008
vn -1.000000 0.000346 0.000008
vn -1.000000 0.000346 0.000008
vn 0.000006 -0.000347 1.000000
vn 0.000006 -0.000347 1.000000
vn 0.000006 -0.000347 1.000000
vn 0.000006 -0.000347 1.000000
vn -1.000000 0.000346 -0.000009
vn -1.000000 0.000346 -0.000009
vn -1.000000 0.000346 -0.000009
vn -1.000000 0.000346 -0.000009
vn 0.000000 0.000000 1.000000
vn 0.000000 0.000000 1.000000
vn 0.000000 0.000000 1.000000
vn 0.000000 0.000000 1.000000
vn 0.000000 0.000000 -1.000000
vn 0.000000 0.000000 -1.000000
vn 0.000000 0.000000 -1.000000
vn 0.000000 0.000000 -1.000000
vn 0.000000 -1.000000 0.000000
vn 0.000000 -1.000000 0.000000
vn 0.000000 -1.000000 0.000000
vn 0.000000 -1.000000 0.000000
vn 0.000000 -1.000000 0.000000
vn 0.000000 -1.000000 0.000000
vn 0.000000 -1.000000 0.000000
vn 0.000000 -1.000000 -0.000001
vn 0.000000 -1.000000 -0.000001
vn 0.000000 -1.000000 -0.000001
vn 0.000000 -1.000000 -0.000001
vn 0.000001 -1.000000 0.000000
vn 0.000001 -1.000000 0.000000
vn 0.000001 -1.000000 0.000000
vn 0.000000 -1.000000 0.000000
vn 0.000000 -1.000000 0.000000
vn 0.000000 -1.000000 0.000000
vn 0.000000 -1.000000 0.000000
vn 0.000000 -1.000000 -0.000000
vn 0.000000 -1.000000 -0.000000
vn 0.000000 -1.000000 -0.000000
vn 0.000000 -1.000000 0.000000
vn 0.000000 -1.000000 0.000000
vn 0.000000 -1.000000 -0.000000
vn 0.000000 -1.000000 -0.000000
vn 0.000000 -1.000000 0.000000
vn 0.000000 -1.000000 0.000000
vn 0.000000 -1.000000 0.000000
vn 0.000000 -1.000000 0.000000
vn 0.000000 -1.000000 0.000000
vn 0.000000 -1.000000 0.000000
vn 0.000000 -1.000000 0.000000
vn 0.000000 -1.000000 0.000000
vn 0.000000 -1.000000 0.000000
vn 0.000000 -1.000000 0.000000
vn 0.000010 -1.000000 0.000032
vn 0.000000 -1.000000 0.000015
vn 0.000010 -1.000000 0.000032
vn 0.000000 -1.000000 0.000000
vn 0.000000 -1.000000 0.000000
vn 0.000000 -1.000000 0.000000
vn 0.000000 -1.000000 0.000000
vn 0.000000 -1.000000 -0.000000
vn 0.000000 -1.000000 -0.000000
vn 0.000000 -1.000000 -0.000000
vn -0.000000 -1.000000 0.000001
vn -0.000000 -1.000000 0.000001
vn -0.000000 -1.000000 0.000001
vn -0.000000 -1.000000 0.000001
vn -0.000000 -1.000000 0.000001
vn -0.000000 -1.000000 0.000001
vn -0.000000 -1.000000 0.000001
vn 0.000000 -1.000000 0.000000
vn 0.000000 -1.000000 0.000000
vn 0.000000 -1.000000 -0.000000
vn 0.000000 -1.000000 0.000000
vn 0.000000 -1.000000 0.000000
vn 0.000000 -1.000000 0.000000
vn 0.000000 -1.000000 0.000000
vn 0.000000 -1.000000 0.000000
vn 0.000000 -1.000000 0.000000
vn 0.000000 -1.000000 0.000000
vn 0.000000 -1.000000 -0.000000
vn 0.000000 -1.000000 -0.000000
vn 0.000000 -1.000000 -0.000000
vn 0.000000 -1.000000 0.000000
vn 0.000000 -1.000000 0.000000
vn 0.000000 -1.000000 0.000000
vn 0.000000 -1.000000 0.000000
vn 0.000000 -1.000000 0.000000
vn 0.000000 -1.000000 -0.000000
vn 0.000000 -1.000000 -0.000000
vn 0.000000 -1.000000 -0.000000
vn 0.000000 -1.000000 -0.000000
vn 0.000000 -1.000000 -0.000000
vn 0.000000 -1.000000 -0.000000
vn 0.000000 -1.000000 -0.000000
vn 0.000000 -1.000000 -0.000000
vn 0.000000 -1.000000 0.000000
vn 0.000000 -1.000000 -0.000000
vn 0.000000 -1.000000 -0.000000
vn 0.000000 -1.000000 -0.000001
vn 0.000000 -1.000000 -0.000000
vn 0.000000 -1.000000 -0.000000
vn 0.000000 -1.000000 -0.000000
vn 0.000000 -1.000000 -0.000000
vn 0.000000 -1.000000 0.000000
vn 0.000000 -1.000000 0.000000
vn 0.000000 -1.000000 0.000000
vn 0.000000 -1.000000 0.000000
vn 0.000000 -1.000000 0.000000
vn 0.000000 -1.000000 0.000000
vn 0.000000 -1.000000 0.000000
vn 0.000000 -1.000000 0.000000
vn 0.000000 -1.000000 -0.000001
vn 0.000000 -1.000000 -0.000001
vn 0.000000 -1.000000 -0.000001
vn 0.000000 -1.000000 0.000000
vn 0.000000 -1.000000 0.000000
vn 0.000000 -1.000000 0.000000
vn -0.000007 -1.000000 -0.000002
vn -0.000007 -1.000000 -0.000002
vn -0.000007 -1.000000 -0.000002
vn -0.000007 -1.000000 -0.000002
vn -0.000002 -1.000000 -0.000016
vn -0.000001 -1.000000 -0.000016
vn -0.000000 -1.000000 -0.000012
vn -0.000008 -1.000000 -0.000001
vn -0.000008 -1.000000 -0.000001
vn -0.000008 -1.000000 -0.000001
vn -0.000008 -1.000000 -0.000001
vn 0.000000 -1.000000 0.000000
vn 0.000000 -1.000000 0.000000
vn 0.000000 -1.000000 0.000000
vn 0.000004 -1.000000 0.000016
vn -0.000000 -1.000000 0.000015
vn 0.000005 -1.000000 0.000016
vn 0.000000 -1.000000 0.000000
vn 0.000000 -1.000000 0.000000
vn 0.000000 -1.000000 -0.000000
vn 0.000000 -1.000000 -0.000000
vn 0.000000 -1.000000 -0.000000
vn 0.000000 -1.000000 0.000000
vn 0.000000 -1.000000 -0.000000
vn 0.000000 -1.000000 -0.000000
vn -0.000002 -1.000000 -0.000000
vn -0.000002 -1.000000 -0.000000
vn -0.000002 -1.000000 -0.000000
vn 0.000000 -1.000000 0.000000
vn 0.000000 -1.000000 0.000000
vn 0.000000 -1.000000 0.000000
vn 0.000000 -1.000000 0.000000
vn 0.000000 -1.000000 0.000000
vn 0.000000 -1.000000 0.000000
vn -0.000002 -1.000000 0.000002
vn -0.000002 -1.000000 0.000002
vn -0.000002 -1.000000 0.000002
vn -0.000000 -1.000000 -0.000012
vn -0.000000 -1.000000 -0.000012
vn -0.000000 -1.000000 -0.000012
vn -0.000008 -1.000000 -0.000002
vn -0.000008 -1.000000 -0.000002
vn -0.000008 -1.000000 -0.000002
vn 0.000000 -1.000000 -0.000000
vn 0.000000 -1.000000 -0.000000
vn 0.000000 -1.000000 -0.000000
vn -0.000018 -1.000000 -0.000009
vn -0.000018 -1.000000 -0.000009
vn -0.000018 -1.000000 -0.000009
vn 0.000000 -1.000000 -0.000000
vn 0.000006 -1.000000 0.000016
vn 0.000000 -1.000000 0.000000
vn 0.000003 -1.000000 0.000021
vn -0.000158 -0.000222 -1.000000
vn -0.000158 -0.000222 -1.000000
vn -0.000158 -0.000222 -1.000000
vn -0.000158 -0.000222 -1.000000
vn -0.000001 -1.000000 -0.000017
vn -0.000001 -1.000000 -0.000017
vn 0.000004 -1.000000 -0.000020
vn 0.000000 -1.000000 0.000014
vn 0.000000 -1.000000 0.000014
vn 0.000013 -1.000000 0.000003
vn 0.000002 -1.000000 0.000007
vn 0.000020 -1.000000 0.000001
vn 0.000020 -1.000000 0.000001
vn 0.000003 -1.000000 -0.000001
vn -0.000001 -1.000000 -0.000002
vn 0.000000 -1.000000 0.000000
vn 0.000000 -1.000000 0.000000
vn 0.000000 -1.000000 0.000000
vn 0.000000 -1.000000 0.000000
vn -0.000008 -1.000000 0.000001
vn -0.000008 -1.000000 0.000001
vn -0.000008 -1.000000 0.000001
vn -0.000008 -1.000000 0.000001
vn 0.000000 -1.000000 0.000000
vn 0.000000 -1.000000 0.000000
vn 0.000000 -1.000000 0.000000
vn 1.000000 0.000000 0.000000
vn 1.000000 0.000000 0.000000
vn 1.000000 0.000000 0.000000
vn 1.000000 0.000000 0.000000
vn 0.000000 0.000000 -1.000000
vn 0.000000 0.000000 -1.000000
vn 0.000000 0.000000 -1.000000
vn 0.000000 0.000000 -1.000000
vn 0.000000 -1.000000 0.000003
vn 0.000000 -1.000000 0.000003
vn 0.000000 -1.000000 0.000003
vn -0.000025 -1.000000 0.000000
vn -0.000025 -1.000000 0.000000
vn -0.000025 -1.000000 0.000000
vn -0.000003 0.000000 -1.000000
vn -0.000003 0.000000 -1.000000
vn -0.000003 0.000000 -1.000000
vn -0.000003 0.000000 -1.000000
vn 0.000000 0.000000 1.000000
vn 0.000000 0.000000 1.000000
vn 0.000000 0.000000 1.000000
vn 0.000000 0.000000 1.000000
vn 1.000000 0.000000 0.000000
vn 1.000000 0.000000 0.000000
vn 1.000000 0.000000 0.000000
vn 1.000000 0.000000 0.000000
vn -1.000000 0.000000 -0.000441
vn -1.000000 0.000000 -0.000441
vn -1.000000 0.000000 -0.000441
vn -1.000000 0.000000 -0.000441
vn -1.000000 0.000000 0.000000
vn -1.000000 0.000000 0.000000
vn -1.000000 0.000000 0.000000
vn -1.000000 0.000000 0.000000
s off
g Floor6Roof FloorRoofs CSBuildingStructure CS_Building_V11:CS_Building group1
usemtl CS_Building_V11:lambert5SG
f 2/1/1 1/2/2 100/3/3 101/4/4
f 82/5/5 7/6/6 102/7/7 103/8/8
f 100/120/9 1/121/10 82/122/11 103/123/12
f 6/9/13 4/10/14 104/11/15 105/12/16
f 105/124/17 106/125/18 5/126/19 6/127/20
f 107/128/21 102/129/22 7/130/23 8/131/24
usemtl CS_Building_V11:lambert2SG
f 9/27/25 81/28/26 80/29/27
f 12/43/28 10/36/29 11/33/30 13/44/31
f 15/63/32 14/48/33 16/57/34 17/64/35
f 18/45/36 19/49/37 20/35/38
f 6/32/39 5/37/40 8/38/41 7/34/42
f 30/108/43 29/103/44 28/102/45
s 1
f 24/83/46 26/89/47 27/90/48 21/79/49
s off
f 31/109/50 25/98/51 29/103/52 32/110/53
f 23/88/54 24/83/55 22/72/56
f 21/79/57 22/72/58 24/83/59
s 2
f 22/72/60 16/57/61 3/62/62
s off
f 27/90/63 28/102/64 29/103/65 25/98/66
s 3
f 39/51/67 37/52/68 38/59/69
s off
f 83/30/70 33/40/71 35/46/72
f 39/51/73 83/30/74 35/46/75 37/52/76
s 3
f 38/59/69 40/65/77 89/66/78 39/51/67
s 4
f 66/67/79 67/81/80 68/85/81 71/86/82
s off
f 72/94/83 66/67/84 71/86/85 73/95/86
s 5
f 65/74/87 64/68/88 62/80/89
f 64/68/88 63/84/90 62/80/89
f 63/84/90 61/91/91 62/80/89
f 61/91/91 55/78/92 62/80/89
f 62/80/89 55/78/92 60/96/93
f 60/96/93 55/78/92 53/87/94
s off
f 78/99/95 61/91/96 63/84/97 79/100/98
f 60/96/99 76/104/100 77/105/101 62/80/102
s 6
f 54/101/103 53/87/104 56/97/105
f 56/97/105 53/87/104 57/82/106
f 53/87/104 55/78/107 57/82/106
f 57/82/106 55/78/107 52/71/108
f 55/78/107 47/55/109 52/71/108
f 48/61/110 52/71/108 47/55/109
s off
f 46/54/111 74/75/112 75/76/113 50/70/114
f 49/69/115 48/61/116 46/54/117 50/70/118
f 51/77/119 49/69/120 50/70/121
f 46/54/122 48/61/123 47/55/124
f 45/41/125 46/54/126 47/55/127 44/47/128
s 7
f 10/36/129 4/31/130 11/33/131
s off
f 83/30/132 6/32/133 7/34/134 20/35/135
f 21/79/136 16/57/137 22/72/138
s 8
f 82/39/139 14/48/140 18/45/141
s 4
f 71/86/82 68/85/81 69/92/142 70/93/143
f 66/67/79 42/60/144 43/53/145 64/68/146
f 66/67/79 65/74/147 67/81/80
f 66/67/79 64/68/146 65/74/147
s 6
f 54/101/103 56/97/105 58/106/148 59/107/149
s off
f 33/40/150 83/30/151 20/35/152
f 35/46/153 33/40/154 34/50/155
f 37/52/156 35/46/157 36/58/158
f 20/35/159 7/34/160 82/39/161
f 11/33/162 4/31/163 81/28/164
f 6/32/165 83/30/166 4/31/167
f 80/29/168 81/28/169 83/30/170
f 4/31/171 83/30/172 81/28/173
s 1
f 21/79/49 27/90/48 25/98/174
s 8
f 82/39/139 18/45/141 20/35/175
s 3
f 89/66/78 40/65/77 41/73/176
s 2
f 3/62/62 16/57/61 1/56/177
s off
usemtl CS_Building_V11:lambert5SG
f 2/132/178 101/133/179 104/134/180 4/135/181
s 7
usemtl CS_Building_V11:lambert2SG
f 45/41/182 2/42/183 4/31/130 10/36/129
f 44/47/184 2/42/183 45/41/182
s 2
f 1/56/177 16/57/61 14/48/185 82/39/186
s 10
f 2/42/187 44/47/188 43/53/189
f 2/42/187 43/53/189 42/60/190 1/56/191
f 1/56/191 42/60/190 3/62/192
s off
usemtl CS_Building_V11:lambert5SG
f 32/110/193 84/112/194 95/113/195 94/111/196
f 86/114/197 87/115/198 85/116/199 93/117/200
usemtl initialShadingGroup
f 32/110/201 94/111/202 31/109/203
usemtl CS_Building_V11:lambert2SG initialShadingGroup
f 108/13/204 109/14/205 31/15/206 94/16/207
usemtl CS_Building_V11:lambert2SG CS_Building_V11:lambert5SG
f 110/136/208 111/137/209 95/138/210 84/139/211
usemtl CS_Building_V11:lambert5SG
f 92/119/212 88/118/213 93/117/214
usemtl initialShadingGroup
f 88/118/215 86/114/216 93/117/217
usemtl CS_Building_V11:lambert5SG
f 93/140/218 31/141/219 109/142/220 96/143/221
f 91/144/222 90/145/223 97/146/224 98/147/225
f 84/17/226 91/18/227 98/19/228 110/20/229
f 90/21/230 92/22/231 99/23/232 97/24/233
f 92/22/234 93/25/235 96/26/236 99/23/237
