# This file uses centimeters as units for non-parametric coordinates.

mtllib Floor4Roof_Tex_Hite.mtl
g default
v -451.748548 131.970716 -1024.051627
v -1039.995039 131.969639 -1024.056492
v -1040.003101 131.969639 -2071.955931
v -451.828681 131.969639 -2071.968858
v -451.820515 131.970542 -1628.309448
v -451.817422 131.971098 -1467.709508
v -732.256870 131.969778 -1628.303610
v -732.253882 131.970334 -1467.703670
v -498.367985 131.969534 389.302102
v -672.936184 131.969534 389.302102
v -351.989072 131.969812 -695.999040
v -4.215818 131.969534 -695.999805
v -351.987786 131.969812 -1023.981432
v -4.215696 131.969534 -1023.982058
v -451.827778 131.969639 -1988.729204
v -1132.218319 131.969534 -1023.982683
v -794.688070 131.969534 -856.501056
v -897.957403 131.969534 -856.501959
v -672.936184 131.969534 -921.692214
v -794.687167 131.969534 -921.691241
v -897.957403 131.969534 -921.678175
v -1132.218180 131.969534 -921.692214
v -1072.485153 131.969534 -1023.982683
v -1072.485153 131.969534 -1318.412108
v -1132.386368 131.969534 -1432.738545
v -814.297556 131.969534 -2377.899453
v -738.434668 131.969534 -2377.900843
v -738.434112 131.969534 -2326.477159
v -683.725889 131.969534 -2326.477159
v -683.725194 131.969534 -2274.521110
v -597.181263 131.969534 -2274.522083
v -451.829828 131.969534 -2130.186381
v -597.178969 131.969569 -2130.186381
v -399.122734 131.969569 -1988.729204
v -399.121831 131.969708 -1931.865528
v -352.009540 131.969708 -1931.866362
v -294.953593 131.969812 -1777.901664
v -352.008254 131.969812 -1777.901108
v -294.952308 131.970021 -1662.045129
v -352.006968 131.970021 -1662.044434
v -294.388703 131.970334 -1432.746190
v -352.005057 131.970334 -1432.745495
v -351.981462 131.970160 -1039.998531
v -294.993938 131.970160 -1040.003049
v -351.985250 131.970195 -1087.004280
v -294.996787 131.970195 -1087.008033
v -351.988481 131.970195 -1318.420726
v -294.374664 131.970195 -1318.424757
v -672.936184 131.969534 -272.697277
v -672.936184 131.969534 -342.251430
v -541.398753 131.969465 -2136.105085
v -582.702810 131.969465 -2166.113377
v -594.436455 131.969465 -2189.141710
v -564.426878 131.969465 -2147.838244
v -597.180151 131.969465 -2214.352879
v -351.999949 112.945042 2736.820134
v -515.791404 131.969465 -2130.182490
v -1072.485570 131.969534 -1432.738823
v -1072.486543 131.969534 -1661.700273
v -1072.487516 131.969534 -1777.556808
v -1072.489184 131.969534 -2052.453717
v -1132.385812 131.969534 -1318.412108
v -1132.387202 131.969534 -1661.699856
v -1132.388036 131.969534 -1777.556808
v -1128.032789 131.969534 -2052.453717
v -1128.037654 131.969534 -2377.897785
v -882.469889 131.969534 -2377.899453
v -814.297695 131.969534 -2415.997052
v -882.470167 131.969569 -2415.996774
v -695.909056 131.969534 -2743.997306
v -1023.999763 131.969534 -2743.997306
v -695.909056 131.969534 -2415.998442
v -1023.999763 131.969534 -2415.998442
v -695.909056 131.969534 -2469.529625
v -1023.999763 131.969534 -2559.249954
v -824.230960 131.969534 -2468.678674
v -880.999700 131.969534 -2525.420727
v -960.627750 131.969534 -2559.249954
v -937.714925 131.970299 -2582.162501
v -695.909056 143.569011 -2743.997306
v -1023.999763 143.569011 -2743.997306
v -1040.003101 143.569637 -2071.955931
v -1039.995039 143.569585 -1024.056492
v -451.828994 143.569637 -2071.968858
v -451.820550 143.570505 -1628.309448
v -451.748826 143.570644 -1024.051627
v -451.817492 143.571096 -1467.709508
v -732.256870 143.569776 -1628.303888
v -732.253882 143.570366 -1467.703670
v -498.367985 112.945042 2736.820134
v -960.627750 143.569011 -2559.249954
v -937.714925 143.568976 -2582.162501
v -1023.999763 143.569011 -2559.249954
v -824.284474 143.569254 -2468.721208
v -695.989884 143.569220 -2469.529625
vt 0.218835 0.198235
vt 0.218835 0.001992
vt 0.221010 0.001992
vt 0.221010 0.198235
vt 0.247607 0.085063
vt 0.245431 0.069478
vt 0.245431 0.001992
vt 0.247607 0.001992
vt 0.245431 0.085063
vt 0.254294 0.085072
vt 0.254294 0.001992
vt 0.256469 0.001992
vt 0.256469 0.085072
vt 0.298616 0.036591
vt 0.298616 0.001996
vt 0.300791 0.001996
vt 0.300791 0.036591
vt 0.289744 0.053389
vt 0.289744 0.001996
vt 0.291920 0.001996
vt 0.291920 0.053389
vt 0.011852 0.152661
vt 0.011852 0.174353
vt 0.000636 0.174353
vt 0.000636 0.152661
vt 0.017937 0.097532
vt 0.017937 0.293758
vt 0.011852 0.101188
vt 0.011852 0.217231
vt 0.047436 0.040238
vt 0.011852 0.238638
vt 0.060200 0.040238
vt 0.001452 0.101188
vt 0.001452 0.040246
vt 0.011852 0.293775
vt 0.000636 0.238638
vt 0.000636 0.217231
vt 0.074407 0.049867
vt 0.047436 0.033105
vt 0.060200 0.033105
vt 0.044534 0.312927
vt 0.084652 0.059603
vt 0.074407 0.040238
vt 0.058341 0.023244
vt 0.047708 0.012616
vt 0.063873 0.312927
vt 0.000667 0.293775
vt 0.100857 0.086628
vt 0.084652 0.049867
vt 0.082369 0.023083
vt 0.082369 0.033105
vt 0.032801 0.006285
vt 0.128091 0.293758
vt 0.063873 0.325133
vt 0.044534 0.325133
vt 0.000667 0.312927
vt 0.128078 0.097532
vt 0.100857 0.059603
vt 0.020933 0.033105
vt 0.020933 0.006285
vt 0.037089 0.001996
vt 0.086672 0.312927
vt 0.116099 0.086628
vt 0.100857 0.070864
vt 0.146770 0.293775
vt 0.128073 0.086628
vt 0.111302 0.085522
vt 0.101370 0.075590
vt 0.146775 0.290771
vt 0.146770 0.355189
vt 0.106991 0.083320
vt 0.103567 0.079896
vt 0.146770 0.281971
vt 0.086672 0.421427
vt 0.211898 0.293775
vt 0.211898 0.355189
vt 0.128078 0.210677
vt 0.146770 0.238638
vt 0.157443 0.281971
vt 0.157443 0.290771
vt 0.086672 0.434453
vt 0.146770 0.217231
vt 0.086672 0.558418
vt 0.119362 0.558418
vt 0.146766 0.174291
vt 0.128078 0.180604
vt 0.157559 0.217231
vt 0.157559 0.238638
vt 0.146770 0.998008
vt 0.119362 0.998008
vt 0.075562 0.210686
vt 0.075562 0.180612
vt 0.128078 0.113118
vt 0.146766 0.152598
vt 0.137943 0.123763
vt 0.157452 0.152598
vt 0.157452 0.174291
vt 0.137943 0.113118
vt 0.146766 0.123763
vt 0.227702 0.112132
vt 0.227702 0.001992
vt 0.229877 0.001992
vt 0.229877 0.112132
vt 0.272015 0.054494
vt 0.272015 0.001996
vt 0.274190 0.001996
vt 0.274190 0.054494
vt 0.283053 0.001996
vt 0.283053 0.054512
vt 0.280877 0.054512
vt 0.280877 0.001996
vt 0.238740 0.001996
vt 0.238740 0.112164
vt 0.236564 0.112164
vt 0.236564 0.001996
vt 0.316332 0.018152
vt 0.316332 0.006276
vt 0.318508 0.006276
vt 0.318508 0.018152
vt 0.316332 0.001996
vt 0.318508 0.001996
vt 0.307469 0.026034
vt 0.307469 0.002032
vt 0.309645 0.001996
vt 0.309645 0.026034
vt 0.263152 0.063433
vt 0.263152 0.001992
vt 0.265328 0.001992
vt 0.265328 0.063433
vn 1.000000 0.000000 -0.000008
vn 1.000000 0.000000 -0.000008
vn 1.000000 0.000000 -0.000008
vn 1.000000 0.000000 -0.000008
vn 0.000022 0.000000 1.000000
vn 0.000022 0.000000 1.000000
vn 0.000022 0.000000 1.000000
vn 0.000022 0.000000 1.000000
vn -1.000000 -0.000007 0.000015
vn -1.000000 0.000017 0.000019
vn -1.000000 0.000017 0.000020
vn -1.000000 0.000017 0.000020
vn -1.000000 -0.000016 0.000155
vn -1.000000 -0.000016 0.000155
vn -1.000000 -0.000016 0.000155
vn -1.000000 -0.000016 0.000155
vn -0.000020 -0.000012 -1.000000
vn -0.000020 -0.000012 -1.000000
vn -0.000020 -0.000012 -1.000000
vn -0.000020 -0.000012 -1.000000
vn 0.000021 0.000000 1.000000
vn 0.000021 0.000000 1.000000
vn 0.000021 0.000000 1.000000
vn 0.000021 0.000000 1.000000
vn 0.000008 0.000000 -1.000000
vn 0.000008 0.000000 -1.000000
vn 0.000008 0.000000 -1.000000
vn 0.000008 0.000000 -1.000000
vn 0.000000 -1.000000 0.000000
vn 0.000000 -1.000000 0.000000
vn 0.000000 -1.000000 0.000000
vn 0.000000 -1.000000 0.000000
vn -0.000000 -1.000000 -0.000000
vn -0.000000 -1.000000 -0.000000
vn -0.000000 -1.000000 -0.000000
vn -0.000000 -1.000000 -0.000000
vn 0.000000 -1.000000 0.000000
vn 0.000000 -1.000000 0.000000
vn 0.000000 -1.000000 0.000000
vn 0.000000 -1.000000 0.000000
vn 0.000000 -1.000000 -0.000000
vn 0.000000 -1.000000 -0.000000
vn 0.000000 -1.000000 -0.000000
vn 0.000000 -1.000000 -0.000000
vn -0.000000 -1.000000 -0.000001
vn -0.000000 -1.000000 -0.000001
vn -0.000000 -1.000000 -0.000001
vn -0.000000 -1.000000 -0.000001
vn -0.000000 -1.000000 -0.000001
vn -0.000000 -1.000000 -0.000001
vn -0.000000 -1.000000 -0.000001
vn -0.000000 -1.000000 -0.000001
vn 0.000000 -1.000000 0.000002
vn 0.000000 -1.000000 0.000002
vn 0.000000 -1.000000 0.000002
vn 0.000000 -1.000000 0.000002
vn -0.024395 -0.999681 -0.006580
vn -0.024395 -0.999681 -0.006580
vn -0.024395 -0.999681 -0.006580
vn -0.024395 -0.999681 -0.006580
vn -0.000001 -1.000000 -0.000000
vn -0.000001 -1.000000 -0.000000
vn -0.000001 -1.000000 -0.000000
vn -0.000001 -1.000000 -0.000000
vn 0.000001 -1.000000 0.000000
vn 0.000001 -1.000000 -0.000001
vn 0.000001 -1.000000 -0.000000
vn 0.000000 -1.000000 -0.000001
vn 0.000000 -1.000000 0.000000
vn 0.000000 -1.000000 0.000000
vn 0.000000 -1.000000 -0.000001
vn 0.000002 -1.000000 -0.000001
vn 0.000000 -1.000000 -0.000000
vn 0.000000 -1.000000 -0.000000
vn 0.000000 -1.000000 0.000000
vn 0.000000 -1.000000 0.000000
vn 0.000000 -1.000000 0.000000
vn -0.000000 -1.000000 0.000000
vn -0.000000 -1.000000 0.000000
vn 0.000000 -1.000000 0.000000
vn -0.000000 -1.000000 0.000000
vn 0.000000 -1.000000 0.000000
vn -0.000000 -1.000000 0.000001
vn 0.000001 -1.000000 0.000002
vn 0.000000 -1.000000 0.000002
vn -0.000001 -1.000000 0.000004
vn 0.000002 -1.000000 0.000001
vn 0.000003 -1.000000 0.000000
vn 0.000002 -1.000000 -0.000004
vn 0.000003 -1.000000 0.000000
vn 0.000003 -1.000000 -0.000000
vn 0.000003 -1.000000 -0.000000
vn 0.000002 -1.000000 -0.000005
vn -0.000006 -1.000000 -0.000009
vn -0.000006 -1.000000 -0.000006
vn -0.000007 -1.000000 -0.000001
vn -0.000002 -1.000000 0.000002
vn -0.000007 -1.000000 -0.000001
vn -0.000007 -1.000000 0.000001
vn -0.000005 -1.000000 0.000002
vn -0.000001 -1.000000 0.000003
vn 0.000003 -1.000000 0.000003
vn 0.000003 -1.000000 0.000003
vn -0.000003 -1.000000 0.000002
vn -0.000004 -1.000000 0.000002
vn 0.000000 -1.000000 0.000001
vn 0.000000 -1.000000 0.000001
vn -0.000001 -1.000000 0.000002
vn 0.000000 -1.000000 -0.000000
vn 0.000000 -1.000000 -0.000000
vn 0.000000 -1.000000 -0.000000
vn 0.000000 -1.000000 -0.000000
vn 0.000001 -1.000000 0.000000
vn 0.000001 -1.000000 0.000000
vn 0.000001 -1.000000 0.000000
vn -0.001815 -0.999998 0.000001
vn -0.000008 -1.000000 0.000001
vn -0.000003 -1.000000 0.000002
vn -0.000002 -1.000000 0.000003
vn -0.000002 -1.000000 0.000004
vn -0.000001 -1.000000 0.000008
vn -0.000001 -1.000000 0.000008
vn -0.000001 -1.000000 0.000008
vn -1.000000 -0.000029 0.000011
vn 0.000001 -1.000000 -0.000001
vn -0.000000 -1.000000 0.000000
vn 0.000000 -1.000000 0.000000
vn 0.000000 -1.000000 0.000000
vn 0.000000 -1.000000 0.000000
vn 0.000000 -1.000000 0.000000
vn -0.000000 -1.000000 0.000000
vn -0.000000 -1.000000 0.000000
vn 0.000000 -1.000000 -0.000001
vn 0.000010 -1.000000 -0.000023
vn -0.707103 0.000000 -0.707111
vn -0.707103 0.000000 -0.707111
vn -0.707103 0.000000 -0.707111
vn -0.707103 0.000000 -0.707111
vn 0.000000 0.000000 -1.000000
vn 0.000000 0.000000 -1.000000
vn 0.000000 0.000000 -1.000000
vn 0.000000 0.000000 -1.000000
vn -0.006467 -0.001871 -0.999977
vn -0.006467 -0.001871 -0.999977
vn -0.006467 -0.001871 -0.999977
vn -0.006467 -0.001871 -0.999977
vn 0.000000 0.000000 1.000000
vn 0.000000 0.000000 1.000000
vn 0.000000 0.000000 1.000000
vn 0.000000 0.000000 1.000000
vn 1.000000 0.000000 0.000000
vn 1.000000 0.000000 0.000000
vn 1.000000 0.000000 0.000000
vn 1.000000 0.000000 0.000000
vn -0.999994 -0.003484 -0.000147
vn -0.999994 -0.003484 -0.000147
vn -0.999994 -0.003484 -0.000147
vn -0.999994 -0.003484 -0.000147
s off
g Floor4Roof FloorRoofs CSBuildingStructure CS_Building_V11:CS_Building group1
usemtl CS_Building_V11:lambert5SG
f 2/1/1 3/2/2 82/3/3 83/4/4
f 3/100/5 4/101/6 84/102/7 82/103/8
s 1
f 84/5/9 15/6/10 5/7/11 85/8/12
s off
f 6/10/13 1/11/14 86/12/15 87/13/16
f 88/104/17 85/105/18 5/106/19 7/107/20
f 87/108/21 89/109/22 8/110/23 6/111/24
f 1/112/25 2/113/26 83/114/27 86/115/28
usemtl CS_Building_V11:lambert2SG
f 60/22/29 59/23/30 63/24/31 64/25/32
f 26/32/33 67/30/34 69/39/35 68/40/36
f 58/29/37 24/31/38 62/36/39 25/37/40
f 21/41/41 20/46/42 17/54/43 18/55/44
f 43/69/45 45/73/46 46/79/47 44/80/48
f 47/78/49 42/82/50 41/87/51 48/88/52
f 40/85/53 38/94/54 37/96/55 39/97/56
f 9/84/57 11/70/58 56/89/59 90/90/60
f 11/70/61 13/65/62 14/75/63 12/76/64
s 2
f 50/74/65 19/62/66 11/70/67
f 11/70/67 19/62/66 13/65/68
f 22/56/69 16/47/70 21/41/71
f 16/47/70 23/35/72 21/41/71
f 65/33/73 66/34/74 67/30/75 61/28/76
f 27/43/77 28/38/78 26/32/79
f 29/49/80 30/42/81 28/38/78
f 31/58/82 33/48/83 30/42/81
f 32/66/84 4/57/85 57/63/86
f 4/57/85 3/26/87 33/48/83
f 33/48/83 3/26/87 30/42/81
f 30/42/81 3/26/87 28/38/78
f 28/38/78 3/26/87 26/32/79
f 26/32/79 3/26/87 67/30/75
f 67/30/75 3/26/87 61/28/76
f 61/28/76 3/26/87 60/22/88
f 60/22/88 3/26/87 2/27/89 59/23/90
f 59/23/90 2/27/89 58/29/91
f 58/29/91 2/27/89 24/31/92
f 24/31/92 2/27/89 23/35/72
f 23/35/72 2/27/89 21/41/71
f 21/41/71 2/27/89 20/46/93
f 20/46/93 2/27/89 1/53/94
f 20/46/93 1/53/94 19/62/66
f 19/62/66 1/53/94 13/65/68
f 13/65/68 1/53/94 43/69/95
f 43/69/95 1/53/94 45/73/96
f 45/73/96 1/53/94 6/77/97 47/78/98
f 47/78/98 6/77/97 42/82/99
f 40/85/100 42/82/99 6/77/97 5/86/101
f 6/77/97 8/91/102 7/92/103 5/86/101
f 40/85/100 5/86/101 15/93/104 38/94/105
f 36/99/106 38/94/105 35/95/107
f 38/94/105 15/93/104 35/95/107
f 15/93/104 34/98/108 35/95/107
s off
f 10/83/109 49/81/110 11/70/111 9/84/112
f 11/70/113 49/81/114 50/74/115
s 2
usemtl CS_Building_V11:lambert5SG
f 31/58/82 55/64/116 33/48/83
usemtl CS_Building_V11:lambert2SG
f 55/64/116 53/68/117 33/48/83
f 53/68/117 52/72/118 33/48/83
f 52/72/118 54/71/119 33/48/83
f 54/71/119 51/67/120 33/48/83
f 57/63/86 4/57/85 33/48/83
s off
f 57/63/121 33/48/122 51/67/123
s 1
usemtl CS_Building_V11:lambert5SG
f 4/9/124 15/6/10 84/5/9
s 9
f 78/52/125 69/39/126 73/59/127 75/60/128
f 74/50/129 72/51/130 68/40/131 76/44/132
f 76/44/132 68/40/131 69/39/126 77/45/133
f 77/45/133 69/39/126 78/52/125
f 77/45/133 78/52/125 79/61/134
s off
usemtl CS_Building_V11:lambert2SG CS_Building_V11:lambert5SG
f 91/117/135 92/120/136 79/121/137 78/118/138
f 93/116/139 91/117/140 78/118/141 75/119/142
f 94/122/143 95/123/144 74/124/145 76/125/146
usemtl CS_Building_V11:lambert5SG
f 71/126/147 70/127/148 80/128/149 81/129/150
f 75/14/151 71/15/152 81/16/153 93/17/154
f 70/18/155 74/19/156 95/20/157 80/21/158
