# This file uses centimeters as units for non-parametric coordinates.

mtllib Broadleaves_Side.mtl
g default
v 0.883723 -0.822354 0.099300
v 0.068700 -0.915400 0.440300
v 0.048076 -1.870300 0.168600
v -0.854638 -0.631643 0.099300
v 0.000000 0.000000 0.000000
vt 0.559103 0.984505
vt 0.490632 0.537050
vt 1.000666 0.485983
vt 0.252114 0.015363
vt 0.001622 0.552749
vn -0.408196 0.002300 0.912891
vn -0.047002 -0.144107 0.988445
vn 0.013601 0.272516 0.962055
vn 0.013601 0.272516 0.962055
vn -0.047002 -0.144107 0.988445
vn 0.562405 -0.149101 0.813308
vn -0.408196 0.002300 0.912891
vn 0.006400 -0.433109 0.901319
vn -0.047002 -0.144107 0.988445
vn -0.047002 -0.144107 0.988445
vn 0.006400 -0.433109 0.901319
vn 0.562405 -0.149101 0.813308
s off
g Broadleaves:diamond
usemtl initialShadingGroup
f 1/1/1 2/2/2 3/3/3
f 3/3/4 2/2/5 4/4/6
f 1/1/7 5/5/8 2/2/9
f 2/2/10 5/5/11 4/4/12
