# This file uses centimeters as units for non-parametric coordinates.

mtllib Needles.mtl
g default
v -0.370642 0.247418 -0.056190
v 0.034360 -0.036538 -0.016153
v 0.221235 -0.440407 -0.105176
v -0.433261 0.320188 -0.975404
v 0.104882 0.087739 -1.001203
v 0.254487 -0.479049 -1.027002
v -0.435815 0.182025 -1.762103
v -0.098299 -0.023504 -1.986254
v 0.042352 -0.373657 -1.797978
vt 0.045243 0.009809
vt 0.248413 0.009809
vt 0.437910 0.034421
vt 0.026101 0.414454
vt 0.248413 0.414454
vt 0.487134 0.414454
vt 0.088997 0.734325
vt 0.248413 0.802691
vt 0.394156 0.734325
vn 0.477129 0.873961 0.092415
vn 0.756870 0.647982 0.085249
vn 0.755114 0.653431 -0.053202
vn 0.448431 0.893543 -0.022153
vn 0.945176 0.319863 0.065801
vn 0.953217 0.296379 -0.059479
vn 0.730199 0.647666 -0.217571
vn 0.400594 0.899742 -0.173172
vn 0.940011 0.258013 -0.223180
s 1
g pPlane1
usemtl initialShadingGroup
f 1/1/1 2/2/2 5/5/3 4/4/4
f 2/2/2 3/3/5 6/6/6 5/5/3
f 4/4/4 5/5/3 8/8/7 7/7/8
f 5/5/3 6/6/6 9/9/9 8/8/7
g default
v -0.473956 -0.121777 -0.219460
v 0.002919 -0.000000 -0.014974
v 0.434780 -0.121777 -0.082970
v -0.524916 -0.121777 -1.001203
v 0.002919 0.134516 -1.001203
v 0.530754 -0.121777 -1.001203
v -0.445856 -0.213831 -1.781925
v 0.002919 -0.092054 -1.987432
v 0.405230 -0.213831 -1.781925
vt 0.510131 0.091848
vt 0.757056 -0.003864
vt 0.946553 0.020748
vt 0.510131 0.400781
vt 0.757056 0.400781
vt 0.995776 0.400781
vt 0.562090 0.720652
vt 0.757056 0.789018
vt 0.957491 0.720652
vn -0.365442 0.927295 0.081087
vn 0.028353 0.995642 0.088845
vn 0.004835 0.998653 -0.051668
vn -0.379793 0.923824 -0.048036
vn 0.370382 0.925073 0.084005
vn 0.390512 0.919530 -0.044320
vn -0.003355 0.979468 -0.201574
vn -0.387872 0.903897 -0.180349
vn 0.405429 0.894155 -0.190039
s 1
g pasted__pPlane1 group
usemtl initialShadingGroup
f 10/10/10 11/11/11 14/14/12 13/13/13
f 11/11/11 12/12/14 15/15/15 14/14/12
f 13/13/13 14/14/12 17/17/16 16/16/17
f 14/14/12 15/15/15 18/18/18 17/17/16
