v -0.233047 -0.619424 -0.0822118
vn -0.318793 0.00476092 0.947812
vt 0.0214844 0.64681
v -0.233047 0.00297213 -0.0822118
vn -0.318796 0 0.947823
vt 0.0214844 0.958008
v -0.204238 -1.24182 -0.0631425
vn -0.293609 0.00571576 0.955908
vt 0.0791016 0.335612
v -0.198379 -1.86422 -0.0595715
vn -0.277015 0.00143078 0.960865
vt 0.0908203 0.0244141
v 0.0108499 -1.86422 -0.000178195
vn 0.140722 0.00033788 0.990049
vt 0.509277 0.0244141
v 0.0108499 -1.24182 -0.000178195
vn 0.0382426 0.00313326 0.999264
vt 0.509277 0.335612
v 0.0108499 -0.619424 -0.000178195
vn 0.0355457 0.0025313 0.999365
vt 0.509277 0.64681
v 0.0108499 0.00297213 -0.000178195
vn -0.0932954 0 0.995639
vt 0.509277 0.958008
v 0.225938 -1.86422 -0.0772727
vn 0.337413 0.000970528 0.941356
vt 0.939453 0.0244141
v 0.227891 -1.24182 -0.0786145
vn 0.33905 0.00531702 0.940753
vt 0.943359 0.335612
v 0.254747 -0.619424 -0.0982346
vn 0.36202 0.00499421 0.932157
vt 0.99707 0.64681
v 0.254747 0.00297213 -0.0982346
vn 0.373022 0 0.927822
vt 0.99707 0.958008
f 4/4/4 5/5/5 6/6/6
f 4/4/4 6/6/6 3/3/3
f 5/5/5 9/9/9 10/10/10
f 5/5/5 10/10/10 6/6/6
f 3/3/3 6/6/6 7/7/7
f 3/3/3 7/7/7 1/1/1
f 6/6/6 10/10/10 11/11/11
f 6/6/6 11/11/11 7/7/7
f 1/1/1 7/7/7 8/8/8
f 1/1/1 8/8/8 2/2/2
f 7/7/7 11/11/11 12/12/12
f 7/7/7 12/12/12 8/8/8
