# This file uses centimeters as units for non-parametric coordinates.

mtllib Floor7Floor_Tex_Hite.mtl
g default
v -1039.995456 487.565375 -2072.035994
v -1039.995456 487.566591 -1023.942999
v -565.241757 487.565375 -921.690129
v -502.603936 487.565375 -1306.439593
v -565.241757 487.565375 -1306.439593
v -565.241757 487.565375 -1423.384627
v -502.603936 487.565375 -1423.384627
v -565.241757 487.565375 -1647.458883
v -502.590453 487.565375 -1647.458883
v -565.241757 487.565375 -1762.721615
v -502.590453 487.565375 -1762.721615
v -565.241757 487.565375 -2048.326290
v -451.566564 487.565375 -2048.326290
v -668.912658 487.565375 -2151.853222
v -668.912658 487.565375 -2268.642299
v -451.566564 487.565375 -2268.642299
v -795.630760 487.565375 -2151.853500
v -795.630760 487.565375 -2214.148551
v -897.646880 487.565375 -2151.853639
v -897.646880 487.565375 -2214.148551
v -1039.911153 487.565375 -2151.853639
v -1039.729760 487.570726 -2415.996496
v -1022.913210 487.570726 -338.800614
v -794.687167 487.565722 -921.691241
v -1022.910013 487.566278 -921.694786
v -840.092102 487.565375 -2415.996496
v -853.940961 487.570726 -338.800614
v -897.957403 487.566035 -921.678175
v -794.688070 487.565722 -856.501056
v -897.957403 487.566035 -856.501959
v -1126.523194 487.565375 -2159.265467
v -1126.523194 487.565375 -2495.852922
v -1036.929145 487.565375 -2495.852922
v -1036.929145 487.565375 -2465.002159
v -1023.999763 487.565375 -2465.002159
v -1352.122057 487.565375 -2159.265467
v -1352.122057 487.565375 -2046.872502
v -1238.748735 487.565375 -2046.872502
v -1238.748735 487.565375 -1758.241270
v -1295.600318 487.565375 -1758.241270
v -1238.748735 487.565375 -1310.798732
v -1295.600318 487.565375 -1310.798732
v -1295.600318 487.565375 -1701.501441
v -1295.600318 487.565375 -1417.416439
v -1295.600318 487.565375 -1650.367987
v -1295.600318 487.565375 -1367.495054
v -1410.816208 487.565375 -1417.416439
v -1410.816208 487.565375 -1367.495054
v -1769.247726 487.565375 -1701.501441
v -1769.247726 487.565375 -1650.367987
v -1238.748735 487.566278 -1081.898302
v -1125.121184 487.567390 -857.481831
v -1125.121184 487.571039 -262.772838
v -1009.149141 487.571039 -262.772838
v -1352.465940 487.567390 -857.481831
v -1352.465940 487.566591 -1028.030534
v -1694.958755 487.566278 -1081.898302
v -1694.958755 487.566591 -1028.030534
v -1023.999763 487.565375 -2559.249676
v -1009.149141 487.571352 -183.135996
v -679.999959 487.565375 -1467.703670
v -679.999959 487.565375 -1548.000304
v -679.999959 487.565375 -2072.034048
v -679.999959 487.565375 -1024.013680
v -732.404140 487.565375 -1467.703670
v -732.404140 487.565375 -1548.000304
v -840.092102 487.565375 -2438.665518
v -960.627750 487.565375 -2559.249676
v -853.940961 487.571352 -239.463415
v -959.743719 487.571352 -183.135996
v -934.673078 487.571352 -158.351693
vt 0.500581 0.526789
vt 0.500581 0.478281
vt 0.526566 0.478281
vt 0.526566 0.526789
vt 0.452973 0.545185
vt 0.500581 0.619756
vt 0.452973 0.361104
vt 0.452973 0.578499
vt 0.500581 0.318670
vt 0.452973 0.795894
vt 0.431232 0.578499
vt 0.431232 0.545185
vt 0.405395 0.318670
vt 0.500581 0.667572
vt 0.303624 0.361087
vt 0.526570 0.619756
vt 0.526570 0.667572
vt 0.500581 0.786047
vt 0.362550 0.318653
vt 0.457572 0.829000
vt 0.310715 0.318670
vt 0.362550 0.291621
vt 0.405391 0.291621
vt 0.457572 0.877456
vt 0.405001 0.829000
vt 0.221171 0.385124
vt 0.547739 0.877456
vt 0.362680 0.829000
vt 0.221171 0.480081
vt 0.268312 0.292019
vt 0.547739 0.786047
vt 0.405001 0.854837
vt 0.362680 0.854837
vt 0.303624 0.795894
vt 0.197587 0.620950
vt 0.310711 0.076839
vt 0.173995 0.362783
vt 0.303659 0.829000
vt 0.197587 0.642167
vt 0.197587 0.524315
vt 0.316422 0.045308
vt 0.173995 0.292019
vt 0.031911 0.362783
vt 0.267728 0.832080
vt 0.001093 0.642167
vt 0.001093 0.620950
vt 0.221171 0.665703
vt 0.197587 0.503600
vt 0.336920 0.012272
vt 0.268312 0.045308
vt 0.031911 0.385124
vt 0.303737 0.938580
vt 0.221171 0.785459
vt 0.197587 0.665703
vt 0.197587 0.480081
vt 0.149789 0.524315
vt 0.149789 0.503600
vt 0.347321 0.001992
vt 0.316422 0.012272
vt 0.267728 0.971703
vt 0.174138 0.785459
vt 0.380812 0.035634
vt 0.304896 0.958914
vt 0.174138 0.832080
vt 0.380812 0.076839
vt 0.304896 0.971703
vt 0.310261 0.958914
vt 0.336553 0.998008
vt 0.310261 0.998008
vt 0.386558 0.947994
vt 0.386558 0.938580
vn 0.000000 1.000000 0.000000
vn 0.000000 1.000000 0.000000
vn 0.000000 1.000000 0.000000
vn 0.000000 1.000000 0.000000
vn 0.000000 1.000000 0.000000
vn 0.000000 1.000000 0.000000
vn 0.000000 1.000000 0.000000
vn 0.000000 1.000000 0.000000
vn 0.000000 1.000000 0.000000
vn 0.000027 1.000000 0.000000
vn 0.000025 1.000000 -0.000019
vn -0.000030 1.000000 -0.000010
vn 0.000019 1.000000 -0.000021
vn 0.000000 1.000000 0.000000
vn -0.000161 1.000000 -0.000119
vn 0.000024 1.000000 -0.000078
vn 0.000000 1.000000 0.000000
vn -0.000053 1.000000 -0.000007
vn -0.000007 1.000000 0.000007
vn -0.000001 1.000000 0.000011
vn 0.000000 1.000000 0.000000
vn 0.000000 1.000000 0.000000
vn -0.000000 1.000000 -0.000001
vn 0.000000 1.000000 0.000000
vn -0.000001 1.000000 -0.000001
vn -0.000005 1.000000 -0.000000
vn 0.000000 1.000000 0.000000
vn -0.000006 1.000000 0.000000
vn 0.000000 1.000000 0.000000
vn 0.000000 1.000000 -0.000007
vn 0.000000 1.000000 -0.000007
vn 0.000000 1.000000 -0.000004
vn 0.000000 1.000000 -0.000006
vn 0.000000 1.000000 -0.000005
vn 0.000005 1.000000 -0.000007
vn 0.000000 1.000000 -0.000006
vn 0.000000 1.000000 -0.000006
vn 0.000000 1.000000 -0.000004
vn 0.000004 1.000000 -0.000005
vn 0.000000 1.000000 -0.000006
vn -0.000007 1.000000 -0.000004
vn -0.000001 1.000000 -0.000004
vn -0.000002 1.000000 -0.000003
vn 0.000004 1.000000 -0.000005
vn 0.000000 1.000000 -0.000001
vn 0.000001 1.000000 -0.000000
vn 0.000003 1.000000 -0.000000
vn -0.000001 1.000000 -0.000000
vn 0.000003 1.000000 0.000001
vn 0.000000 1.000000 0.000000
vn 0.000000 1.000000 0.000000
vn 0.000000 1.000000 0.000000
vn 0.000000 1.000000 0.000000
vn 0.000000 1.000000 0.000000
vn 0.000000 1.000000 0.000000
vn -0.000000 1.000000 -0.000001
vn 0.000000 1.000000 0.000000
vn -0.000002 1.000000 0.000000
vn 0.000000 1.000000 0.000000
vn 0.000000 1.000000 0.000000
vn 0.000000 1.000000 0.000000
vn 0.000000 1.000000 0.000000
vn 0.000000 1.000000 0.000000
vn 0.000000 1.000000 0.000000
vn 0.000000 1.000000 0.000000
vn 0.000000 1.000000 0.000000
vn 0.000000 1.000000 0.000000
vn 0.000003 1.000000 -0.000000
vn 0.000003 1.000000 -0.000000
vn 0.000000 1.000000 0.000000
vn 0.000000 1.000000 0.000000
s 1
g Floor7Floor FloorFloors CSBuildingStructure CS_Building_V11:CS_Building group1
usemtl CS_Building_V11:lambert2SG
f 6/1/1 5/2/2 4/3/3 7/4/4
f 13/31/5 16/27/6 12/18/7
f 16/27/6 15/24/8 12/18/7
f 15/24/8 14/20/9 12/18/7
f 26/71/10 67/70/11 22/52/12
f 67/70/11 68/68/13 22/52/12
f 59/69/14 35/67/15 68/68/13
f 68/68/13 35/67/15 22/52/12
f 35/67/15 34/63/16 22/52/12
f 33/66/17 32/60/18 34/63/16
f 34/63/16 32/60/18 22/52/12
f 22/52/12 32/60/18 31/44/19
f 22/52/12 31/44/19 21/38/20
f 36/64/21 37/61/22 31/44/19
f 37/61/22 38/53/23 31/44/19
f 40/54/24 43/39/25 39/47/26
f 42/55/27 41/29/28 46/48/29
f 57/51/30 58/43/31 51/26/32
f 58/43/31 56/37/33 51/26/32
f 55/42/34 52/30/35 56/37/33
f 56/37/33 52/30/35 51/26/32
f 53/50/36 54/41/37 52/30/35
f 60/59/38 70/49/39 54/41/37
f 27/65/40 23/36/41 69/62/42
f 69/62/42 23/36/41 71/58/43
f 71/58/43 23/36/41 70/49/39
f 70/49/39 23/36/41 54/41/37
f 54/41/37 23/36/41 52/30/35
f 23/36/41 25/21/44 52/30/35
f 52/30/35 25/21/44 51/26/32
f 3/9/45 64/7/46 24/13/47
f 64/7/46 2/15/48 24/13/47
f 24/13/47 2/15/48 28/19/49
f 25/21/44 28/19/49 2/15/48
f 3/9/45 5/2/2 64/7/46
f 64/7/46 5/2/2 61/5/50
f 5/2/2 6/1/1 61/5/50
f 6/1/1 8/6/51 61/5/50
f 61/5/50 8/6/51 62/8/52
f 62/8/52 8/6/51 63/10/53
f 8/6/51 10/14/54 63/10/53
f 10/14/54 12/18/7 63/10/53
f 12/18/7 14/20/9 63/10/53
f 14/20/9 17/25/55 63/10/53
f 1/34/56 63/10/53 19/28/57
f 63/10/53 17/25/55 19/28/57
f 19/28/57 21/38/20 1/34/56
f 1/34/56 21/38/20 31/44/19
f 31/44/19 38/53/23 1/34/56
f 1/34/56 38/53/23 2/15/48
f 38/53/23 39/47/26 2/15/48
f 39/47/26 43/39/25 2/15/48
f 43/39/25 45/35/58 2/15/48
f 46/48/29 41/29/28 44/40/59
f 25/21/44 2/15/48 51/26/32
f 51/26/32 2/15/48 41/29/28
f 2/15/48 45/35/58 41/29/28
f 45/35/58 44/40/59 41/29/28
f 10/14/54 8/6/51 9/16/60 11/17/61
f 19/28/57 17/25/55 18/32/62 20/33/63
f 46/48/29 44/40/59 47/56/64 48/57/65
f 45/35/58 43/39/25 49/45/66 50/46/67
f 24/13/47 28/19/49 30/22/68 29/23/69
f 61/5/50 62/8/52 66/11/70 65/12/71
