# This file uses centimeters as units for non-parametric coordinates.

mtllib Floor4Floor_Tex_Hite.mtl
g default
v -498.367985 112.945042 2736.820134
v -351.999949 -28.392284 2736.820134
v -4.215818 -28.392284 -695.999805
v -351.999949 -28.392284 -695.999805
v -676.336926 112.945042 2736.820134
v -594.436455 -28.392284 -2189.141710
v -582.702810 -28.392284 -2166.113377
v -564.426878 -28.392284 -2147.838244
v -541.398753 -28.392284 -2136.105085
v -676.336926 -28.392284 2736.820134
v -498.367985 -28.392284 2736.820134
v -498.367985 -28.392284 389.302102
v -672.936184 -28.392284 389.302102
v -672.936184 -28.392284 -272.697277
v -672.936184 -28.392284 -921.691241
v -351.999949 -28.392284 -1023.982058
v -4.215696 -28.392241 -1023.982058
v -351.999949 -28.392284 -1039.996446
v -295.078970 -28.392284 -1039.996446
v -351.999949 -28.392284 -1087.001848
v -295.078970 -28.392284 -1087.001848
v -351.999949 -28.392284 -1318.418641
v -294.381683 -28.392284 -1318.418641
v -351.999949 -28.392284 -1432.745217
v -294.381683 -28.392284 -1432.745217
v -352.000644 -28.392284 -1662.044156
v -294.951022 -28.392284 -1662.044156
v -352.000644 -28.392284 -1777.900691
v -294.951022 -28.392284 -1777.900691
v -352.000644 -28.392284 -1931.865945
v -399.103935 -28.392284 -1931.865945
v -399.103935 -28.392284 -1988.725451
v -451.827778 -28.392284 -1988.725451
v -451.827778 -28.392262 -2130.182490
v -515.791404 -28.392284 -2130.182490
v -597.180151 -28.392284 -2274.520137
v -683.724707 -28.392284 -2274.520137
v -1072.490157 -28.392284 -1023.982058
v -1072.489879 -28.392284 -1318.412108
v -1072.489879 -28.392284 -1432.738823
v -1072.489601 -28.392284 -1661.700273
v -1072.489601 -28.392284 -1777.556808
v -1072.489601 -28.392284 -2052.456914
v -1132.557614 -28.392284 -1318.412108
v -1132.557614 -28.392284 -1432.738823
v -1132.557475 -28.392284 -1661.700273
v -1132.557475 -28.392284 -1777.556808
v -1128.035013 -28.392284 -2052.456914
v -683.724707 -28.392284 -2326.477159
v -738.432653 -28.392284 -2326.477159
v -794.687167 -28.392284 -921.691241
v -1128.035013 -28.392284 -2377.900565
v -738.432653 -28.392284 -2377.900565
v -597.180151 -28.392284 -2214.352879
v -672.936184 -28.392284 -342.251396
v -685.988718 -28.392284 -272.697277
v -1009.726681 -28.392284 -342.251674
v -685.988927 -28.392284 -14.010292
v -1009.726820 -28.392284 -14.010709
v -1132.222905 -28.392284 -921.691241
v -1132.222905 -28.392284 -1023.982058
v -814.295610 -28.392284 -2377.900565
v -897.957403 -28.392284 -921.678175
v -794.688070 -28.392284 -856.501056
v -897.957403 -28.392284 -856.501959
v -882.467943 -28.392284 -2377.900565
v -814.295610 -28.392284 -2415.998164
v -882.467943 -28.392284 -2415.998164
v -695.909056 -28.392293 -2743.997028
v -1023.999763 -28.392284 -2743.997028
v -695.909056 -28.392293 -2415.998164
v -1023.999763 -28.392284 -2415.998164
v -676.336926 -28.392219 3093.547806
v -339.784221 -28.392219 3093.547806
v -695.909056 -28.392293 -2469.529347
v -1023.999763 -28.392284 -2559.249676
vt 0.078285 0.001996
vt 0.135709 0.001996
vt 0.108647 0.062859
vt 0.078285 0.062859
vt 0.133623 0.062859
vt 0.133623 0.648578
vt 0.108647 0.463393
vt 0.078865 0.576345
vt 0.078865 0.463393
vt 0.078865 0.588216
vt 0.133623 0.704526
vt 0.078865 0.687082
vt 0.076637 0.576345
vt 0.192964 0.648578
vt 0.192964 0.704526
vt 0.133623 0.707260
vt 0.021402 0.588216
vt 0.133623 0.715290
vt 0.021402 0.532216
vt 0.076637 0.532216
vt 0.143336 0.707260
vt 0.143336 0.715290
vt 0.133623 0.754763
vt 0.010695 0.754763
vt 0.058090 0.687082
vt 0.010695 0.704526
vt 0.040473 0.687082
vt 0.133623 0.774267
vt 0.010695 0.774267
vt 0.000502 0.704526
vt 0.000502 0.687082
vt 0.040473 0.675955
vt 0.058090 0.675955
vt 0.143453 0.754763
vt 0.143453 0.774267
vt 0.133623 0.813394
vt 0.010695 0.813342
vt 0.000445 0.774267
vt 0.000445 0.754763
vt 0.133623 0.833157
vt 0.010695 0.833105
vt 0.125585 0.859426
vt 0.000445 0.833105
vt 0.000445 0.813342
vt 0.143358 0.813394
vt 0.143358 0.833157
vt 0.133623 0.859426
vt 0.116591 0.869135
vt 0.125585 0.869135
vt 0.010695 0.880003
vt 0.097377 0.896287
vt 0.094262 0.899402
vt 0.101306 0.894279
vt 0.092259 0.903330
vt 0.105675 0.893276
vt 0.091792 0.907639
vt 0.116591 0.893276
vt 0.077022 0.917901
vt 0.067690 0.926762
vt 0.091792 0.917901
vt 0.054745 0.935536
vt 0.077022 0.926762
vt 0.043116 0.935536
vt 0.067690 0.935536
vt 0.001216 0.935536
vt 0.001216 0.880003
vt 0.054745 0.942042
vt 0.043116 0.942042
vt 0.074945 0.998008
vt 0.018967 0.998008
vt 0.074945 0.942042
vt 0.074945 0.951162
vt 0.018967 0.966478
vt 0.018967 0.942042
vt 0.199072 0.032350
vt 0.199072 0.001992
vt 0.223187 0.001992
vt 0.223187 0.032350
vn 0.000000 0.000000 1.000000
vn 0.000000 0.000000 1.000000
vn 0.000000 0.000000 1.000000
vn 0.000000 0.000000 1.000000
vn 0.000000 1.000000 -0.000000
vn 0.000000 1.000000 -0.000000
vn 0.000000 1.000000 -0.000000
vn 0.000000 1.000000 -0.000000
vn 0.000000 1.000000 0.000000
vn 0.000000 1.000000 0.000000
vn 0.000000 1.000000 0.000000
vn 0.000000 1.000000 0.000000
vn -0.000000 1.000000 0.000000
vn -0.000000 1.000000 0.000000
vn 0.000000 1.000000 0.000000
vn 0.000000 1.000000 0.000000
vn 0.000000 1.000000 0.000000
vn 0.000000 1.000000 0.000000
vn 0.000000 1.000000 -0.000000
vn 0.000000 1.000000 0.000000
vn 0.000000 1.000000 0.000000
vn 0.000000 1.000000 0.000000
vn -0.000000 1.000000 0.000000
vn -0.000000 1.000000 0.000000
vn 0.000000 1.000000 -0.000000
vn 0.000000 1.000000 -0.000000
vn 0.000000 1.000000 -0.000000
vn 0.000000 1.000000 -0.000000
vn 0.000000 1.000000 0.000000
vn 0.000000 1.000000 0.000000
vn 0.000000 1.000000 0.000000
vn 0.000000 1.000000 0.000000
vn 0.000000 1.000000 0.000000
vn 0.000000 1.000000 0.000000
vn 0.000000 1.000000 0.000000
vn 0.000000 1.000000 0.000000
vn 0.000000 1.000000 -0.000000
vn 0.000000 1.000000 0.000000
vn 0.000000 1.000000 0.000000
vn 0.000000 1.000000 0.000000
vn 0.000000 1.000000 0.000000
vn 0.000000 1.000000 0.000000
vn 0.000000 1.000000 0.000000
vn 0.000000 1.000000 -0.000000
vn 0.000000 1.000000 -0.000000
vn 0.000000 1.000000 0.000000
vn 0.000000 1.000000 0.000000
vn 0.000000 1.000000 -0.000000
vn 0.000000 1.000000 0.000000
vn 0.000000 1.000000 0.000000
vn 0.000000 1.000000 0.000000
vn 0.000000 1.000000 -0.000000
vn 0.000000 1.000000 -0.000000
vn 0.000000 1.000000 -0.000000
vn 0.000000 1.000000 0.000000
vn 0.000000 1.000000 0.000000
vn 0.000000 1.000000 0.000000
vn 0.000000 1.000000 0.000000
vn 0.000000 1.000000 0.000000
vn 0.000000 1.000000 0.000000
vn 0.000000 1.000000 0.000000
vn 0.000000 1.000000 0.000000
vn 0.000000 1.000000 0.000000
vn 0.000000 1.000000 0.000000
vn 0.000000 1.000000 0.000000
vn 0.000000 1.000000 -0.000000
vn 0.000000 1.000000 0.000000
vn -0.000000 1.000000 0.000000
vn -0.000000 1.000000 0.000000
vn -0.000000 1.000000 0.000000
vn 0.000000 1.000000 0.000000
vn 0.000000 1.000000 0.000000
vn 0.000000 1.000000 -0.000000
vn 0.000000 1.000000 0.000000
vn 0.000000 1.000000 -0.000000
vn 0.000000 1.000000 0.000000
vn 0.000000 1.000000 0.000000
vn 0.000000 1.000000 -0.000000
vn 0.000000 1.000000 0.000000
vn 0.000000 1.000000 0.000000
s off
g Floor4Floor FloorFloors CSBuildingStructure CS_Building_V11:CS_Building group1
usemtl CS_Building_V11:lambert5SG
f 10/75/1 11/76/2 1/77/3 5/78/4
s 1
usemtl CS_Building_V11:lambert2SG
f 73/1/5 74/2/6 11/3/7 10/4/8
s 2
f 14/8/9 55/10/10 56/13/11
s 1
f 55/10/12 4/6/13 16/11/14 15/12/15
s 2
f 56/13/11 57/17/16 59/19/17 58/20/18
f 56/13/11 55/10/10 57/17/16
s 1
f 11/3/7 2/5/19 4/6/13 12/7/20
f 14/8/21 4/6/13 55/10/12
f 12/7/20 4/6/13 14/8/21 13/9/22
f 16/11/14 4/6/13 3/14/23 17/15/24
f 51/25/25 63/27/26 65/32/27 64/33/28
f 39/24/29 40/29/30 45/38/31 44/39/32
f 63/27/26 38/26/33 61/30/34 60/31/35
f 41/37/36 42/41/37 47/43/38 46/44/39
f 43/50/40 66/63/41 52/65/42 48/66/43
f 68/68/44 70/70/45 76/73/46 72/74/47
f 28/40/48 26/36/49 27/45/50 29/46/51
f 66/63/41 62/61/52 67/67/53 68/68/44
f 69/69/54 67/67/53 71/71/55 75/72/56
f 68/68/44 67/67/53 69/69/54 70/70/45
f 24/28/57 22/23/58 23/34/59 25/35/60
f 20/18/61 18/16/62 19/21/63 21/22/64
f 30/47/65 31/42/66 28/40/48
f 32/49/67 33/48/68 31/42/66
f 34/57/69 35/55/70 33/48/68
f 36/60/71 37/58/72 54/56/73
f 49/62/74 50/59/75 37/58/72
f 53/64/76 62/61/52 50/59/75
f 16/11/14 18/16/62 15/12/15
f 18/16/62 20/18/61 15/12/15
f 20/18/61 22/23/58 15/12/15
f 39/24/29 38/26/33 63/27/26 51/25/25
f 66/63/41 43/50/40 62/61/52
f 62/61/52 43/50/40 50/59/75
f 50/59/75 43/50/40 37/58/72
f 37/58/72 43/50/40 54/56/73
f 54/56/73 43/50/40 6/54/77
f 6/54/77 43/50/40 7/52/78
f 28/40/48 31/42/66 42/41/37
f 31/42/66 33/48/68 42/41/37
f 42/41/37 33/48/68 43/50/40
f 7/52/78 43/50/40 8/51/79
f 8/51/79 43/50/40 33/48/68
f 33/48/68 9/53/80 8/51/79
f 39/24/29 51/25/25 15/12/15 22/23/58
f 39/24/29 22/23/58 24/28/57 40/29/30
f 40/29/30 24/28/57 26/36/49 41/37/36
f 35/55/70 9/53/80 33/48/68
f 28/40/48 42/41/37 41/37/36 26/36/49
f 11/3/7 74/2/6 2/5/19
