# This file uses centimeters as units for non-parametric coordinates.

mtllib Magnolia_Flower_Pink.mtl
g default
v -0.678665 -0.005314 1.000000
v 0.000000 -0.005314 1.000000
v 0.770224 -0.005314 0.936949
v -1.000000 -0.059322 0.000000
v 0.000000 0.287499 0.000000
v 1.000000 -0.004903 0.000000
v -0.914247 -0.038020 -0.676505
v 0.000000 -0.038020 -1.000000
v 0.785723 -0.038020 -0.788829
vt 0.117915 0.000000
vt 0.500000 0.000000
vt 0.989281 0.053598
vt 0.000000 0.500000
vt 0.500000 0.500000
vt 1.000000 0.500000
vt 0.071464 0.824914
vt 0.500000 1.000000
vt 0.871366 0.910671
vn -0.200110 0.968562 0.147800
vn -0.020627 0.986923 0.159868
vn -0.013573 0.999780 -0.015993
vn -0.205719 0.978259 -0.026249
vn 0.166467 0.971825 0.166867
vn 0.177412 0.983996 -0.016650
vn -0.006890 0.978986 -0.203813
vn -0.205370 0.961060 -0.184897
vn 0.182462 0.959588 -0.214241
s 1
g pPlane1
usemtl initialShadingGroup
f 1/1/1 2/2/2 5/5/3 4/4/4
f 2/2/2 3/3/5 6/6/6 5/5/3
f 4/4/4 5/5/3 8/8/7 7/7/8
f 5/5/3 6/6/6 9/9/9 8/8/7
