# This file uses centimeters as units for non-parametric coordinates.

mtllib Leaf.mtl
g default
v -0.675731 -1.541938 -0.100805
v 0.003250 -2.054288 0.002719
v 0.521573 -1.539573 -0.128977
v -0.954906 -1.014495 0.078371
v 0.003250 -1.014495 0.237373
v 0.879628 -1.014495 0.047677
v -0.294135 -0.545048 0.014196
v 0.003250 0.025297 0.002719
v 0.274796 -0.549971 -0.013976
vt 0.824701 0.753483
vt 0.475273 0.999997
vt 0.233161 0.713286
vt 0.993977 0.498300
vt 0.510405 0.500000
vt 0.026832 0.501700
vt 0.690394 0.310190
vt 0.542183 0.000003
vt 0.350375 0.286761
vn -0.238701 -0.287448 0.927575
vn 0.042504 -0.310503 0.949622
vn 0.042539 -0.001136 0.999094
vn -0.249947 0.000602 0.968260
vn 0.320304 -0.308689 0.895609
vn 0.333035 -0.002785 0.942910
vn 0.038404 0.308079 0.950585
vn -0.240008 0.288601 0.926879
vn 0.313803 0.303387 0.899713
s 1
g pPlane1
usemtl initialShadingGroup
f 1/1/1 2/2/2 5/5/3 4/4/4
f 2/2/2 3/3/5 6/6/6 5/5/3
f 4/4/4 5/5/3 8/8/7 7/7/8
f 5/5/3 6/6/6 9/9/9 8/8/7
