# This file uses centimeters as units for non-parametric coordinates.

mtllib CS_Building_ElevatorSpots15.mtl
g default
v -4.789552 1.078301 -13.582241
v -4.289552 1.078301 -13.582241
v -3.789552 1.078301 -13.582241
v -4.789552 1.078301 -14.082241
v -4.289552 1.078301 -14.082241
v -3.789552 1.078301 -14.082241
v -4.789552 1.078301 -14.582241
v -4.289552 1.078301 -14.582241
v -3.789552 1.078301 -14.582241
vt 0.000000 0.000000
vt 0.500000 0.000000
vt 1.000000 0.000000
vt 0.000000 0.500000
vt 0.500000 0.500000
vt 1.000000 0.500000
vt 0.000000 1.000000
vt 0.500000 1.000000
vt 1.000000 1.000000
vn 0.000000 1.000000 0.000000
vn 0.000000 1.000000 0.000000
vn 0.000000 1.000000 0.000000
vn 0.000000 1.000000 0.000000
vn 0.000000 1.000000 0.000000
vn 0.000000 1.000000 0.000000
vn 0.000000 1.000000 0.000000
vn 0.000000 1.000000 0.000000
vn 0.000000 1.000000 0.000000
s 1
g ElevatorSpot_1_Floor5
usemtl initialShadingGroup
f 1/1/1 2/2/2 5/5/3 4/4/4
f 2/2/2 3/3/5 6/6/6 5/5/3
f 4/4/4 5/5/3 8/8/7 7/7/8
f 5/5/3 6/6/6 9/9/9 8/8/7
