# This file uses centimeters as units for non-parametric coordinates.

mtllib Floor7Walls_Tex_Hite.mtl
g default
v -565.241757 601.565338 -921.690129
v -565.241757 601.565338 -1306.439593
v -502.603936 601.565338 -1306.439593
v -565.241757 601.565338 -1423.384627
v -502.603936 601.565338 -1423.384627
v -565.241757 601.565338 -1647.458883
v -502.590453 601.565338 -1647.458883
v -565.241757 601.565338 -1762.721615
v -502.590453 601.565338 -1762.721615
v -565.241757 601.565338 -2048.326290
v -451.566564 601.565338 -2048.326290
v -668.912658 601.565338 -2151.852110
v -668.912658 601.565338 -2268.642577
v -451.566564 601.565338 -2268.642577
v -795.630760 601.565338 -2151.853222
v -795.630760 601.565338 -2214.149246
v -897.646880 601.565338 -2151.853639
v -897.646880 601.565338 -2214.149246
v -1040.001850 601.565338 -2151.853639
v -1039.820457 601.565338 -2415.998442
v -1022.913349 601.571037 -338.801274
v -794.687167 601.565755 -921.691450
v -1022.909596 601.566242 -921.695898
v -840.092102 601.565477 -2415.998442
v -853.940961 601.570759 -338.801274
v -897.957403 601.566033 -921.678175
v -794.688070 601.566033 -856.501195
v -897.957403 601.566242 -856.501959
v -1126.523194 601.565338 -2159.265467
v -1036.929145 601.565338 -2495.756179
v -1126.523194 601.565338 -2495.756179
v -1036.929145 601.565338 -2465.004105
v -1023.999763 601.565338 -2465.004105
v -1352.122057 601.565338 -2159.265467
v -1352.122057 601.565338 -2046.872502
v -1238.748735 601.565338 -2046.872502
v -1238.748735 601.565338 -1758.241270
v -1295.600179 601.565338 -1758.241270
v -1238.748735 601.565338 -1310.799010
v -1295.600179 601.565338 -1310.798732
v -1295.600179 601.565338 -1701.501441
v -1295.600179 601.565338 -1650.367987
v -1295.600179 601.565338 -1417.416439
v -1295.600179 601.565338 -1367.495054
v -1410.816208 601.565338 -1417.416439
v -1410.816208 601.565338 -1367.495054
v -1769.247726 601.565338 -1701.501441
v -1769.247726 601.565338 -1650.367987
v -1238.748735 601.566242 -1081.898649
v -1125.121184 601.567771 -857.482456
v -1125.121184 601.571176 -262.773620
v -1009.149141 601.571176 -262.773620
v -1352.465940 601.567632 -857.482456
v -1352.465940 601.566589 -1028.030882
v -1694.958755 601.566242 -1081.898649
v -1694.958755 601.566589 -1028.031229
v -1023.999763 601.565338 -2559.251622
v -1009.149141 601.571315 -183.135996
v -696.029985 601.565477 -2415.998998
v -695.909056 601.565686 -2743.998974
v -1023.999763 601.565616 -2743.998974
v -696.029985 601.565477 -2469.500713
v -565.241757 487.565410 -921.690129
v -794.687167 487.565722 -921.691450
v -502.603936 487.565410 -1306.439593
v -565.241757 487.565410 -1306.439593
v -565.241757 487.565410 -1423.384627
v -502.603936 487.565410 -1423.384627
v -565.241757 487.565410 -1647.458883
v -502.590453 487.565410 -1647.458883
v -565.241757 487.565410 -1762.721615
v -502.590453 487.565410 -1762.721615
v -565.241757 487.565410 -2048.326290
v -451.566564 487.565410 -2048.326290
v -668.912658 487.565410 -2151.851832
v -668.912658 487.565410 -2268.642577
v -451.566564 487.565410 -2268.642577
v -795.630760 487.565410 -2151.853083
v -795.630760 487.565410 -2214.149246
v -897.646880 487.565410 -2151.853639
v -897.646880 487.565410 -2214.149246
v -1040.001850 487.565410 -2151.853639
v -1039.820457 487.570726 -2415.998442
v -1022.913349 487.570726 -338.800892
v -853.940961 487.570726 -338.800892
v -1022.910013 487.566278 -921.694786
v -840.092102 487.565375 -2415.998442
v -897.957403 487.566035 -921.678175
v -794.688070 487.565722 -856.501195
v -897.957403 487.566035 -856.501959
v -1126.523194 487.565410 -2159.265467
v -1126.523194 487.565410 -2495.756457
v -1036.929145 487.565410 -2495.756457
v -1036.929145 487.565410 -2465.004105
v -1023.999763 487.565410 -2465.004105
v -1352.122057 487.565410 -2046.872502
v -1352.122057 487.565410 -2159.265467
v -1238.748735 487.565410 -2046.872502
v -1238.748735 487.565410 -1758.241270
v -1295.600179 487.565410 -1758.241270
v -1238.748735 487.565410 -1310.798732
v -1295.600179 487.565410 -1310.798732
v -1295.600179 487.565410 -1701.501441
v -1295.600179 487.565410 -1417.416439
v -1295.600179 487.565410 -1650.367987
v -1295.600179 487.565410 -1367.495054
v -1410.816208 487.565410 -1417.416439
v -1410.816208 487.565410 -1367.495054
v -1769.247726 487.565410 -1701.501441
v -1769.247726 487.565410 -1650.367987
v -1238.748735 487.566278 -1081.898302
v -1125.121184 487.567390 -857.481970
v -1352.465940 487.567390 -857.481970
v -1125.121184 487.571039 -262.772925
v -1009.149141 487.571039 -262.772925
v -1694.958755 487.566278 -1081.898302
v -1352.465940 487.566591 -1028.030534
v -1694.958755 487.566591 -1028.030534
v -1023.999763 487.565375 -2559.251622
v -1009.149141 487.571352 -183.135996
v -696.029985 487.565410 -2415.998998
v -1023.999763 487.565549 -2743.998974
v -695.909056 487.565618 -2743.998974
v -696.029985 487.565375 -2469.500713
vt 0.844807 0.714864
vt 0.844807 0.624932
vt 0.932481 0.624932
vt 0.932481 0.714864
vt 0.184430 0.633812
vt 0.184430 0.806149
vt 0.096756 0.806149
vt 0.096756 0.633812
vt 0.564624 0.797268
vt 0.564624 0.708619
vt 0.652298 0.708619
vt 0.652298 0.797268
vt 0.564624 0.521328
vt 0.564624 0.301664
vt 0.652298 0.301664
vt 0.652298 0.521328
vt 0.751436 0.716114
vt 0.751436 0.626318
vt 0.839110 0.626318
vt 0.839110 0.716114
vt 0.279119 0.550159
vt 0.279119 0.719604
vt 0.191445 0.719604
vt 0.191445 0.550159
vt 0.015344 0.818930
vt 0.063254 0.818930
vt 0.063254 0.906604
vt 0.015344 0.906604
vt 0.001861 0.910334
vt 0.049771 0.910334
vt 0.049771 0.998008
vt 0.001861 0.998008
vt 0.465520 0.370021
vt 0.465520 0.573173
vt 0.377846 0.573173
vt 0.377846 0.370021
vt 0.563187 0.002009
vt 0.563187 0.297934
vt 0.475513 0.297934
vt 0.475513 0.002009
vt 0.184430 0.002009
vt 0.184430 0.450320
vt 0.096756 0.450320
vt 0.096756 0.002009
vt 0.142270 0.910300
vt 0.192403 0.910300
vt 0.192403 0.997974
vt 0.142270 0.997974
vt 0.198700 0.901283
vt 0.248833 0.901283
vt 0.248833 0.988957
vt 0.198700 0.988957
vt 0.847254 0.002009
vt 0.847254 0.260822
vt 0.759580 0.260822
vt 0.759580 0.002009
vt 0.415421 0.840130
vt 0.439084 0.840130
vt 0.439084 0.927804
vt 0.415421 0.927804
vt 0.549190 0.927804
vt 0.462748 0.927804
vt 0.462748 0.840130
vt 0.549190 0.840130
vt 0.658013 0.492155
vt 0.658013 0.270164
vt 0.745687 0.270164
vt 0.745687 0.492155
vt 0.752291 0.719844
vt 0.795923 0.719844
vt 0.795923 0.807518
vt 0.752291 0.807518
vt 0.284457 0.549201
vt 0.284457 0.370021
vt 0.372131 0.370021
vt 0.372131 0.549201
vt 0.803280 0.719844
vt 0.846878 0.719844
vt 0.846878 0.807518
vt 0.803280 0.807518
vt 0.854269 0.718595
vt 0.892665 0.718595
vt 0.892665 0.806268
vt 0.854269 0.806268
vt 0.893179 0.809999
vt 0.932498 0.809999
vt 0.932498 0.897672
vt 0.893179 0.897672
vt 0.097680 0.630082
vt 0.097680 0.454050
vt 0.185354 0.454050
vt 0.185354 0.630082
vt 0.089535 0.002009
vt 0.089535 0.459406
vt 0.001861 0.459406
vt 0.001861 0.002009
vt 0.846056 0.811248
vt 0.887498 0.811248
vt 0.887498 0.898921
vt 0.846056 0.898921
vt 0.468463 0.576903
vt 0.468463 0.708072
vt 0.380789 0.708072
vt 0.380789 0.576903
vt 0.471235 0.571188
vt 0.471235 0.498708
vt 0.558909 0.498708
vt 0.558909 0.571188
vt 0.471235 0.356623
vt 0.558909 0.356623
vt 0.779086 0.811248
vt 0.840342 0.811248
vt 0.840342 0.898921
vt 0.779086 0.898921
vt 0.751401 0.521414
vt 0.751401 0.310288
vt 0.839075 0.310288
vt 0.839075 0.521414
vt 0.751401 0.269137
vt 0.839075 0.269137
vt 0.191069 0.546446
vt 0.191069 0.370003
vt 0.278742 0.370003
vt 0.278742 0.546446
vt 0.372080 0.835476
vt 0.323905 0.835476
vt 0.323905 0.747802
vt 0.372080 0.747802
vt 0.269999 0.747802
vt 0.318173 0.747802
vt 0.318173 0.835476
vt 0.269999 0.835476
vt 0.264267 0.810974
vt 0.216075 0.810974
vt 0.216075 0.723300
vt 0.264267 0.723300
vt 0.162152 0.809879
vt 0.210343 0.809879
vt 0.210343 0.897553
vt 0.162152 0.897553
vt 0.156411 0.906587
vt 0.068986 0.906587
vt 0.068986 0.818913
vt 0.156411 0.818913
vt 0.373808 0.576903
vt 0.373808 0.744072
vt 0.286134 0.744072
vt 0.286134 0.576903
vt 0.664891 0.622588
vt 0.664891 0.525144
vt 0.752565 0.525144
vt 0.752565 0.622588
vt 0.056692 0.910334
vt 0.135160 0.910334
vt 0.135160 0.998008
vt 0.056692 0.998008
vt 0.570202 0.634548
vt 0.570202 0.525058
vt 0.657876 0.525058
vt 0.657876 0.634548
vt 0.563187 0.574918
vt 0.563187 0.704889
vt 0.475513 0.704889
vt 0.475513 0.574918
vt 0.570202 0.266451
vt 0.570202 0.112799
vt 0.657876 0.112799
vt 0.657876 0.266451
vt 0.657876 0.001992
vt 0.570202 0.001992
vt 0.847254 0.525093
vt 0.847254 0.621185
vt 0.759580 0.621185
vt 0.759580 0.525093
vt 0.334591 0.926846
vt 0.255173 0.926846
vt 0.255173 0.839172
vt 0.334591 0.839172
vt 0.340759 0.840130
vt 0.409663 0.840130
vt 0.409663 0.927804
vt 0.340759 0.927804
vt 0.446373 0.840130
vt 0.456323 0.840130
vt 0.456323 0.927804
vt 0.446373 0.927804
vt 0.642827 0.891804
vt 0.555632 0.891804
vt 0.555632 0.804130
vt 0.642827 0.804130
vt 0.089552 0.641700
vt 0.089552 0.815200
vt 0.001878 0.815200
vt 0.001878 0.641700
vt 0.650330 0.800998
vt 0.694056 0.800998
vt 0.694056 0.888672
vt 0.650330 0.888672
vt 0.745036 0.818845
vt 0.701311 0.818845
vt 0.701311 0.731171
vt 0.745036 0.731171
vt 0.471218 0.800434
vt 0.471218 0.711802
vt 0.558892 0.711802
vt 0.558892 0.800434
vt 0.465486 0.747802
vt 0.465486 0.836434
vt 0.377812 0.836434
vt 0.377812 0.747802
vt 0.191445 0.366290
vt 0.191445 0.002009
vt 0.279119 0.002009
vt 0.279119 0.366290
vt 0.373808 0.001992
vt 0.373808 0.366308
vt 0.286134 0.366308
vt 0.286134 0.001992
vt 0.004291 0.637953
vt 0.004291 0.463084
vt 0.091965 0.463084
vt 0.091965 0.637953
vt 0.658038 0.727475
vt 0.658038 0.638295
vt 0.745712 0.638295
vt 0.745712 0.727475
vt 0.468497 0.002009
vt 0.468497 0.352893
vt 0.380823 0.352893
vt 0.380823 0.002009
vt 0.752565 0.001992
vt 0.752565 0.265424
vt 0.664891 0.265424
vt 0.664891 0.001992
vt 0.844816 0.516879
vt 0.844816 0.264552
vt 0.932490 0.264552
vt 0.932490 0.516879
vn 0.000006 0.000000 -1.000000
vn 0.000006 0.000000 -1.000000
vn 0.000006 0.000000 -1.000000
vn 0.000006 0.000000 -1.000000
vn 0.000000 0.000000 -1.000000
vn 0.000000 0.000000 -1.000000
vn 0.000000 0.000000 -1.000000
vn 0.000000 0.000000 -1.000000
vn 0.000000 0.000000 1.000000
vn 0.000000 0.000000 1.000000
vn 0.000000 0.000000 1.000000
vn 0.000000 0.000000 1.000000
vn -1.000000 0.000000 0.000000
vn -1.000000 0.000000 0.000000
vn -1.000000 0.000000 0.000000
vn -1.000000 0.000000 0.000000
vn -1.000000 0.000000 0.000000
vn -1.000000 0.000000 0.000000
vn -1.000000 0.000000 0.000000
vn -1.000000 0.000000 0.000000
vn 0.000000 0.000000 -1.000000
vn 0.000000 0.000000 -1.000000
vn 0.000000 0.000000 -1.000000
vn 0.000000 0.000000 -1.000000
vn 0.000000 0.000000 1.000000
vn 0.000000 0.000000 1.000000
vn 0.000000 0.000000 1.000000
vn 0.000000 0.000000 1.000000
vn -1.000000 0.000000 0.000000
vn -1.000000 0.000000 0.000000
vn -1.000000 0.000000 0.000000
vn -1.000000 0.000000 0.000000
vn -1.000000 0.000000 0.000000
vn -1.000000 0.000000 0.000000
vn -1.000000 0.000000 0.000000
vn -1.000000 0.000000 0.000000
vn 0.000000 0.000000 -1.000000
vn 0.000000 0.000000 -1.000000
vn 0.000000 0.000000 -1.000000
vn 0.000000 0.000000 -1.000000
vn 1.000000 0.000000 0.000000
vn 1.000000 0.000000 0.000000
vn 1.000000 0.000000 0.000000
vn 1.000000 0.000000 0.000000
vn 0.000000 0.000000 1.000000
vn 0.000000 0.000000 1.000000
vn 0.000000 0.000000 1.000000
vn 0.000000 0.000000 1.000000
vn -1.000000 0.000000 0.000000
vn -1.000000 0.000000 0.000000
vn -1.000000 0.000000 0.000000
vn -1.000000 0.000000 0.000000
vn -0.000008 0.000002 1.000000
vn -0.000008 0.000002 1.000000
vn -0.000008 0.000002 1.000000
vn -0.000008 0.000002 1.000000
vn -1.000000 0.000000 0.000000
vn -1.000000 0.000000 0.000000
vn -1.000000 0.000000 0.000000
vn -1.000000 0.000000 0.000000
vn 1.000000 0.000000 0.000000
vn 1.000000 0.000000 0.000000
vn 1.000000 0.000000 0.000000
vn 1.000000 0.000000 0.000000
vn 0.000000 0.000000 1.000000
vn 0.000000 0.000000 1.000000
vn 0.000000 0.000000 1.000000
vn 0.000000 0.000000 1.000000
vn 0.000000 0.000000 1.000000
vn 0.000000 0.000000 1.000000
vn 0.000000 0.000000 1.000000
vn 0.000000 0.000000 1.000000
vn -1.000000 0.000000 -0.000687
vn -1.000000 0.000000 -0.000687
vn -1.000000 0.000000 -0.000687
vn -1.000000 0.000000 -0.000687
vn 0.000000 0.000003 1.000000
vn 0.000000 0.000003 1.000000
vn 0.000000 0.000003 1.000000
vn 0.000000 0.000003 1.000000
vn -1.000000 0.000000 0.000000
vn -1.000000 0.000000 0.000000
vn -1.000000 0.000000 0.000000
vn -1.000000 0.000000 0.000000
vn -1.000000 0.000002 -0.000006
vn -1.000000 0.000002 -0.000006
vn -1.000000 0.000002 -0.000006
vn -1.000000 0.000002 -0.000006
vn 0.000000 0.000000 -1.000000
vn 0.000000 0.000000 -1.000000
vn 0.000000 0.000000 -1.000000
vn 0.000000 0.000000 -1.000000
vn 0.000137 -0.000005 -1.000000
vn 0.000137 -0.000005 -1.000000
vn 0.000137 -0.000005 -1.000000
vn 0.000137 -0.000005 -1.000000
vn -1.000000 0.000000 -0.000014
vn -1.000000 0.000000 -0.000014
vn -1.000000 0.000000 -0.000014
vn -1.000000 0.000000 -0.000014
vn 1.000000 0.000000 0.000000
vn 1.000000 0.000000 0.000000
vn 1.000000 0.000000 0.000000
vn 1.000000 0.000000 0.000000
vn 0.000008 0.000000 -1.000000
vn 0.000008 0.000000 -1.000000
vn 0.000008 0.000000 -1.000000
vn 0.000008 0.000000 -1.000000
vn 1.000000 -0.000000 0.000000
vn 1.000000 -0.000000 0.000000
vn 1.000000 -0.000000 0.000000
vn 1.000000 -0.000000 0.000000
vn 0.000000 -0.000002 1.000000
vn 0.000000 -0.000002 1.000000
vn 0.000000 -0.000002 1.000000
vn 0.000000 -0.000002 1.000000
vn -1.000000 -0.000000 0.000000
vn -1.000000 -0.000000 0.000000
vn -1.000000 -0.000000 0.000000
vn -1.000000 -0.000000 0.000000
vn 0.000000 0.000000 1.000000
vn 0.000000 0.000000 1.000000
vn 0.000000 0.000000 1.000000
vn 0.000000 0.000000 1.000000
vn 1.000000 0.000000 0.000000
vn 1.000000 0.000000 0.000000
vn 1.000000 0.000000 0.000000
vn 1.000000 0.000000 0.000000
vn 0.000000 0.000000 -1.000000
vn 0.000000 0.000000 -1.000000
vn 0.000000 0.000000 -1.000000
vn 0.000000 0.000000 -1.000000
vn 0.000000 0.000000 1.000000
vn 0.000000 0.000000 1.000000
vn 0.000000 0.000000 1.000000
vn 0.000000 0.000000 1.000000
vn 1.000000 0.000000 0.000000
vn 1.000000 0.000000 0.000000
vn 1.000000 0.000000 0.000000
vn 1.000000 0.000000 0.000000
vn 0.000000 0.000000 1.000000
vn 0.000000 0.000000 1.000000
vn 0.000000 0.000000 1.000000
vn 0.000000 0.000000 1.000000
vn -0.000003 -0.000001 -1.000000
vn -0.000003 -0.000001 -1.000000
vn -0.000003 -0.000001 -1.000000
vn -0.000003 -0.000001 -1.000000
vn 1.000000 0.000000 0.000000
vn 1.000000 0.000000 0.000000
vn 1.000000 0.000000 0.000000
vn 1.000000 0.000000 0.000000
vn 1.000000 0.000000 0.000000
vn 1.000000 0.000000 0.000000
vn 1.000000 0.000000 0.000000
vn 1.000000 0.000000 0.000000
vn 1.000000 0.000000 0.000000
vn 1.000000 0.000000 0.000000
vn 1.000000 0.000000 0.000000
vn 1.000000 0.000000 0.000000
vn 0.000000 0.000000 1.000000
vn 0.000000 0.000000 1.000000
vn 0.000000 0.000000 1.000000
vn 0.000000 0.000000 1.000000
vn 0.000000 0.000000 -1.000000
vn 0.000000 0.000000 -1.000000
vn 0.000000 0.000000 -1.000000
vn 0.000000 0.000000 -1.000000
vn 1.000000 0.000000 0.000000
vn 1.000000 0.000000 0.000000
vn 1.000000 0.000000 0.000000
vn 1.000000 0.000000 0.000000
vn 0.000000 0.000000 1.000000
vn 0.000000 0.000000 1.000000
vn 0.000000 0.000000 1.000000
vn 0.000000 0.000000 1.000000
vn 0.000000 0.000000 -1.000000
vn 0.000000 0.000000 -1.000000
vn 0.000000 0.000000 -1.000000
vn 0.000000 0.000000 -1.000000
vn 1.000000 0.000000 0.000000
vn 1.000000 0.000000 0.000000
vn 1.000000 0.000000 0.000000
vn 1.000000 0.000000 0.000000
vn 1.000000 0.000000 0.000000
vn 1.000000 0.000000 0.000000
vn 1.000000 0.000000 0.000000
vn 1.000000 0.000000 0.000000
vn 0.000000 -0.000004 -1.000000
vn 0.000000 -0.000004 -1.000000
vn 0.000000 -0.000004 -1.000000
vn 0.000000 -0.000004 -1.000000
vn 1.000000 0.000000 0.000000
vn 1.000000 0.000000 0.000000
vn 1.000000 0.000000 0.000000
vn 1.000000 0.000000 0.000000
vn 0.000000 -0.000006 -1.000000
vn 0.000000 -0.000006 -1.000000
vn 0.000000 -0.000006 -1.000000
vn 0.000000 -0.000006 -1.000000
vn 0.000000 0.000003 1.000000
vn 0.000000 0.000003 1.000000
vn 0.000000 0.000003 1.000000
vn 0.000000 0.000003 1.000000
vn 0.000001 -0.000005 -1.000000
vn 0.000001 -0.000005 -1.000000
vn 0.000001 -0.000005 -1.000000
vn 0.000001 -0.000005 -1.000000
vn 1.000000 0.000000 0.000000
vn 1.000000 0.000000 0.000000
vn 1.000000 0.000000 0.000000
vn 1.000000 0.000000 0.000000
vn 1.000000 -0.000000 0.000000
vn 1.000000 -0.000000 0.000000
vn 1.000000 -0.000000 0.000000
vn 1.000000 -0.000000 0.000000
vn 1.000000 0.000000 0.000000
vn 1.000000 0.000000 0.000000
vn 1.000000 0.000000 0.000000
vn 1.000000 0.000000 0.000000
vn 1.000000 0.000001 0.000000
vn 1.000000 0.000001 0.000000
vn 1.000000 0.000001 0.000000
vn 1.000000 0.000001 0.000000
vn -0.000002 0.000000 -1.000000
vn -0.000002 0.000000 -1.000000
vn -0.000002 0.000000 -1.000000
vn -0.000002 0.000000 -1.000000
vn 0.000000 0.000000 1.000000
vn 0.000000 0.000000 1.000000
vn 0.000000 0.000000 1.000000
vn 0.000000 0.000000 1.000000
vn 1.000000 0.000000 0.000000
vn 1.000000 0.000000 0.000000
vn 1.000000 0.000000 0.000000
vn 1.000000 0.000000 0.000000
vn -1.000000 0.000000 -0.000441
vn -1.000000 0.000000 -0.000441
vn -1.000000 0.000000 -0.000441
vn -1.000000 0.000000 -0.000441
vn -1.000000 0.000000 0.000000
vn -1.000000 0.000000 0.000000
vn -1.000000 0.000000 0.000000
vn -1.000000 0.000000 0.000000
s off
g Floor7Walls FloorWalls CSBuildingStructure CS_Building_V11:CS_Building group1
usemtl CS_Building_V11:lambert5SG
f 22/121/1 1/122/2 63/123/3 64/124/4
f 65/125/5 66/126/6 2/127/7 3/128/8
f 67/129/9 68/130/10 5/131/11 4/132/12
f 68/1/13 65/2/14 3/3/15 5/4/16
f 4/5/17 6/6/18 69/7/19 67/8/20
f 70/133/21 69/134/22 6/135/23 7/136/24
f 71/137/25 72/138/26 9/139/27 8/140/28
f 72/9/29 70/10/30 7/11/31 9/12/32
f 73/13/33 71/14/34 8/15/35 10/16/36
f 74/141/37 73/142/38 10/143/39 11/144/40
f 75/17/41 76/18/42 13/19/43 12/20/44
f 14/145/45 13/146/46 76/147/47 77/148/48
f 11/21/49 14/22/50 77/23/51 74/24/52
f 78/149/53 75/150/54 12/151/55 15/152/56
f 79/25/57 78/26/58 15/27/59 16/28/60
f 80/29/61 81/30/62 18/31/63 17/32/64
f 81/153/65 79/154/66 16/155/67 18/156/68
f 82/157/69 80/158/70 17/159/71 19/160/72
f 19/33/73 20/34/74 83/35/75 82/36/76
f 25/161/77 21/162/78 84/163/79 85/164/80
f 1/37/81 2/38/82 66/39/83 63/40/84
f 21/41/85 23/42/86 86/43/87 84/44/88
f 20/165/89 24/166/90 87/167/91 83/168/92
f 88/171/93 86/172/94 23/173/95 26/174/96
f 64/45/97 89/46/98 27/47/99 22/48/100
f 90/49/101 88/50/102 26/51/103 28/52/104
f 89/175/105 90/176/106 28/177/107 27/178/108
f 31/53/109 29/54/110 91/55/111 92/56/112
f 92/179/113 93/180/114 30/181/115 31/182/116
f 93/57/117 94/58/118 32/59/119 30/60/120
f 94/183/121 95/184/122 33/185/123 32/186/124
f 34/61/125 35/62/126 96/63/127 97/64/128
f 98/187/129 96/188/130 35/189/131 36/190/132
f 29/191/133 34/192/134 97/193/135 91/194/136
f 99/65/137 98/66/138 36/67/139 37/68/140
f 100/195/141 99/196/142 37/197/143 38/198/144
f 101/199/145 102/200/146 40/201/147 39/202/148
f 103/69/149 100/70/150 38/71/151 41/72/152
f 104/73/153 105/74/154 42/75/155 43/76/156
f 102/77/157 106/78/158 44/79/159 40/80/160
f 107/203/161 104/204/162 43/205/163 45/206/164
f 106/207/165 108/208/166 46/209/167 44/210/168
f 108/81/169 107/82/170 45/83/171 46/84/172
f 109/211/173 103/212/174 41/213/175 47/214/176
f 105/215/177 110/216/178 48/217/179 42/218/180
f 110/85/181 109/86/182 47/87/183 48/88/184
f 111/89/185 101/90/186 39/91/187 49/92/188
f 53/219/189 50/220/190 112/221/191 113/222/192
f 50/93/193 51/94/194 114/95/195 112/96/196
f 51/223/197 52/224/198 115/225/199 114/226/200
f 49/227/201 55/228/202 116/229/203 111/230/204
f 117/231/205 118/232/206 56/233/207 54/234/208
f 118/97/209 116/98/210 55/99/211 56/100/212
f 54/101/213 53/102/214 113/103/215 117/104/216
f 95/105/217 119/106/218 57/107/219 33/108/220
f 120/111/221 115/112/222 52/113/223 58/114/224
f 121/169/225 87/167/226 24/166/227 59/170/228
f 122/235/229 123/236/230 60/237/231 61/238/232
f 119/106/233 122/109/234 61/110/235 57/107/236
f 123/115/237 124/116/238 62/117/239 60/118/240
f 124/116/241 121/119/242 59/120/243 62/117/244
