# This file uses centimeters as units for non-parametric coordinates.

mtllib Floor6Roof_Part4_Tex_Hite.mtl
g default
v -1126.525626 475.964821 -1029.530539
v -1126.525070 475.963118 -456.935824
v -1126.525070 315.568270 -456.935824
v -1126.528545 315.568236 -1256.877380
v -1471.589500 475.963118 -456.936797
v -1471.589500 315.568270 -456.936797
v -1471.588527 475.963118 -969.790284
v -1471.588527 315.568270 -969.790284
v -1471.588110 315.568270 -1256.868206
v -1471.588388 315.568270 -1084.950574
v -1471.588388 475.963118 -1084.950574
v -1471.588110 475.963118 -1256.868206
v -1126.526599 475.963118 -1256.875434
v -1413.457739 315.568270 -969.790284
v -1413.457739 475.963118 -969.790284
v -1413.457461 315.568270 -1084.950574
v -1413.457461 475.963118 -1084.950574
vt 0.001927 0.001992
vt 0.201632 0.285057
vt 0.201632 0.998008
vt 0.001927 0.998008
vt 0.201632 0.001992
vt 0.407299 0.001992
vt 0.407299 0.640546
vt 0.207594 0.640546
vt 0.207594 0.001992
vt 0.765643 0.649545
vt 0.765643 0.435494
vt 0.965348 0.435494
vt 0.965348 0.649545
vt 0.459700 0.435494
vt 0.603084 0.435494
vt 0.603084 0.635199
vt 0.459700 0.635199
vt 0.614670 0.001992
vt 0.614670 0.431635
vt 0.414965 0.431635
vt 0.414965 0.001992
vt 0.622336 0.431626
vt 0.622336 0.002001
vt 0.822041 0.002001
vt 0.822041 0.431626
vt 0.759716 0.635208
vt 0.687336 0.635208
vt 0.687336 0.435503
vt 0.759716 0.435503
vt 0.609020 0.435494
vt 0.681400 0.435494
vt 0.681400 0.635199
vt 0.609020 0.635199
vn 1.000000 -0.000008 -0.000003
vn 1.000000 -0.000008 -0.000003
vn 1.000000 -0.000007 -0.000003
vn 1.000000 -0.000007 -0.000003
vn -0.000003 0.000000 1.000000
vn -0.000003 0.000000 1.000000
vn -0.000003 0.000000 1.000000
vn -0.000003 0.000000 1.000000
vn -1.000000 0.000000 -0.000002
vn -1.000000 0.000000 -0.000002
vn -1.000000 0.000000 -0.000002
vn -1.000000 0.000000 -0.000002
vn -1.000000 0.000000 -0.000002
vn -1.000000 0.000000 -0.000002
vn -1.000000 0.000000 -0.000002
vn -1.000000 0.000000 -0.000002
vn -0.000024 0.000006 -1.000000
vn -0.000024 0.000006 -1.000000
vn -0.000024 0.000006 -1.000000
vn -0.000024 0.000006 -1.000000
vn 0.000000 0.000000 -1.000000
vn 0.000000 0.000000 -1.000000
vn 0.000000 0.000000 -1.000000
vn 0.000000 0.000000 -1.000000
vn 0.000000 0.000000 1.000000
vn 0.000000 0.000000 1.000000
vn 0.000000 0.000000 1.000000
vn 0.000000 0.000000 1.000000
vn -1.000000 0.000000 -0.000002
vn -1.000000 0.000000 -0.000002
vn -1.000000 0.000000 -0.000002
vn -1.000000 0.000000 -0.000002
vn 1.000000 -0.000012 -0.000004
s 1
g Floor6WallsPart4 Floor6Walls FloorWalls CSBuildingStructure CS_Building_V11:CS_Building group1
usemtl CS_Building_V11:lambert5SG
f 4/1/1 1/2/2 2/3/3 3/4/4
s off
f 2/18/5 5/19/6 6/20/7 3/21/8
f 5/6/9 7/7/10 8/8/11 6/9/12
f 9/10/13 10/11/14 11/12/15 12/13/16
f 12/22/17 13/23/18 4/24/19 9/25/20
f 14/26/21 8/27/22 7/28/23 15/29/24
f 10/30/25 16/31/26 17/32/27 11/33/28
f 16/14/29 14/15/30 15/16/31 17/17/32
s 1
f 13/5/33 1/2/2 4/1/1
