# This file uses centimeters as units for non-parametric coordinates.

mtllib Floor6Roof_Part5_Tex_Hite.mtl
g default
v -854.869472 475.963118 -340.100912
v -451.643118 475.963257 -1370.636702
v 1887.833700 475.963118 -1370.609181
v 1887.833700 315.568270 -1370.609181
v -451.624249 315.568270 -1370.605845
v -1022.769207 475.963118 -921.696662
v -897.957403 475.963118 -921.678175
v -897.957403 315.568270 -921.678175
v -1022.769207 315.568270 -921.696662
v -1022.769624 475.963118 -340.101016
v -1022.769624 315.568270 -340.101016
v -665.889714 315.568270 -915.984371
v -665.889714 315.568270 -921.690755
v -665.889714 475.963118 -921.692214
v -665.889714 475.963118 -915.984371
v -451.664002 475.963118 -915.981035
v -451.664002 315.568270 -915.980549
v -1008.378115 475.963118 -340.101016
v -794.687167 315.568270 -921.691380
v -794.687167 475.963118 -921.691380
v -897.957403 315.568270 -856.501959
v -897.957403 475.963118 -856.501959
v -794.688070 315.568270 -856.501125
v -794.688070 475.963118 -856.501125
v -854.869472 315.568270 -340.100912
vt 0.144730 0.001992
vt 0.144730 0.249602
vt 0.076447 0.249602
vt 0.076447 0.001992
vt 0.436929 0.001992
vt 0.439362 0.001992
vt 0.439362 0.070276
vt 0.436929 0.070276
vt 0.219753 0.001992
vt 0.219753 0.195561
vt 0.151469 0.195550
vt 0.151469 0.001992
vt 0.508303 0.001992
vt 0.536055 0.001992
vt 0.536055 0.070276
vt 0.508303 0.070276
vt 0.543063 0.001992
vt 0.570816 0.001992
vt 0.570816 0.070276
vt 0.543063 0.070276
vt 0.001241 0.998008
vt 0.001241 0.002014
vt 0.069535 0.002014
vt 0.069535 0.998008
vt 0.376548 0.002014
vt 0.429684 0.002014
vt 0.429684 0.070308
vt 0.376548 0.070308
vt 0.226497 0.093216
vt 0.226497 0.002014
vt 0.294791 0.002014
vt 0.294791 0.093216
vt 0.301520 0.073473
vt 0.369803 0.067358
vt 0.369803 0.073473
vt 0.369803 0.001992
vt 0.301520 0.001992
vt 0.500912 0.070308
vt 0.446080 0.070308
vt 0.446080 0.002014
vt 0.500912 0.002014
vt 0.621795 0.070308
vt 0.577829 0.070308
vt 0.577829 0.002014
vt 0.621795 0.002014
vn 0.000005 -0.000096 -1.000000
vn 0.000005 -0.000096 -1.000000
vn 0.000005 -0.000096 -1.000000
vn 0.000005 -0.000096 -1.000000
vn 0.000148 0.000000 -1.000000
vn 0.000148 0.000000 -1.000000
vn 0.000148 0.000000 -1.000000
vn 0.000148 0.000000 -1.000000
vn -1.000000 0.000000 -0.000001
vn -1.000000 0.000000 -0.000001
vn -1.000000 0.000000 -0.000001
vn -1.000000 0.000000 -0.000001
vn 1.000000 0.000000 0.000000
vn 1.000000 0.000000 0.000000
vn 1.000000 0.000000 0.000000
vn 1.000000 0.000000 0.000000
vn 0.000017 -0.000002 -1.000000
vn 0.000017 -0.000002 -1.000000
vn 0.000017 -0.000002 -1.000000
vn 0.000017 -0.000002 -1.000000
vn -1.000000 -0.000059 -0.000067
vn -1.000000 -0.000059 -0.000067
vn -1.000000 -0.000059 -0.000067
vn -1.000000 -0.000059 -0.000067
vn -0.000001 0.000000 1.000000
vn -0.000001 0.000000 1.000000
vn 0.000000 0.000000 1.000000
vn -0.000000 -0.000005 -1.000000
vn -0.000000 -0.000005 -1.000000
vn -0.000000 -0.000005 -1.000000
vn -0.000000 -0.000005 -1.000000
vn 1.000000 0.000000 0.000000
vn 1.000000 0.000000 0.000000
vn 1.000000 0.000000 0.000000
vn 1.000000 0.000000 0.000000
vn -1.000000 0.000000 -0.000014
vn -1.000000 0.000000 -0.000014
vn -1.000000 0.000000 -0.000014
vn -1.000000 0.000000 -0.000014
vn 0.000008 0.000000 -1.000000
vn 0.000008 0.000000 -1.000000
vn 0.000008 0.000000 -1.000000
vn 0.000008 0.000000 -1.000000
vn -0.000001 0.000000 1.000000
vn -0.000001 0.000000 1.000000
s off
g Floor6WallsPart5 Floor6Walls FloorWalls CSBuildingStructure CS_Building_V11:CS_Building group1
usemtl CS_Building_V11:lambert5SG
f 2/21/1 3/22/2 4/23/3 5/24/4
f 6/25/5 7/26/6 8/27/7 9/28/8
f 10/1/9 6/2/10 9/3/11 11/4/12
f 12/5/13 13/6/14 14/7/15 15/8/16
f 15/29/17 16/30/18 17/31/19 12/32/20
f 16/9/21 2/10/22 5/11/23 17/12/24
s 1
f 11/33/25 18/34/26 10/35/27
s off
f 13/38/28 19/39/29 20/40/30 14/41/31
f 21/13/32 8/14/33 7/15/34 22/16/35
f 19/17/36 23/18/37 24/19/38 20/20/39
f 23/42/40 21/43/41 22/44/42 24/45/43
s 1
f 1/36/44 18/34/26 11/33/25 25/37/45
