# This file uses centimeters as units for non-parametric coordinates.

mtllib Floor6Roof_Part6_Tex_Hite.mtl
g default
v -337.983354 315.568270 -1703.125641
v 195.427973 315.568270 -1703.125641
v 195.427973 475.963118 -1703.125641
v -337.983354 475.963118 -1703.125641
v 195.427973 315.568270 -1526.484277
v 1074.336259 315.568270 -1526.484277
v 1074.336259 475.963118 -1526.484277
v 195.427973 475.963118 -1526.484277
v 1074.336259 315.568270 -1504.834394
v 1074.336259 475.963118 -1504.834394
v 1701.077539 315.568270 -1504.834394
v 1701.077539 475.963118 -1504.834394
v 1701.077539 475.963118 -1701.365779
v 1701.077539 315.568270 -1701.365779
v 1887.833700 315.568270 -1701.365779
v 1887.833700 475.963118 -1701.365779
v 1887.833700 315.568270 -1653.189244
v 1887.833700 475.963118 -1653.189244
v -337.983354 475.963257 -2270.192134
v -337.983354 315.568270 -2270.192134
vt 0.589152 0.610424
vt 0.613694 0.610424
vt 0.613694 0.792192
vt 0.589152 0.792192
vt 0.941335 0.001992
vt 0.941335 0.224714
vt 0.759546 0.224714
vt 0.759546 0.001992
vt 0.528497 0.648553
vt 0.583082 0.648553
vt 0.583082 0.830320
vt 0.528497 0.830320
vt 0.562615 0.001992
vt 0.562615 0.644608
vt 0.380848 0.644608
vt 0.380848 0.001992
vt 0.801531 0.610424
vt 0.801531 0.810598
vt 0.619764 0.810598
vt 0.619764 0.610424
vt 0.570197 0.606480
vt 0.570197 0.001992
vt 0.751964 0.001992
vt 0.751964 0.606480
vt 0.001975 0.998008
vt 0.001975 0.002003
vt 0.183742 0.002003
vt 0.183742 0.998008
vt 0.191521 0.712232
vt 0.191521 0.001992
vt 0.373288 0.001992
vt 0.373288 0.712232
vt 0.807601 0.440315
vt 0.807601 0.228659
vt 0.989368 0.228659
vt 0.989368 0.440315
vn 0.000000 0.000000 1.000000
vn 0.000000 0.000000 1.000000
vn 0.000000 0.000000 1.000000
vn 0.000000 0.000000 1.000000
vn 0.000000 0.000000 1.000000
vn 0.000000 0.000000 1.000000
vn 0.000000 0.000000 1.000000
vn 0.000000 0.000000 1.000000
vn -1.000000 0.000000 0.000000
vn -1.000000 0.000000 0.000000
vn -1.000000 0.000000 0.000000
vn -1.000000 0.000000 0.000000
vn 0.000000 0.000000 1.000000
vn 0.000000 0.000000 1.000000
vn 0.000000 0.000000 1.000000
vn 0.000000 0.000000 1.000000
vn 1.000000 0.000000 0.000000
vn 1.000000 0.000000 0.000000
vn 1.000000 0.000000 0.000000
vn 1.000000 0.000000 0.000000
vn 0.000000 0.000000 1.000000
vn 0.000000 0.000000 1.000000
vn 0.000000 0.000000 1.000000
vn 0.000000 0.000000 1.000000
vn -1.000000 0.000000 0.000000
vn -1.000000 0.000000 0.000000
vn -1.000000 0.000000 0.000000
vn -1.000000 0.000000 0.000000
vn -1.000000 0.000000 0.000000
vn -1.000000 0.000000 0.000000
vn -1.000000 0.000000 0.000000
vn -1.000000 0.000000 0.000000
vn -1.000000 0.000000 0.000000
vn -1.000000 0.000000 0.000000
vn -1.000000 0.000000 0.000000
vn -1.000000 0.000000 0.000000
s off
g Floor6WallsPart6 Floor6Walls FloorWalls CSBuildingStructure CS_Building_V11:CS_Building group1
usemtl CS_Building_V11:lambert5SG
f 1/21/1 2/22/2 3/23/3 4/24/4
f 5/25/5 6/26/6 7/27/7 8/28/8
f 6/1/9 9/2/10 10/3/11 7/4/12
f 9/29/13 11/30/14 12/31/15 10/32/16
f 13/5/17 12/6/18 11/7/19 14/8/20
f 14/33/21 15/34/22 16/35/23 13/36/24
f 15/9/25 17/10/26 18/11/27 16/12/28
f 4/13/29 19/14/30 20/15/31 1/16/32
f 8/17/33 3/18/34 2/19/35 5/20/36
