# This file uses centimeters as units for non-parametric coordinates.

mtllib Floor4Roof_Part2_Tex_Hite.mtl
g default
v -4.215818 -28.392284 -695.999805
v -351.999949 -28.392284 -695.999805
v -351.989072 131.969812 -695.999040
v -4.215818 131.969534 -695.999805
v -351.999949 112.945042 2736.820134
v -351.999949 -28.392284 2736.820134
vt 0.041206 0.001992
vt 0.046727 0.998008
vt 0.000200 0.998008
vt 0.000200 0.001992
vt 0.100309 0.002005
vt 0.100309 0.102932
vt 0.053792 0.102897
vt 0.053792 0.002005
vn -0.000001 0.000002 -1.000000
vn -0.000001 0.000002 -1.000000
vn -0.000001 0.000002 -1.000000
vn -0.000001 0.000002 -1.000000
vn -1.000000 0.000036 -0.000001
vn -1.000000 0.000036 -0.000001
vn -1.000000 0.000036 -0.000001
vn -1.000000 0.000036 -0.000001
s off
g Floor4WallsPart2 Floor4Walls FloorWalls CSBuildingStructure CS_Building_V11:CS_Building group1
usemtl CS_Building_V11:lambert5SG
f 1/5/1 2/6/2 3/7/3 4/8/4
usemtl CS_Building_V11:lambert2SG
f 5/1/5 3/2/6 2/3/7 6/4/8
