# This file uses centimeters as units for non-parametric coordinates.

mtllib Flower_1_RT.mtl
g default
v -2.488700 1.532349 -0.477632
v -1.585803 1.224200 -1.508090
v -1.561223 1.230625 1.603290
v -1.863820 1.282847 1.739820
v -1.863820 1.282847 -1.656640
v -0.050721 1.646349 -2.505760
v -0.045653 -0.128173 0.042077
v 0.018983 1.606879 2.494240
v 1.492140 1.212454 -1.530760
v 1.516400 1.194551 1.555780
v 1.733740 1.284210 1.572690
v 1.778010 1.282847 -1.656640
v 2.272350 1.492249 0.082700
vt 0.499325 0.976983
vt 0.008796 0.976983
vt 0.253851 0.493031
vt 0.008796 0.023161
vt 0.499325 0.023161
vt 0.714977 0.995781
vt 0.503654 0.473343
vt 0.780602 0.007205
vt 0.993708 0.500072
vt 0.962996 0.879630
vt 0.521456 0.066436
vt 0.979955 0.165219
vt 0.528656 0.899517
vn -0.278099 -0.910200 -0.306914
vn 0.264573 -0.914791 -0.305219
vn -0.001100 -0.999962 -0.008685
vn 0.264573 -0.914791 -0.305219
vn 0.281920 -0.916889 0.282552
vn -0.001100 -0.999962 -0.008685
vn -0.278099 -0.910200 -0.306914
vn -0.001100 -0.999962 -0.008685
vn -0.271095 -0.920825 0.280337
vn -0.001100 -0.999962 -0.008685
vn 0.281920 -0.916889 0.282552
vn -0.271095 -0.920825 0.280337
vn -0.206179 0.950800 0.231234
vn 0.000000 0.984537 0.175174
vn -0.170993 0.985272 -0.000214
vn -0.226198 0.945930 -0.232488
vn -0.000698 0.979930 -0.199340
vn 0.004382 0.776714 -0.629838
vn -0.584312 0.811529 0.000965
vn -0.170993 0.985272 -0.000214
vn -0.226198 0.945930 -0.232488
vn -0.584312 0.811529 0.000965
vn -0.206179 0.950800 0.231234
vn -0.170993 0.985272 -0.000214
vn 0.206145 0.949209 0.237712
vn 0.593290 0.804989 -0.000214
vn 0.178296 0.983977 -0.000107
vn -0.206179 0.950800 0.231234
vn 0.000000 0.798647 0.601800
vn 0.000000 0.984537 0.175174
s off
g Flower_1_RT:Mesh
usemtl initialShadingGroup
f 2/1/1 9/2/2 7/3/3
f 9/2/4 10/4/5 7/3/6
f 2/1/7 7/3/8 3/5/9
f 7/3/10 10/4/11 3/5/12
f 12/9/13 5/6/14 4/7/15
f 11/8/16 4/7/17 8/11/18
f 13/12/19 4/7/20 11/8/21
f 13/12/22 12/9/23 4/7/24
f 5/6/25 1/13/26 4/7/27
f 12/9/28 6/10/29 5/6/30
