# This file uses centimeters as units for non-parametric coordinates.

mtllib Floor5Walls_Part1_Tex_Hite.mtl
g default
v -341.070133 303.968133 -2105.237920
v -341.075380 303.968133 -2346.225817
v -341.075380 143.569585 -2346.225817
v -341.070133 143.569585 -2105.237920
v -279.464429 143.569585 -2346.227207
v -279.464429 303.968133 -2346.227207
v -279.467556 303.968133 -2461.294229
v -279.467556 143.569585 -2461.294229
v -394.566635 143.569585 -2400.004417
v -394.567886 143.569706 -2461.291727
v -394.567677 303.968237 -2461.291727
v -394.566565 303.968133 -2400.004417
v -619.074741 303.968133 -2399.999135
v -619.074741 143.569585 -2399.999135
v -619.076270 303.967994 -2476.954101
v -619.076270 143.569393 -2476.954101
v -668.918461 303.967994 -2476.952712
v -668.918357 143.569393 -2476.952989
v -668.918218 143.569393 -2465.003271
v -668.918322 303.967994 -2465.003549
v -696.069530 143.569393 -2465.002993
v -696.069530 303.967994 -2465.003271
v -278.284000 143.569585 -2105.239866
v -278.284000 303.968133 -2105.239866
v -278.281446 303.968237 -1988.737683
v -278.281446 143.569706 -1988.737683
v -341.067561 143.569706 -1988.735737
v -341.054808 303.969002 -1988.767985
v -341.059256 143.570505 -1711.999180
v -341.059256 303.969106 -1711.999597
v 8.475893 143.570922 -1712.009049
v 8.475650 303.969488 -1712.009466
v -695.989884 143.569220 -2469.530737
v -696.029985 303.968133 -2469.530737
v -1126.523333 143.569254 -2377.456047
v -1126.523055 143.569254 -2394.972664
v -1126.523055 303.967855 -2394.972664
v -1126.523333 303.967855 -2377.456047
v -1036.929075 143.569011 -2495.757013
v -1036.929075 143.569150 -2465.003549
v -1036.929145 303.967681 -2465.003827
v -1036.929075 303.967508 -2495.757569
v -1189.164421 143.569254 -2394.972942
v -1189.164421 303.967855 -2394.972942
v -1189.164282 303.967508 -2495.757569
v -1189.164282 143.569011 -2495.757013
v -1128.044743 143.569393 -2277.195167
v -1189.092976 143.569393 -2277.195167
v -1189.092976 303.967994 -2277.195167
v -1128.044743 303.967994 -2277.195167
v -1189.092698 143.569254 -2377.456325
v -1189.092698 303.967855 -2377.456325
v -1023.999624 143.569150 -2465.003549
v -1023.999902 303.968168 -2465.004105
v -1128.046133 303.968133 -1476.809475
v -1128.046133 143.569585 -1476.809475
v -1299.553719 143.569585 -1476.809753
v -1299.553719 303.968133 -1476.809753
v -1920.726849 303.968133 -1476.810865
v -2210.834526 303.968133 -1476.811421
v -2210.834526 143.569585 -1476.811421
v -1920.726849 143.569585 -1476.810865
v -1414.952809 303.968133 -1476.809753
v -1814.252728 303.968133 -1476.810448
v -1814.252728 143.569585 -1476.810448
v -1414.952809 143.569585 -1476.809753
v -1299.553580 143.569585 -1538.253715
v -1299.553580 303.968133 -1538.253715
v -1414.952670 143.569585 -1538.253715
v -1414.952670 303.968133 -1538.253715
v -1814.252450 143.569585 -1533.818127
v -1814.252450 303.968133 -1533.818127
v -1920.726710 143.569585 -1533.818266
v -1920.726710 303.968133 -1533.818266
v -1023.999763 143.569011 -2559.251066
v -1023.999763 303.967855 -2559.251066
v -1023.999763 143.569011 -2743.998418
v -695.909056 143.569011 -2743.998418
v -695.909056 303.968237 -2743.998418
v -1023.999763 303.968237 -2743.998418
vt 0.858836 0.237241
vt 0.858836 0.437093
vt 0.725803 0.437093
vt 0.725803 0.237241
vt 0.384076 0.428794
vt 0.288651 0.428794
vt 0.288651 0.295762
vt 0.384076 0.295762
vt 0.231697 0.337015
vt 0.282543 0.337015
vt 0.282543 0.470047
vt 0.231697 0.470047
vt 0.123960 0.802660
vt 0.060130 0.802660
vt 0.060130 0.669628
vt 0.123960 0.669628
vt 0.001992 0.806658
vt 0.011906 0.806658
vt 0.011906 0.939690
vt 0.001992 0.939690
vt 0.204067 0.939690
vt 0.107443 0.939690
vt 0.107443 0.806658
vt 0.204067 0.806658
vt 0.864976 0.466738
vt 0.864976 0.237241
vt 0.998008 0.237241
vt 0.998008 0.466769
vt 0.703818 0.005633
vt 0.703818 0.001876
vt 0.836850 0.001876
vt 0.836850 0.005633
vt 0.703818 0.233243
vt 0.836850 0.233243
vt 0.269176 0.474045
vt 0.283695 0.474045
vt 0.283695 0.607077
vt 0.269176 0.607077
vt 0.290650 0.432792
vt 0.316153 0.432792
vt 0.316153 0.565824
vt 0.290650 0.565824
vt 0.465815 0.565824
vt 0.382222 0.565824
vt 0.382222 0.432792
vt 0.465783 0.432792
vt 0.723309 0.441090
vt 0.806486 0.441090
vt 0.806486 0.574123
vt 0.723309 0.574123
vt 0.135024 0.001876
vt 0.135024 0.665631
vt 0.001992 0.665631
vt 0.001992 0.001876
vt 0.830502 0.470767
vt 0.881461 0.470767
vt 0.881461 0.603799
vt 0.830502 0.603799
vt 0.888960 0.470767
vt 0.939902 0.470767
vt 0.939902 0.603799
vt 0.888960 0.603799
vt 0.848890 0.607797
vt 0.896171 0.607797
vt 0.896171 0.740829
vt 0.848890 0.740829
vt 0.795485 0.607797
vt 0.842750 0.607797
vt 0.842750 0.740829
vt 0.795485 0.740829
vt 0.844125 0.233243
vt 0.844125 0.155087
vt 0.977158 0.155087
vt 0.977158 0.233243
vt 0.844125 0.001876
vt 0.977158 0.001876
vt 0.441319 0.428778
vt 0.390224 0.428778
vt 0.390224 0.295746
vt 0.441319 0.295746
vt 0.225557 0.802660
vt 0.130100 0.802660
vt 0.130100 0.669628
vt 0.225557 0.669628
vt 0.719663 0.246451
vt 0.719663 0.432648
vt 0.586631 0.432648
vt 0.586631 0.246451
vt 0.053990 0.802660
vt 0.012649 0.802660
vt 0.012649 0.669628
vt 0.053990 0.669628
vt 0.019740 0.806658
vt 0.042254 0.806658
vt 0.042254 0.939690
vt 0.019740 0.939690
vt 0.048977 0.806658
vt 0.101047 0.806658
vt 0.101047 0.939690
vt 0.048977 0.939690
vt 0.262812 0.939674
vt 0.210743 0.939674
vt 0.210751 0.806642
vt 0.262812 0.806642
vt 0.282847 0.291765
vt 0.282847 0.001876
vt 0.415879 0.001876
vt 0.415879 0.291765
vt 0.375730 0.565776
vt 0.323780 0.565776
vt 0.323780 0.432744
vt 0.375730 0.432744
vt 0.600102 0.569678
vt 0.473849 0.569678
vt 0.473849 0.436645
vt 0.600102 0.436645
vt 0.656993 0.569678
vt 0.606370 0.569678
vt 0.606370 0.436645
vt 0.656993 0.436645
vt 0.664844 0.436645
vt 0.716729 0.436645
vt 0.716729 0.569678
vt 0.664844 0.569678
vt 0.812962 0.441090
vt 0.823683 0.441090
vt 0.823683 0.574123
vt 0.812962 0.574123
vt 0.447459 0.420192
vt 0.447459 0.277966
vt 0.580491 0.277966
vt 0.580491 0.420192
vt 0.696527 0.001876
vt 0.696527 0.242453
vt 0.563494 0.242453
vt 0.563494 0.001876
vt 0.275556 0.001876
vt 0.275556 0.333018
vt 0.142523 0.333018
vt 0.142523 0.001876
vt 0.902303 0.607797
vt 0.998008 0.607797
vt 0.998008 0.740829
vt 0.902303 0.740829
vt 0.701068 0.578120
vt 0.789370 0.578120
vt 0.789370 0.711153
vt 0.701068 0.711153
vt 0.423171 0.273968
vt 0.423171 0.001876
vt 0.556203 0.001876
vt 0.556203 0.273968
vn -1.000000 0.000000 0.000022
vn -1.000000 0.000000 0.000022
vn -1.000000 0.000000 0.000022
vn -1.000000 0.000000 0.000022
vn -0.000021 0.000000 -1.000000
vn -0.000021 0.000000 -1.000000
vn -0.000021 0.000000 -1.000000
vn -0.000021 0.000000 -1.000000
vn -1.000000 0.000000 0.000027
vn -1.000000 0.000000 0.000027
vn -1.000000 0.000000 0.000027
vn -1.000000 0.000000 0.000027
vn 1.000000 -0.000001 -0.000019
vn 1.000000 -0.000001 -0.000019
vn 1.000000 -0.000001 -0.000019
vn 1.000000 -0.000001 -0.000019
vn 0.000022 -0.000000 1.000000
vn 0.000022 -0.000000 1.000000
vn 0.000022 -0.000000 1.000000
vn 0.000022 -0.000000 1.000000
vn 0.000024 -0.000000 1.000000
vn 0.000024 -0.000000 1.000000
vn 0.000024 -0.000000 1.000000
vn 0.000024 -0.000000 1.000000
vn -1.000000 0.000000 0.000020
vn -1.000000 0.000000 0.000020
vn -1.000000 0.000000 0.000020
vn -1.000000 0.000000 0.000020
vn 0.000025 -0.000001 1.000000
vn 0.000025 -0.000001 1.000000
vn 0.000025 -0.000001 1.000000
vn 0.000025 -0.000001 1.000000
vn 1.000000 0.000000 -0.000012
vn 1.000000 0.000000 -0.000012
vn 1.000000 0.000000 -0.000012
vn 1.000000 0.000000 -0.000012
vn 0.000019 0.000002 1.000000
vn 0.000019 0.000002 1.000000
vn 0.000019 0.000002 1.000000
vn 0.000019 0.000002 1.000000
vn 0.000032 0.000000 1.000000
vn 0.000032 0.000000 1.000000
vn 0.000032 0.000000 1.000000
vn 0.000032 0.000000 1.000000
vn -1.000000 0.000000 0.000022
vn -1.000000 0.000000 0.000022
vn -1.000000 0.000000 0.000022
vn -1.000000 0.000000 0.000022
vn 0.000227 -0.000101 -1.000000
vn 0.000227 -0.000101 -1.000000
vn 0.000227 -0.000101 -1.000000
vn 0.000227 -0.000101 -1.000000
vn -1.000000 0.000040 0.000007
vn -1.000000 0.000040 0.000007
vn -1.000000 0.000040 0.000007
vn -1.000000 0.000040 0.000007
vn 0.000028 0.000003 1.000000
vn 0.000028 0.000003 1.000000
vn 0.000028 0.000003 1.000000
vn 0.000028 0.000003 1.000000
vn -0.999913 -0.000125 -0.013161
vn -0.999913 -0.000125 -0.013161
vn -0.999913 -0.000125 -0.013161
vn -0.999913 -0.000125 -0.013161
vn 1.000000 0.000000 0.000016
vn 1.000000 0.000000 0.000016
vn 1.000000 0.000000 0.000016
vn 1.000000 0.000000 0.000016
vn -1.000000 -0.000001 -0.000001
vn -1.000000 -0.000001 -0.000001
vn -1.000000 -0.000001 -0.000001
vn -1.000000 -0.000001 -0.000001
vn 0.000004 0.000000 -1.000000
vn 0.000004 0.000000 -1.000000
vn 0.000004 0.000000 -1.000000
vn 0.000004 0.000000 -1.000000
vn 1.000000 -0.000000 0.000001
vn 1.000000 -0.000000 0.000001
vn 1.000000 -0.000000 0.000001
vn 1.000000 -0.000000 0.000001
vn 0.000000 0.000003 1.000000
vn 0.000000 0.000003 1.000000
vn 0.000000 0.000003 1.000000
vn 0.000000 0.000003 1.000000
vn 0.000000 0.000000 -1.000000
vn 0.000000 0.000000 -1.000000
vn 0.000000 0.000000 -1.000000
vn 0.000000 0.000000 -1.000000
vn -0.000004 0.000000 1.000000
vn -0.000004 0.000000 1.000000
vn -0.000004 0.000000 1.000000
vn -0.000004 0.000000 1.000000
vn 1.000000 0.000000 0.000003
vn 1.000000 0.000000 0.000003
vn 1.000000 0.000000 0.000003
vn 1.000000 0.000000 0.000003
vn 0.000020 0.000003 1.000000
vn 0.000020 0.000003 1.000000
vn 0.000020 0.000003 1.000000
vn 0.000020 0.000003 1.000000
vn 1.000000 0.000000 0.000002
vn 1.000000 0.000000 0.000002
vn 1.000000 0.000000 0.000002
vn 1.000000 0.000000 0.000002
vn -0.000001 0.000000 1.000000
vn -0.000001 0.000000 1.000000
vn -0.000001 0.000000 1.000000
vn -0.000001 0.000000 1.000000
vn -0.000002 0.000000 1.000000
vn -0.000002 0.000000 1.000000
vn -0.000002 0.000000 1.000000
vn -0.000002 0.000000 1.000000
vn -0.000002 0.000000 1.000000
vn -0.000002 0.000000 1.000000
vn -0.000002 0.000000 1.000000
vn -0.000002 0.000000 1.000000
vn -1.000000 0.000000 -0.000002
vn -1.000000 0.000000 -0.000002
vn -1.000000 0.000000 -0.000002
vn -1.000000 0.000000 -0.000002
vn 1.000000 0.000000 0.000002
vn 1.000000 0.000000 0.000002
vn 1.000000 0.000000 0.000002
vn 1.000000 0.000000 0.000002
vn 0.000000 0.000000 1.000000
vn 0.000000 0.000000 1.000000
vn 0.000000 0.000000 1.000000
vn 0.000000 0.000000 1.000000
vn -1.000000 0.000000 -0.000005
vn -1.000000 0.000000 -0.000005
vn -1.000000 0.000000 -0.000005
vn -1.000000 0.000000 -0.000005
vn 1.000000 0.000000 0.000002
vn 1.000000 0.000000 0.000002
vn 1.000000 0.000000 0.000002
vn 1.000000 0.000000 0.000002
vn -0.000001 0.000000 1.000000
vn -0.000001 0.000000 1.000000
vn -0.000001 0.000000 1.000000
vn -0.000001 0.000000 1.000000
vn 1.000000 0.000001 -0.000000
vn 1.000000 0.000001 -0.000000
vn 1.000000 0.000001 -0.000000
vn 1.000000 0.000001 -0.000000
vn 0.000000 0.000000 1.000000
vn 0.000000 0.000000 1.000000
vn 0.000000 0.000000 1.000000
vn 0.000000 0.000000 1.000000
vn 1.000000 0.000000 0.000000
vn 1.000000 0.000000 0.000000
vn 1.000000 0.000000 0.000000
vn 1.000000 0.000000 0.000000
vn -1.000000 -0.000125 -0.000368
vn -1.000000 -0.000125 -0.000368
vn -1.000000 -0.000125 -0.000368
vn -1.000000 -0.000125 -0.000368
s off
g Floor5WallsPart1 Floor5Walls FloorWalls CSBuildingStructure CS_Building_V11:CS_Building group1
usemtl CS_Building_V11:lambert5SG
f 1/1/1 2/2/2 3/3/3 4/4/4
f 5/77/5 3/78/6 2/79/7 6/80/8
f 6/5/9 7/6/10 8/7/11 5/8/12
f 9/9/13 10/10/14 11/11/15 12/12/16
f 7/81/17 11/82/18 10/83/19 8/84/20
f 12/85/21 13/86/22 14/87/23 9/88/24
f 13/13/25 15/14/26 16/15/27 14/16/28
f 15/89/29 17/90/30 18/91/31 16/92/32
f 19/17/33 18/18/34 17/19/35 20/20/36
f 21/93/37 19/94/38 20/95/39 22/96/40
f 4/97/41 23/98/42 24/99/43 1/100/44
f 25/21/45 24/22/46 23/23/47 26/24/48
f 26/101/49 27/102/50 28/103/51 25/104/52
f 27/25/53 29/26/54 30/27/55 28/28/56
f 29/105/57 31/106/58 32/107/59 30/108/60
f 33/29/61 21/30/62 22/31/63 34/32/64
f 35/35/65 36/36/66 37/37/67 38/38/68
f 39/39/69 40/40/70 41/41/71 42/42/72
f 36/109/73 43/110/74 44/111/75 37/112/76
f 45/43/77 44/44/78 43/45/79 46/46/80
f 42/113/81 45/114/82 46/115/83 39/116/84
f 47/117/85 48/118/86 49/119/87 50/120/88
f 51/121/89 35/122/90 38/123/91 52/124/92
f 48/47/93 51/48/94 52/49/95 49/50/96
f 40/125/97 53/126/98 54/127/99 41/128/100
f 50/51/101 55/52/102 56/53/103 47/54/104
f 57/129/105 56/130/106 55/131/107 58/132/108
f 59/133/109 60/134/110 61/135/111 62/136/112
f 63/137/113 64/138/114 65/139/115 66/140/116
f 67/55/117 57/56/118 58/57/119 68/58/120
f 66/59/121 69/60/122 70/61/123 63/62/124
f 69/141/125 67/142/126 68/143/127 70/144/128
f 71/63/129 65/64/130 64/65/131 72/66/132
f 62/67/133 73/68/134 74/69/135 59/70/136
f 73/145/137 71/146/138 72/147/139 74/148/140
f 53/71/141 75/72/142 76/73/143 54/74/144
f 77/149/145 78/150/146 79/151/147 80/152/148
f 75/72/149 77/75/150 80/76/151 76/73/152
f 78/33/153 33/29/154 34/32/155 79/34/156
