# This file uses centimeters as units for non-parametric coordinates.

mtllib Floor5Walls_Part4_Tex_Hite.mtl
g default
v -1587.014583 303.968133 -1370.743175
v -1128.046272 303.968133 -1370.734696
v -1128.046272 143.569585 -1370.735113
v -1587.014583 143.569585 -1370.743175
v -1128.046272 303.968133 -798.105892
v -1128.046272 143.569585 -798.105892
v -1587.018753 303.968133 -798.105892
v -1587.018753 143.569585 -798.105892
v -1587.018753 143.569585 -971.295432
v -1587.018753 303.968133 -971.295432
v -1587.018753 303.968133 -1086.427714
v -1587.018753 143.569585 -1086.427714
v -1526.100206 143.569585 -971.295432
v -1526.100206 303.968133 -971.295432
v -1526.100206 143.569585 -1086.427714
v -1526.100206 303.968133 -1086.427714
vt 0.242366 0.001864
vt 0.242366 0.860017
vt 0.001992 0.860017
vt 0.001992 0.001864
vt 0.757626 0.691500
vt 0.757626 0.431951
vt 0.998008 0.431951
vt 0.998008 0.691500
vt 0.985118 0.001868
vt 0.985118 0.427955
vt 0.744736 0.427955
vt 0.744736 0.001868
vt 0.384092 0.693692
vt 0.556631 0.693692
vt 0.556631 0.934074
vt 0.384092 0.934074
vt 0.249699 0.689666
vt 0.249699 0.001868
vt 0.490058 0.001868
vt 0.490058 0.689666
vt 0.737601 0.001868
vt 0.737601 0.689696
vt 0.497219 0.689696
vt 0.497219 0.001868
vt 0.751487 0.934052
vt 0.660192 0.934052
vt 0.660192 0.693692
vt 0.751487 0.693692
vt 0.562766 0.693692
vt 0.654060 0.693692
vt 0.654060 0.934074
vt 0.562766 0.934074
vn 0.000018 0.000001 -1.000000
vn 0.000018 0.000001 -1.000000
vn 0.000018 0.000001 -1.000000
vn 0.000018 0.000001 -1.000000
vn 1.000000 0.000000 0.000000
vn 1.000000 0.000000 0.000000
vn 1.000000 0.000000 0.000000
vn 1.000000 0.000000 0.000000
vn 0.000000 0.000000 1.000000
vn 0.000000 0.000000 1.000000
vn 0.000000 0.000000 1.000000
vn 0.000000 0.000000 1.000000
vn -1.000000 0.000000 0.000000
vn -1.000000 0.000000 0.000000
vn -1.000000 0.000000 0.000000
vn -1.000000 0.000000 0.000000
vn -1.000000 0.000000 -0.000015
vn -1.000000 0.000000 -0.000015
vn -1.000000 0.000000 -0.000015
vn -1.000000 0.000000 -0.000015
vn 0.000000 0.000000 -1.000000
vn 0.000000 0.000000 -1.000000
vn 0.000000 0.000000 -1.000000
vn 0.000000 0.000000 -1.000000
vn 0.000000 0.000000 1.000000
vn 0.000000 0.000000 1.000000
vn 0.000000 0.000000 1.000000
vn 0.000000 0.000000 1.000000
vn -1.000000 0.000000 0.000000
vn -1.000000 0.000000 0.000000
vn -1.000000 0.000000 0.000000
vn -1.000000 0.000000 0.000000
s off
g Floor5WallsPart4 Floor5Walls FloorWalls CSBuildingStructure CS_Building_V11:CS_Building group1
usemtl CS_Building_V11:lambert5SG
f 1/17/1 2/18/2 3/19/3 4/20/4
f 2/1/5 5/2/6 6/3/7 3/4/8
f 5/21/9 7/22/10 8/23/11 6/24/12
f 9/5/13 8/6/14 7/7/15 10/8/16
f 11/9/17 1/10/18 4/11/19 12/12/20
f 13/25/21 9/26/22 10/27/23 14/28/24
f 12/29/25 15/30/26 16/31/27 11/32/28
f 15/13/29 13/14/30 14/15/31 16/16/32
