# This file uses centimeters as units for non-parametric coordinates.

mtllib Floor5Walls_Part2_Tex_Hite.mtl
g default
v -1008.419120 303.968133 -189.501981
v -2093.847654 143.569585 -1370.736364
v -2210.834526 143.569585 -1370.736642
v -2210.834526 303.968133 -1370.736642
v -2093.847654 303.968133 -1370.736364
v -2039.917129 143.569585 -1370.736364
v -2039.917129 143.569585 -1309.501040
v -2039.917129 303.968133 -1309.501040
v -2039.917129 303.968203 -1370.736364
v -2093.847654 143.569585 -1309.501040
v -2093.847654 303.968133 -1309.501040
v -1025.897790 143.569585 -239.414488
v -1128.046272 143.569585 -239.414488
v -1128.046272 303.968133 -239.414488
v -1025.897790 303.968133 -239.414488
v -1025.897790 143.569585 -271.415934
v -1025.897790 303.968133 -271.415934
v -1128.046272 303.968133 -697.145154
v -1128.046272 143.569585 -697.145154
v -1008.419120 143.569585 -271.415934
v -1008.419120 303.968133 -271.415934
v -1365.219489 143.569585 -697.145154
v -1365.219489 303.968133 -697.145154
v -1365.219489 143.569585 -691.557823
v -1365.219489 303.968133 -691.557823
v -1587.018753 303.968133 -691.557823
v -1587.018753 143.569585 -691.557823
v -1587.018753 143.569585 -630.442524
v -1587.018753 303.968133 -630.442524
v -1693.445615 303.968133 -971.295432
v -1693.445615 303.968133 -630.442524
v -1693.445615 143.569585 -630.442524
v -1693.445615 143.569585 -971.295432
v -1693.473415 303.968133 -1370.743175
v -1693.445615 303.968133 -1086.427714
v -1693.445615 143.569585 -1086.427714
v -1693.473415 143.569585 -1370.743175
v -1754.550837 143.569585 -971.295432
v -1754.550837 303.968133 -971.295432
v -1754.550837 143.569585 -1086.427714
v -1754.550837 303.968133 -1086.427714
v -1008.419120 143.569585 -189.501981
vt 0.335420 0.445651
vt 0.413145 0.445651
vt 0.413145 0.649243
vt 0.335420 0.649243
vt 0.251637 0.445651
vt 0.329361 0.445651
vt 0.329361 0.649243
vt 0.251637 0.649243
vt 0.001983 0.794416
vt 0.042596 0.794416
vt 0.042596 0.998008
vt 0.001983 0.998008
vt 0.205549 0.002005
vt 0.205549 0.582988
vt 0.001970 0.582988
vt 0.001970 0.002005
vt 0.079270 0.794416
vt 0.086363 0.794416
vt 0.086363 0.998008
vt 0.079270 0.998008
vt 0.092754 0.794416
vt 0.170333 0.794416
vt 0.170333 0.998008
vt 0.092754 0.998008
vt 0.625938 0.002005
vt 0.625938 0.434673
vt 0.422333 0.434673
vt 0.422333 0.002005
vt 0.835987 0.002005
vt 0.835987 0.362862
vt 0.632409 0.362862
vt 0.632409 0.002005
vt 0.489769 0.724064
vt 0.635909 0.724064
vt 0.635909 0.927656
vt 0.489769 0.927656
vt 0.642035 0.724064
vt 0.746012 0.724064
vt 0.746012 0.927656
vt 0.642035 0.927656
vt 0.567698 0.649190
vt 0.419211 0.649190
vt 0.419211 0.445638
vt 0.567698 0.445638
vt 0.245578 0.790478
vt 0.177121 0.790478
vt 0.177121 0.586926
vt 0.245578 0.586926
vt 0.171049 0.790478
vt 0.041389 0.790478
vt 0.041389 0.586926
vt 0.171049 0.586926
vt 0.072548 0.997955
vt 0.050359 0.997955
vt 0.050359 0.794403
vt 0.072548 0.794403
vt 0.986948 0.366774
vt 0.986948 0.667806
vt 0.783396 0.667806
vt 0.783396 0.366774
vt 0.573771 0.720099
vt 0.573771 0.438584
vt 0.777323 0.438584
vt 0.777323 0.720099
vt 0.312655 0.997955
vt 0.177566 0.997955
vt 0.177566 0.794403
vt 0.312655 0.794403
vt 0.397744 0.856720
vt 0.320186 0.856720
vt 0.320186 0.653168
vt 0.397744 0.653168
vt 0.404990 0.653194
vt 0.482549 0.653194
vt 0.482549 0.856786
vt 0.404990 0.856786
vt 0.212258 0.441713
vt 0.212258 0.001992
vt 0.415810 0.001992
vt 0.415810 0.441713
vn 0.000002 0.000000 -1.000000
vn 0.000002 0.000000 -1.000000
vn 0.000002 0.000000 -1.000000
vn 0.000002 0.000000 -1.000000
vn -1.000000 0.000000 0.000000
vn -1.000000 0.000000 0.000000
vn -1.000000 0.000000 0.000000
vn -1.000000 0.000000 0.000000
vn 1.000000 0.000000 0.000000
vn 1.000000 0.000000 0.000000
vn 1.000000 0.000000 0.000000
vn 1.000000 0.000000 0.000000
vn 0.000000 0.000000 -1.000000
vn 0.000000 0.000000 -1.000000
vn 0.000000 0.000000 -1.000000
vn 0.000000 0.000000 -1.000000
vn 0.000000 0.000000 -1.000000
vn 0.000000 0.000000 -1.000000
vn 0.000000 0.000000 -1.000000
vn 0.000000 0.000000 -1.000000
vn -1.000000 0.000000 0.000000
vn -1.000000 0.000000 0.000000
vn -1.000000 0.000000 0.000000
vn -1.000000 0.000000 0.000000
vn 1.000000 0.000000 0.000000
vn 1.000000 0.000000 0.000000
vn 1.000000 0.000000 0.000000
vn 1.000000 0.000000 0.000000
vn 0.000000 0.000000 -1.000000
vn 0.000000 0.000000 -1.000000
vn 0.000000 0.000000 -1.000000
vn 0.000000 0.000000 -1.000000
vn 0.000000 0.000000 -1.000000
vn 0.000000 0.000000 -1.000000
vn 0.000000 0.000000 -1.000000
vn 0.000000 0.000000 -1.000000
vn -1.000000 0.000000 0.000000
vn -1.000000 0.000000 0.000000
vn -1.000000 0.000000 0.000000
vn -1.000000 0.000000 0.000000
vn 0.000000 0.000000 -1.000000
vn 0.000000 0.000000 -1.000000
vn 0.000000 0.000000 -1.000000
vn 0.000000 0.000000 -1.000000
vn -1.000000 0.000000 0.000000
vn -1.000000 0.000000 0.000000
vn -1.000000 0.000000 0.000000
vn -1.000000 0.000000 0.000000
vn 1.000000 0.000000 0.000000
vn 1.000000 0.000000 0.000000
vn 1.000000 0.000000 0.000000
vn 1.000000 0.000000 0.000000
vn 0.000000 0.000000 -1.000000
vn 0.000000 0.000000 -1.000000
vn 0.000000 0.000000 -1.000000
vn 0.000000 0.000000 -1.000000
vn 1.000000 0.000000 -0.000098
vn 1.000000 0.000000 -0.000098
vn 1.000000 0.000000 -0.000098
vn 1.000000 0.000000 -0.000098
vn 0.000000 0.000000 -1.000000
vn 0.000000 0.000000 -1.000000
vn 0.000000 0.000000 -1.000000
vn 0.000000 0.000000 -1.000000
vn 0.000000 0.000000 1.000000
vn 0.000000 0.000000 1.000000
vn 0.000000 0.000000 1.000000
vn 0.000000 0.000000 1.000000
vn 1.000000 0.000000 0.000000
vn 1.000000 0.000000 0.000000
vn 1.000000 0.000000 0.000000
vn 1.000000 0.000000 0.000000
vn -0.000020 0.000000 -1.000000
vn -0.000020 0.000000 -1.000000
vn -0.000020 0.000000 -1.000000
vn -0.000020 0.000000 -1.000000
vn 1.000000 0.000000 0.000000
vn 1.000000 0.000000 0.000000
vn 1.000000 0.000000 0.000000
vn 1.000000 0.000000 0.000000
s off
g Floor5WallsPart2 Floor5Walls FloorWalls CSBuildingStructure CS_Building_V11:CS_Building group1
usemtl CS_Building_V11:lambert5SG
f 2/41/1 3/42/2 4/43/3 5/44/4
f 6/1/5 7/2/6 8/3/7 9/4/8
f 10/5/9 2/6/10 5/7/11 11/8/12
f 7/45/13 10/46/14 11/47/15 8/48/16
f 12/49/17 13/50/18 14/51/19 15/52/20
f 16/9/21 12/10/22 15/11/23 17/12/24
f 18/13/25 14/14/26 13/15/27 19/16/28
f 20/53/29 16/54/30 17/55/31 21/56/32
f 19/57/33 22/58/34 23/59/35 18/60/36
f 22/17/37 24/18/38 25/19/39 23/20/40
f 26/61/41 25/62/42 24/63/43 27/64/44
f 27/21/45 28/22/46 29/23/47 26/24/48
f 30/25/49 31/26/50 32/27/51 33/28/52
f 28/65/53 32/66/54 31/67/55 29/68/56
f 34/29/57 35/30/58 36/31/59 37/32/60
f 33/69/61 38/70/62 39/71/63 30/72/64
f 40/73/65 36/74/66 35/75/67 41/76/68
f 38/33/69 40/34/70 41/35/71 39/36/72
f 9/77/73 34/78/74 37/79/75 6/80/76
f 42/37/77 20/38/78 21/39/79 1/40/80
