# This file uses centimeters as units for non-parametric coordinates.

mtllib Floor5Walls_Part5_Tex_Hite.mtl
g default
v -345.328219 303.968133 -340.465471
v -345.328219 303.968133 -697.119995
v -345.328219 143.569585 -697.119995
v -345.328219 143.569585 -340.465471
v -341.043932 303.968133 -697.119995
v -341.050221 303.970218 -1384.004069
v -341.049665 143.571722 -1384.004069
v -341.043932 143.569585 -697.119995
v 8.485050 143.572625 -1384.013938
v 8.484789 303.971191 -1384.014216
vt 0.472680 0.001999
vt 0.472680 0.519167
vt 0.240092 0.519167
vt 0.240092 0.001999
vt 0.234032 0.001992
vt 0.234032 0.998008
vt 0.001457 0.998008
vt 0.001444 0.001992
vt 0.723232 0.234574
vt 0.717021 0.234574
vt 0.717021 0.001999
vt 0.723232 0.001999
vt 0.711125 0.001999
vt 0.711125 0.508847
vt 0.478550 0.508847
vt 0.478550 0.001999
vn -1.000000 0.000000 0.000000
vn -1.000000 0.000000 0.000000
vn -1.000000 0.000000 0.000000
vn -1.000000 0.000000 0.000000
vn -1.000000 -0.000002 0.000009
vn -1.000000 -0.000002 0.000009
vn -1.000000 -0.000002 0.000009
vn -1.000000 -0.000002 0.000009
vn 0.000000 0.000000 -1.000000
vn 0.000000 0.000000 -1.000000
vn 0.000000 0.000000 -1.000000
vn 0.000000 0.000000 -1.000000
vn -0.000029 -0.000001 -1.000000
vn -0.000029 -0.000001 -1.000000
vn -0.000029 -0.000001 -1.000000
vn -0.000029 -0.000001 -1.000000
s off
g Floor5WallsPart5 Floor5Walls FloorWalls CSBuildingStructure CS_Building_V11:CS_Building group1
usemtl CS_Building_V11:lambert5SG
f 1/1/1 2/2/2 3/3/3 4/4/4
f 5/5/5 6/6/6 7/7/7 8/8/8
f 8/9/9 3/10/10 2/11/11 5/12/12
f 9/13/13 7/14/14 6/15/15 10/16/16
