# This file uses centimeters as units for non-parametric coordinates.

mtllib Leaf2.mtl
g default
v -0.675731 -1.541938 -0.149766
v 0.003250 -2.054288 -0.153389
v 0.521573 -1.539573 0.102216
v -0.954906 -1.014495 0.029410
v 0.003250 -1.014495 0.081265
v 0.879628 -1.014495 0.278870
v -0.435596 -0.153223 -0.034765
v 0.003250 0.025297 -0.153389
v 0.509686 -0.162470 0.217217
vt 0.909370 0.753483
vt 0.553592 0.999997
vt 0.512522 0.500000
vt 1.051129 0.498300
vt 0.182359 0.787372
vt 0.028949 0.501700
vt 0.506198 0.000003
vt 0.811048 0.090049
vt 0.223371 0.096255
vn -0.238701 -0.287448 0.927575
vn 0.042504 -0.310503 0.949622
vn 0.042539 -0.001136 0.999094
vn -0.249947 0.000602 0.968259
vn 0.042504 -0.310503 0.949622
vn 0.320304 -0.308689 0.895609
vn 0.333035 -0.002785 0.942910
vn 0.042539 -0.001136 0.999094
vn -0.249947 0.000602 0.968259
vn 0.042539 -0.001136 0.999094
vn 0.038404 0.308079 0.950585
vn -0.240008 0.288601 0.926880
vn 0.042539 -0.001136 0.999094
vn 0.333035 -0.002785 0.942910
vn 0.313803 0.303387 0.899713
vn 0.038404 0.308079 0.950585
s off
g Leaf:pPlane1
usemtl Leaf:initialShadingGroup
f 1/1/1 2/2/2 5/3/3 4/4/4
f 2/2/5 3/5/6 6/6/7 5/3/8
f 4/4/9 5/3/10 8/7/11 7/8/12
f 5/3/13 6/6/14 9/9/15 8/7/16
