# This file uses centimeters as units for non-parametric coordinates.

mtllib CS_Building_CenterPieceChip.mtl
g default
v -5.037850 -1.428831 -10.031196
v -4.026444 -1.428831 -10.031196
v -5.037850 0.111403 -10.031196
v -4.026444 0.111403 -10.031196
v -5.037850 0.111403 -11.200143
v -4.026444 0.111403 -11.200143
v -5.037850 -1.428831 -11.200143
v -4.026444 -1.428831 -11.200143
v -4.993782 0.144518 -10.066864
v -4.070512 0.144518 -10.066864
v -4.070512 0.144518 -11.164474
v -4.993782 0.144518 -11.164474
vt 0.375000 0.000000
vt 0.625000 0.000000
vt 0.375000 0.250000
vt 0.625000 0.250000
vt 0.375000 0.500000
vt 0.625000 0.500000
vt 0.375000 0.750000
vt 0.625000 0.750000
vt 0.375000 1.000000
vt 0.625000 1.000000
vt 0.875000 0.000000
vt 0.875000 0.250000
vt 0.125000 0.000000
vt 0.125000 0.250000
vt 0.375000 0.250000
vt 0.625000 0.250000
vt 0.625000 0.500000
vt 0.375000 0.500000
vn 0.000000 0.000000 1.000000
vn 0.000000 0.000000 1.000000
vn 0.000000 0.000000 1.000000
vn 0.000000 0.000000 1.000000
vn -0.045178 0.998118 0.041466
vn 0.045177 0.998118 0.041466
vn 0.045177 0.998118 -0.041466
vn -0.045178 0.998118 -0.041466
vn 0.000000 0.000000 -1.000000
vn 0.000000 0.000000 -1.000000
vn 0.000000 0.000000 -1.000000
vn 0.000000 0.000000 -1.000000
vn 0.000000 -1.000000 0.000000
vn 0.000000 -1.000000 0.000000
vn 0.000000 -1.000000 0.000000
vn 0.000000 -1.000000 0.000000
vn 1.000000 0.000000 0.000000
vn 1.000000 0.000000 0.000000
vn 1.000000 0.000000 0.000000
vn 1.000000 0.000000 0.000000
vn -1.000000 0.000000 0.000000
vn -1.000000 0.000000 0.000000
vn -1.000000 0.000000 0.000000
vn -1.000000 0.000000 0.000000
vn -0.410773 0.863103 0.293800
vn 0.410774 0.863102 0.293802
vn 0.410774 0.863102 -0.293802
vn -0.410773 0.863103 -0.293800
s off
g CenterPieceChip
usemtl initialShadingGroup
f 1/1/1 2/2/2 4/4/3 3/3/4
s 1
f 9/15/5 10/16/6 11/17/7 12/18/8
s off
f 5/5/9 6/6/10 8/8/11 7/7/12
f 7/7/13 8/8/14 2/10/15 1/9/16
f 2/2/17 8/11/18 6/12/19 4/4/20
f 7/13/21 1/1/22 3/3/23 5/14/24
s 1
f 3/3/25 4/4/26 10/16/6 9/15/5
f 4/4/26 6/6/27 11/17/7 10/16/6
f 6/6/27 5/5/28 12/18/8 11/17/7
f 5/5/28 3/3/25 9/15/5 12/18/8
