# This file uses centimeters as units for non-parametric coordinates.

mtllib CS_Building_ElevatorHolder.mtl
g default
v -3.892553 0.000000 -14.148597
v -3.959219 0.000000 -14.148597
v -3.892553 4.058603 -14.148597
v -3.959219 4.058603 -14.148597
v -3.892553 4.058603 -13.677225
v -3.959219 4.058603 -13.677225
v -3.892553 0.000000 -13.677225
v -3.959219 0.000000 -13.677225
v -3.959219 4.058603 -14.086756
v -3.892553 4.058603 -14.086756
v -3.892553 0.000000 -14.086756
v -3.959219 0.000000 -14.086756
v -4.167999 0.000000 -14.086756
v -4.167999 0.000000 -14.148597
v -4.167999 4.058603 -14.086756
v -4.167999 4.058603 -14.148597
v -4.686552 0.000000 -7.057876
v -4.619885 0.000000 -7.057876
v -4.686552 4.058603 -7.057876
v -4.619885 4.058603 -7.057876
v -4.686552 4.058603 -7.529248
v -4.619885 4.058603 -7.529248
v -4.686552 0.000000 -7.529248
v -4.619885 0.000000 -7.529248
v -4.619885 4.058603 -7.119717
v -4.686552 4.058603 -7.119717
v -4.686552 0.000000 -7.119717
v -4.619885 0.000000 -7.119717
v -4.411106 0.000000 -7.119717
v -4.411106 0.000000 -7.057876
v -4.411106 4.058603 -7.119717
v -4.411106 4.058603 -7.057876
v -3.892324 0.000000 -7.057876
v -3.958990 0.000000 -7.057876
v -3.892324 4.058603 -7.057876
v -3.958990 4.058603 -7.057876
v -3.892324 4.058603 -7.529248
v -3.958990 4.058603 -7.529248
v -3.892324 0.000000 -7.529248
v -3.958990 0.000000 -7.529248
v -3.958990 4.058603 -7.119717
v -3.892324 4.058603 -7.119717
v -3.892324 0.000000 -7.119717
v -3.958990 0.000000 -7.119717
v -4.167769 0.000000 -7.119717
v -4.167769 0.000000 -7.057876
v -4.167769 4.058603 -7.119717
v -4.167769 4.058603 -7.057876
v -4.686780 0.000000 -14.148597
v -4.620114 0.000000 -14.148597
v -4.686780 4.058603 -14.148597
v -4.620114 4.058603 -14.148597
v -4.686780 4.058603 -13.677225
v -4.620114 4.058603 -13.677225
v -4.686780 0.000000 -13.677225
v -4.620114 0.000000 -13.677225
v -4.620114 4.058603 -14.086756
v -4.686780 4.058603 -14.086756
v -4.686780 0.000000 -14.086756
v -4.620114 0.000000 -14.086756
v -4.411335 0.000000 -14.086756
v -4.411335 0.000000 -14.148597
v -4.411335 4.058603 -14.086756
v -4.411335 4.058603 -14.148597
vt 0.375000 0.000000
vt 0.625000 0.000000
vt 0.375000 0.250000
vt 0.625000 0.250000
vt 0.375000 0.500000
vt 0.625000 0.500000
vt 0.375000 0.750000
vt 0.625000 0.750000
vt 0.375000 1.000000
vt 0.625000 1.000000
vt 0.875000 0.000000
vt 0.875000 0.250000
vt 0.125000 0.000000
vt 0.125000 0.250000
vt 0.625000 0.282798
vt 0.657798 0.250000
vt 0.342202 0.250000
vt 0.375000 0.282798
vt 0.342202 0.000000
vt 0.375000 0.967202
vt 0.625000 0.967202
vt 0.657798 0.000000
vt 0.625000 0.000000
vt 0.657798 0.000000
vt 0.657798 0.250000
vt 0.625000 0.250000
vt 0.375000 0.000000
vt 0.625000 0.000000
vt 0.625000 0.250000
vt 0.375000 0.250000
vt 0.625000 0.282798
vt 0.375000 0.282798
vt 0.375000 0.500000
vt 0.625000 0.500000
vt 0.625000 0.750000
vt 0.375000 0.750000
vt 0.375000 0.967202
vt 0.625000 0.967202
vt 0.625000 1.000000
vt 0.375000 1.000000
vt 0.625000 0.000000
vt 0.657798 0.000000
vt 0.657798 0.250000
vt 0.625000 0.250000
vt 0.342202 0.000000
vt 0.342202 0.250000
vt 0.125000 0.000000
vt 0.125000 0.250000
vt 0.657798 0.250000
vt 0.657798 0.000000
vt 0.875000 0.000000
vt 0.875000 0.250000
vt 0.375000 0.000000
vt 0.625000 0.000000
vt 0.625000 0.250000
vt 0.375000 0.250000
vt 0.625000 0.282798
vt 0.375000 0.282798
vt 0.375000 0.500000
vt 0.625000 0.500000
vt 0.625000 0.750000
vt 0.375000 0.750000
vt 0.375000 0.967202
vt 0.625000 0.967202
vt 0.625000 1.000000
vt 0.375000 1.000000
vt 0.625000 0.000000
vt 0.657798 0.000000
vt 0.657798 0.250000
vt 0.625000 0.250000
vt 0.342202 0.000000
vt 0.342202 0.250000
vt 0.125000 0.000000
vt 0.125000 0.250000
vt 0.657798 0.250000
vt 0.657798 0.000000
vt 0.875000 0.000000
vt 0.875000 0.250000
vt 0.375000 0.000000
vt 0.625000 0.000000
vt 0.625000 0.250000
vt 0.375000 0.250000
vt 0.625000 0.282798
vt 0.375000 0.282798
vt 0.375000 0.500000
vt 0.625000 0.500000
vt 0.625000 0.750000
vt 0.375000 0.750000
vt 0.375000 0.967202
vt 0.625000 0.967202
vt 0.625000 1.000000
vt 0.375000 1.000000
vt 0.625000 0.000000
vt 0.657798 0.000000
vt 0.657798 0.250000
vt 0.625000 0.250000
vt 0.342202 0.000000
vt 0.342202 0.250000
vt 0.125000 0.000000
vt 0.125000 0.250000
vt 0.657798 0.250000
vt 0.657798 0.000000
vt 0.875000 0.000000
vt 0.875000 0.250000
vn 0.000000 0.000000 -1.000000
vn 0.000000 0.000000 -1.000000
vn 0.000000 0.000000 -1.000000
vn 0.000000 0.000000 -1.000000
vn 0.000000 1.000000 0.000000
vn 0.000000 1.000000 0.000000
vn 0.000000 1.000000 0.000000
vn 0.000000 1.000000 0.000000
vn 0.000000 0.000000 1.000000
vn 0.000000 0.000000 1.000000
vn 0.000000 0.000000 1.000000
vn 0.000000 0.000000 1.000000
vn 0.000000 -1.000000 0.000000
vn 0.000000 -1.000000 0.000000
vn 0.000000 -1.000000 0.000000
vn 0.000000 -1.000000 0.000000
vn -1.000000 0.000000 0.000000
vn -1.000000 0.000000 0.000000
vn -1.000000 0.000000 0.000000
vn -1.000000 0.000000 0.000000
vn 1.000000 0.000000 0.000000
vn 1.000000 0.000000 0.000000
vn 1.000000 0.000000 0.000000
vn 1.000000 0.000000 0.000000
vn 0.000000 1.000000 0.000000
vn 0.000000 1.000000 0.000000
vn 1.000000 0.000000 0.000000
vn 1.000000 0.000000 0.000000
vn 0.000000 -1.000000 0.000000
vn 0.000000 -1.000000 0.000000
vn -1.000000 0.000000 0.000000
vn -1.000000 0.000000 0.000000
vn -1.000000 0.000000 0.000000
vn -1.000000 0.000000 0.000000
vn 0.000000 -1.000000 0.000000
vn 0.000000 -1.000000 0.000000
vn 0.000000 0.000000 1.000000
vn 0.000000 0.000000 1.000000
vn 0.000000 0.000000 1.000000
vn 0.000000 0.000000 1.000000
vn 0.000000 1.000000 0.000000
vn 0.000000 1.000000 0.000000
vn 0.000000 0.000000 -1.000000
vn 0.000000 0.000000 -1.000000
vn 0.000000 0.000000 1.000000
vn 0.000000 0.000000 1.000000
vn 0.000000 0.000000 1.000000
vn 0.000000 0.000000 1.000000
vn 0.000000 1.000000 0.000000
vn 0.000000 1.000000 0.000000
vn 0.000000 1.000000 0.000000
vn 0.000000 1.000000 0.000000
vn 0.000000 0.000000 -1.000000
vn 0.000000 0.000000 -1.000000
vn 0.000000 0.000000 -1.000000
vn 0.000000 0.000000 -1.000000
vn 0.000000 -1.000000 0.000000
vn 0.000000 -1.000000 0.000000
vn 0.000000 -1.000000 0.000000
vn 0.000000 -1.000000 0.000000
vn 1.000000 0.000000 0.000000
vn 1.000000 0.000000 0.000000
vn 1.000000 0.000000 0.000000
vn 1.000000 0.000000 0.000000
vn -1.000000 0.000000 0.000000
vn -1.000000 0.000000 0.000000
vn -1.000000 0.000000 0.000000
vn -1.000000 0.000000 0.000000
vn 0.000000 1.000000 0.000000
vn 0.000000 1.000000 0.000000
vn -1.000000 0.000000 0.000000
vn -1.000000 0.000000 0.000000
vn 0.000000 -1.000000 0.000000
vn 0.000000 -1.000000 0.000000
vn 1.000000 0.000000 0.000000
vn 1.000000 0.000000 0.000000
vn 1.000000 0.000000 0.000000
vn 1.000000 0.000000 0.000000
vn 0.000000 -1.000000 0.000000
vn 0.000000 -1.000000 0.000000
vn 0.000000 0.000000 -1.000000
vn 0.000000 0.000000 -1.000000
vn 0.000000 0.000000 -1.000000
vn 0.000000 0.000000 -1.000000
vn 0.000000 1.000000 0.000000
vn 0.000000 1.000000 0.000000
vn 0.000000 0.000000 1.000000
vn 0.000000 0.000000 1.000000
vn 0.000000 0.000000 1.000000
vn 0.000000 0.000000 1.000000
vn 0.000000 0.000000 1.000000
vn 0.000000 0.000000 1.000000
vn 0.000000 1.000000 0.000000
vn 0.000000 1.000000 0.000000
vn 0.000000 1.000000 0.000000
vn 0.000000 1.000000 0.000000
vn 0.000000 0.000000 -1.000000
vn 0.000000 0.000000 -1.000000
vn 0.000000 0.000000 -1.000000
vn 0.000000 0.000000 -1.000000
vn 0.000000 -1.000000 0.000000
vn 0.000000 -1.000000 0.000000
vn 0.000000 -1.000000 0.000000
vn 0.000000 -1.000000 0.000000
vn -1.000000 0.000000 0.000000
vn -1.000000 0.000000 0.000000
vn -1.000000 0.000000 0.000000
vn -1.000000 0.000000 0.000000
vn 1.000000 0.000000 0.000000
vn 1.000000 0.000000 0.000000
vn 1.000000 0.000000 0.000000
vn 1.000000 0.000000 0.000000
vn 0.000000 1.000000 0.000000
vn 0.000000 1.000000 0.000000
vn 1.000000 0.000000 0.000000
vn 1.000000 0.000000 0.000000
vn 0.000000 -1.000000 0.000000
vn 0.000000 -1.000000 0.000000
vn -1.000000 0.000000 0.000000
vn -1.000000 0.000000 0.000000
vn -1.000000 0.000000 0.000000
vn -1.000000 0.000000 0.000000
vn 0.000000 -1.000000 0.000000
vn 0.000000 -1.000000 0.000000
vn 0.000000 0.000000 -1.000000
vn 0.000000 0.000000 -1.000000
vn 0.000000 0.000000 -1.000000
vn 0.000000 0.000000 -1.000000
vn 0.000000 1.000000 0.000000
vn 0.000000 1.000000 0.000000
vn 0.000000 0.000000 1.000000
vn 0.000000 0.000000 1.000000
vn 0.000000 0.000000 -1.000000
vn 0.000000 0.000000 -1.000000
vn 0.000000 0.000000 -1.000000
vn 0.000000 0.000000 -1.000000
vn 0.000000 1.000000 0.000000
vn 0.000000 1.000000 0.000000
vn 0.000000 1.000000 0.000000
vn 0.000000 1.000000 0.000000
vn 0.000000 0.000000 1.000000
vn 0.000000 0.000000 1.000000
vn 0.000000 0.000000 1.000000
vn 0.000000 0.000000 1.000000
vn 0.000000 -1.000000 0.000000
vn 0.000000 -1.000000 0.000000
vn 0.000000 -1.000000 0.000000
vn 0.000000 -1.000000 0.000000
vn 1.000000 0.000000 0.000000
vn 1.000000 0.000000 0.000000
vn 1.000000 0.000000 0.000000
vn 1.000000 0.000000 0.000000
vn -1.000000 0.000000 0.000000
vn -1.000000 0.000000 0.000000
vn -1.000000 0.000000 0.000000
vn -1.000000 0.000000 0.000000
vn 0.000000 1.000000 0.000000
vn 0.000000 1.000000 0.000000
vn -1.000000 0.000000 0.000000
vn -1.000000 0.000000 0.000000
vn 0.000000 -1.000000 0.000000
vn 0.000000 -1.000000 0.000000
vn 1.000000 0.000000 0.000000
vn 1.000000 0.000000 0.000000
vn 1.000000 0.000000 0.000000
vn 1.000000 0.000000 0.000000
vn 0.000000 -1.000000 0.000000
vn 0.000000 -1.000000 0.000000
vn 0.000000 0.000000 1.000000
vn 0.000000 0.000000 1.000000
vn 0.000000 0.000000 1.000000
vn 0.000000 0.000000 1.000000
vn 0.000000 1.000000 0.000000
vn 0.000000 1.000000 0.000000
vn 0.000000 0.000000 -1.000000
vn 0.000000 0.000000 -1.000000
s 1
g ElevatorTubes LooseAdornments
usemtl initialShadingGroup
f 1/1/1 2/2/2 4/4/3 3/3/4
s 2
f 3/3/5 4/4/6 9/15/7 10/18/8
s off
f 5/5/9 6/6/10 8/8/11 7/7/12
s 3
f 11/20/13 12/21/14 2/10/15 1/9/16
s off
f 14/23/17 13/24/18 15/25/19 16/26/20
s 4
f 11/19/21 1/1/22 3/3/23 10/17/24
s 2
f 10/18/8 9/15/7 6/6/25 5/5/26
s 4
f 7/13/27 11/19/21 10/17/24 5/14/28
s 3
f 7/7/29 8/8/30 12/21/14 11/20/13
s off
f 9/16/31 12/22/32 8/11/33 6/12/34
s 3
f 2/2/15 12/22/14 13/24/35 14/23/36
s off
f 12/22/37 9/16/38 15/25/39 13/24/40
s 2
f 9/16/7 4/4/6 16/26/41 15/25/42
s 1
f 4/4/3 2/2/2 14/23/43 16/26/44
s 5
f 17/27/45 18/28/46 20/29/47 19/30/48
s 6
f 19/30/49 20/29/50 25/31/51 26/32/52
s off
f 21/33/53 22/34/54 24/35/55 23/36/56
s 7
f 27/37/57 28/38/58 18/39/59 17/40/60
s off
f 30/41/61 29/42/62 31/43/63 32/44/64
s 8
f 27/45/65 17/27/66 19/30/67 26/46/68
s 6
f 26/32/52 25/31/51 22/34/69 21/33/70
s 8
f 23/47/71 27/45/65 26/46/68 21/48/72
s 7
f 23/36/73 24/35/74 28/38/58 27/37/57
s off
f 25/49/75 28/50/76 24/51/77 22/52/78
s 7
f 18/28/59 28/50/58 29/42/79 30/41/80
s off
f 28/50/81 25/49/82 31/43/83 29/42/84
s 6
f 25/49/51 20/29/50 32/44/85 31/43/86
s 5
f 20/29/47 18/28/46 30/41/87 32/44/88
s 9
f 33/53/89 35/56/90 36/55/91 34/54/92
s 10
f 35/56/93 42/58/94 41/57/95 36/55/96
s off
f 37/59/97 39/62/98 40/61/99 38/60/100
s 11
f 43/63/101 33/66/102 34/65/103 44/64/104
s off
f 46/67/105 48/70/106 47/69/107 45/68/108
s 12
f 43/71/109 42/72/110 35/56/111 33/53/112
s 10
f 42/58/94 37/59/113 38/60/114 41/57/95
s 12
f 39/73/115 37/74/116 42/72/110 43/71/109
s 11
f 39/62/117 43/63/101 44/64/104 40/61/118
s off
f 41/75/119 38/78/120 40/77/121 44/76/122
s 11
f 34/54/103 46/67/123 45/68/124 44/76/104
s off
f 44/76/125 45/68/126 47/69/127 41/75/128
s 10
f 41/75/95 47/69/129 48/70/130 36/55/96
s 9
f 36/55/91 48/70/131 46/67/132 34/54/92
s 13
f 49/79/133 51/82/134 52/81/135 50/80/136
s 14
f 51/82/137 58/84/138 57/83/139 52/81/140
s off
f 53/85/141 55/88/142 56/87/143 54/86/144
s 15
f 59/89/145 49/92/146 50/91/147 60/90/148
s off
f 62/93/149 64/96/150 63/95/151 61/94/152
s 16
f 59/97/153 58/98/154 51/82/155 49/79/156
s 14
f 58/84/138 53/85/157 54/86/158 57/83/139
s 16
f 55/99/159 53/100/160 58/98/154 59/97/153
s 15
f 55/88/161 59/89/145 60/90/148 56/87/162
s off
f 57/101/163 54/104/164 56/103/165 60/102/166
s 15
f 50/80/147 62/93/167 61/94/168 60/102/148
s off
f 60/102/169 61/94/170 63/95/171 57/101/172
s 14
f 57/101/139 63/95/173 64/96/174 52/81/140
s 13
f 52/81/135 64/96/175 62/93/176 50/80/136
