# This file uses centimeters as units for non-parametric coordinates.

mtllib elevator_OBJ.mtl
g default
v -0.288061 -0.000000 0.406460
v -0.273963 -0.000000 0.495476
v -0.233047 -0.000000 0.575778
v -0.169318 -0.000000 0.639506
v -0.089015 -0.000000 0.680422
v 0.000000 -0.000000 0.694521
v 0.089015 -0.000000 0.680422
v 0.169318 -0.000000 0.639506
v 0.233047 -0.000000 0.575778
v 0.273963 -0.000000 0.495476
v 0.288061 -0.000000 0.406460
v -0.288061 0.624538 0.406460
v -0.273963 0.624538 0.495476
v -0.233047 0.624538 0.575778
v -0.169318 0.624538 0.639506
v -0.089015 0.624538 0.680422
v 0.000000 0.624538 0.694521
v 0.089015 0.624538 0.680422
v 0.169318 0.624538 0.639506
v 0.233047 0.624538 0.575778
v 0.273963 0.624538 0.495476
v 0.288061 0.624538 0.406460
v 0.000000 -0.000000 0.406460
v 0.000000 0.624538 0.406460
v -0.288061 -0.000000 -0.000000
v -0.288061 0.624538 -0.000000
v 0.288061 -0.000000 -0.000000
v 0.288061 0.624538 -0.000000
v 0.000000 -0.000000 -0.000000
v 0.000000 0.624538 -0.000000
v -0.309559 -0.023304 0.410016
v -0.294408 -0.023304 0.505675
v -0.250439 -0.023304 0.591970
v -0.181954 -0.023304 0.660455
v -0.095659 -0.023304 0.704424
v 0.000000 -0.023304 0.719575
v 0.095659 -0.023304 0.704424
v 0.181954 -0.023304 0.660455
v 0.250439 -0.023304 0.591970
v 0.294408 -0.023304 0.505675
v 0.309559 -0.023304 0.410016
v -0.309559 0.647843 0.410016
v -0.294408 0.647843 0.505675
v -0.250439 0.647843 0.591970
v -0.181954 0.647843 0.660455
v -0.095659 0.647843 0.704424
v 0.000000 0.647843 0.719575
v 0.095659 0.647843 0.704424
v 0.181954 0.647843 0.660455
v 0.250439 0.647843 0.591970
v 0.294408 0.647843 0.505675
v 0.309559 0.647843 0.410016
v 0.000000 -0.023304 0.410016
g topoSymmetrySet
v 0.000000 0.647843 0.410016
g default
v -0.309559 -0.023304 -0.001955
v -0.309559 0.647843 -0.001955
v 0.309559 -0.023304 -0.001955
v 0.309559 0.647843 -0.001955
v 0.000000 -0.023304 -0.001955
g topoSymmetrySet
v 0.000000 0.647843 -0.001955
g default
v -0.288061 -0.000000 0.045611
v -0.288061 0.624538 0.045611
v 0.000000 0.624538 0.045611
v 0.288061 0.624538 0.045611
v 0.288061 -0.000000 0.045611
v 0.000000 -0.000000 0.045611
v -0.134845 -0.000000 0.406460
v -0.118711 -0.000000 0.045611
v -0.118711 -0.000000 -0.000000
v -0.144908 -0.023304 -0.001955
v -0.144908 -0.023304 0.410016
v 0.144908 -0.023304 0.410016
v 0.144908 -0.023304 -0.001955
v 0.118711 -0.000000 -0.000000
v 0.118711 -0.000000 0.045611
v 0.134845 -0.000000 0.406460
v 0.140783 0.624538 0.406460
v 0.124649 0.624538 0.045611
v 0.124649 0.624538 -0.000000
v 0.151290 0.647843 -0.001955
v 0.151290 0.647843 0.410016
v -0.151289 0.647843 0.410016
v -0.151289 0.647843 -0.001955
v -0.124649 0.624538 -0.000000
v -0.124649 0.624538 0.045611
v -0.140783 0.624538 0.406460
vt 0.343750 0.156250
vt 0.351397 0.204534
vt 0.373591 0.248091
vt 0.408159 0.282659
vt 0.451716 0.304853
vt 0.500000 0.312500
vt 0.548284 0.304853
vt 0.591841 0.282659
vt 0.626409 0.248091
vt 0.648603 0.204534
vt 0.656250 0.156250
vt 0.487500 0.312500
vt 0.500000 0.312500
vt 0.512500 0.312500
vt 0.525000 0.312500
vt 0.537500 0.312500
vt 0.550000 0.312500
vt 0.562500 0.312500
vt 0.575000 0.312500
vt 0.587500 0.312500
vt 0.600000 0.312500
vt 0.612500 0.312500
vt 0.487500 0.688440
vt 0.500000 0.688440
vt 0.512500 0.688440
vt 0.525000 0.688440
vt 0.537500 0.688440
vt 0.550000 0.688440
vt 0.562500 0.688440
vt 0.575000 0.688440
vt 0.587500 0.688440
vt 0.600000 0.688440
vt 0.612500 0.688440
vt 0.648603 0.795466
vt 0.626409 0.751908
vt 0.591842 0.717341
vt 0.548284 0.695147
vt 0.500000 0.687500
vt 0.451716 0.695147
vt 0.408159 0.717341
vt 0.373591 0.751909
vt 0.351397 0.795466
vt 0.343750 0.843750
vt 0.656250 0.843750
vt 0.500000 0.150000
vt 0.500000 0.837500
vt 0.000000 0.000000
vt 1.000000 0.000000
vt 1.000000 1.000000
vt 0.000000 0.000000
vt 1.000000 0.000000
vt 1.000000 1.000000
vt 0.000000 0.000000
vt 1.000000 0.000000
vt 1.000000 1.000000
vt 0.000000 1.000000
vt 0.000000 0.000000
vt 1.000000 0.000000
vt 1.000000 1.000000
vt 0.000000 1.000000
vt 0.000000 0.000000
vt 1.000000 0.000000
vt 0.500000 1.000000
vt 0.000000 1.000000
vt 0.000000 0.000000
vt 1.000000 0.000000
vt 1.000000 1.000000
vt 0.487500 0.312500
vt 0.500000 0.312500
vt 0.500000 0.688440
vt 0.487500 0.688440
vt 0.512500 0.312500
vt 0.512500 0.688440
vt 0.525000 0.312500
vt 0.525000 0.688440
vt 0.537500 0.312500
vt 0.537500 0.688440
vt 0.550000 0.312500
vt 0.550000 0.688440
vt 0.562500 0.312500
vt 0.562500 0.688440
vt 0.575000 0.312500
vt 0.575000 0.688440
vt 0.587500 0.312500
vt 0.587500 0.688440
vt 0.600000 0.312500
vt 0.600000 0.688440
vt 0.612500 0.312500
vt 0.612500 0.688440
vt 0.351397 0.204534
vt 0.343750 0.156250
vt 0.500000 0.150000
vt 0.373591 0.248091
vt 0.408159 0.282659
vt 0.451716 0.304853
vt 0.500000 0.312500
vt 0.548284 0.304853
vt 0.591841 0.282659
vt 0.626409 0.248091
vt 0.648603 0.204534
vt 0.656250 0.156250
vt 0.343750 0.843750
vt 0.351397 0.795466
vt 0.500000 0.837500
vt 0.373591 0.751909
vt 0.408159 0.717341
vt 0.451716 0.695147
vt 0.500000 0.687500
vt 0.548284 0.695147
vt 0.591842 0.717341
vt 0.626409 0.751908
vt 0.648603 0.795466
vt 0.656250 0.843750
vt 0.000000 0.000000
vt 1.000000 0.000000
vt 1.000000 1.000000
vt 0.000000 1.000000
vt 0.000000 0.000000
vt 1.000000 0.000000
vt 1.000000 1.000000
vt 0.000000 1.000000
vt 0.000000 0.000000
vt 1.000000 0.000000
vt 1.000000 1.000000
vt 0.000000 1.000000
vt 0.000000 0.000000
vt 1.000000 0.000000
vt 1.000000 1.000000
vt 0.000000 1.000000
vt 0.000000 0.000000
vt 1.000000 0.000000
vt 0.500000 1.000000
vt 0.000000 1.000000
vt 0.000000 0.000000
vt 1.000000 0.000000
vt 1.000000 1.000000
vt 0.500000 0.887784
vt 0.500000 0.887784
vt 0.443892 0.887784
vt 0.556108 0.887784
vt 0.500000 0.887784
vt 0.500000 0.887784
vt 0.000000 0.887784
vt 1.000000 0.887784
vt 0.426857 0.152926
vt 0.468112 0.000000
vt 0.468112 0.887784
vt 0.468112 1.000000
vt 0.468112 1.000000
vt 0.468112 0.000000
vt 0.426857 0.152926
vt 0.573143 0.152926
vt 0.531888 0.000000
vt 0.531888 1.000000
vt 0.531888 1.000000
vt 0.531888 0.887784
vt 0.531888 0.000000
vt 0.573143 0.152926
vt 0.488726 0.000000
vt 0.576364 0.840555
vt 0.715677 0.887784
vt 0.744363 1.000000
vt 0.744363 1.000000
vt 0.576364 0.840555
vt 0.488726 0.000000
vt 0.511274 0.000000
vt 0.423636 0.840555
vt 0.255637 1.000000
vt 0.255637 1.000000
vt 0.284323 0.887784
vt 0.423636 0.840555
vt 0.511274 0.000000
vn 0.987689 0.000000 -0.156430
vn 0.987689 0.000000 -0.156430
vn 0.951056 0.000000 -0.309017
vn 0.951056 0.000000 -0.309017
vn 0.809015 0.000000 -0.587788
vn 0.809015 0.000000 -0.587788
vn 0.587784 0.000000 -0.809018
vn 0.587784 0.000000 -0.809018
vn 0.309018 0.000000 -0.951056
vn 0.309018 0.000000 -0.951056
vn 0.000000 0.000000 -1.000000
vn 0.000000 0.000000 -1.000000
vn -0.309018 0.000000 -0.951056
vn -0.309018 0.000000 -0.951056
vn -0.587784 0.000000 -0.809018
vn -0.587784 0.000000 -0.809018
vn -0.809017 0.000000 -0.587786
vn -0.809017 0.000000 -0.587786
vn -0.951056 0.000000 -0.309017
vn -0.951056 0.000000 -0.309017
vn -0.987688 0.000000 -0.156434
vn -0.987688 0.000000 -0.156434
vn 0.000000 1.000000 0.000005
vn 0.000000 1.000000 -0.000000
vn 0.000000 1.000000 0.000005
vn 0.000000 1.000000 0.000005
vn 0.000000 1.000000 0.000000
vn 0.000000 1.000000 -0.000002
vn 0.000000 1.000000 0.000000
vn 0.000000 1.000000 0.000000
vn 0.000000 1.000000 0.000000
vn 0.000000 1.000000 -0.000002
vn 0.000000 1.000000 0.000002
vn 0.000000 1.000000 -0.000001
vn 0.000000 1.000000 -0.000010
vn 0.000000 1.000000 -0.000010
vn 0.000000 -1.000000 -0.000009
vn 0.000000 -1.000000 -0.000009
vn 0.000000 -1.000000 0.000000
vn 0.000000 -1.000000 0.000001
vn 0.000000 -1.000000 0.000003
vn 0.000000 -1.000000 -0.000002
vn 0.000000 -1.000000 0.000000
vn 0.000000 -1.000000 0.000000
vn 0.000000 -1.000000 0.000000
vn 0.000000 -1.000000 -0.000002
vn 0.000000 -1.000000 -0.000001
vn 0.000000 -1.000000 0.000006
vn 0.000000 -1.000000 0.000009
vn 0.000000 -1.000000 0.000009
vn 1.000000 0.000000 0.000000
vn 1.000000 0.000000 0.000000
vn 1.000000 0.000000 0.000000
vn 1.000000 0.000000 0.000000
vn -1.000000 0.000000 0.000000
vn -1.000000 0.000000 0.000000
vn -1.000000 0.000000 0.000000
vn -1.000000 0.000000 0.000000
vn 0.000000 1.000000 0.000000
vn 0.000000 1.000000 0.000000
vn 0.000000 1.000000 0.000000
vn 0.000000 1.000000 0.000000
vn 0.000000 1.000000 0.000000
vn 0.000000 1.000000 0.000000
vn 0.000000 1.000000 0.000000
vn 0.000000 1.000000 0.000000
vn 0.000000 -1.000000 -0.000002
vn 0.000000 -1.000000 -0.000002
vn 0.000000 -1.000000 -0.000001
vn 0.000000 -1.000000 -0.000001
vn 0.000000 -1.000000 -0.000001
vn 0.000000 -1.000000 -0.000001
vn 0.000000 -1.000000 -0.000002
vn 0.000000 -1.000000 -0.000002
vn -0.987689 0.000000 0.156431
vn -0.951058 0.000000 0.309013
vn -0.951058 0.000000 0.309013
vn -0.987689 0.000000 0.156431
vn -0.809017 0.000000 0.587785
vn -0.809017 0.000000 0.587785
vn -0.587783 0.000000 0.809019
vn -0.587783 0.000000 0.809019
vn -0.309017 0.000000 0.951057
vn -0.309017 0.000000 0.951057
vn 0.000000 0.000000 1.000000
vn 0.000000 0.000000 1.000000
vn 0.309017 0.000000 0.951057
vn 0.309017 0.000000 0.951057
vn 0.587783 0.000000 0.809019
vn 0.587783 0.000000 0.809019
vn 0.809018 0.000000 0.587784
vn 0.809018 0.000000 0.587784
vn 0.951058 0.000000 0.309014
vn 0.951058 0.000000 0.309014
vn 0.987689 0.000000 0.156433
vn 0.987689 0.000000 0.156433
vn 0.000000 -1.000000 0.000000
vn 0.000000 -1.000000 0.000000
vn 0.000000 -1.000000 0.000000
vn 0.000000 -1.000000 -0.000000
vn 0.000000 -1.000000 0.000000
vn 0.000000 -1.000000 0.000004
vn 0.000000 -1.000000 0.000004
vn 0.000000 -1.000000 0.000000
vn 0.000000 -1.000000 0.000000
vn 0.000000 -1.000000 0.000000
vn 0.000000 -1.000000 0.000000
vn 0.000000 -1.000000 -0.000004
vn 0.000000 -1.000000 -0.000008
vn 0.000000 -1.000000 -0.000008
vn 0.000000 1.000000 -0.000008
vn 0.000000 1.000000 0.000004
vn 0.000000 1.000000 0.000001
vn 0.000000 1.000000 -0.000008
vn 0.000000 1.000000 0.000008
vn 0.000000 1.000000 0.000000
vn 0.000000 1.000000 0.000000
vn 0.000000 1.000000 0.000000
vn 0.000000 1.000000 0.000000
vn 0.000000 1.000000 0.000000
vn 0.000000 1.000000 0.000000
vn 0.000000 1.000000 0.000000
vn 0.000000 1.000000 0.000000
vn 0.000000 1.000000 0.000000
vn -1.000000 0.000000 0.000000
vn -1.000000 0.000000 0.000000
vn -1.000000 0.000000 0.000000
vn -1.000000 0.000000 0.000000
vn 1.000000 0.000000 0.000000
vn 1.000000 0.000000 0.000000
vn 1.000000 0.000000 0.000000
vn 1.000000 0.000000 0.000000
vn 0.000000 -1.000000 0.000000
vn 0.000000 -1.000000 0.000000
vn 0.000000 -1.000000 0.000000
vn 0.000000 -1.000000 0.000000
vn 0.000000 -1.000000 0.000000
vn 0.000000 -1.000000 0.000000
vn 0.000000 -1.000000 0.000000
vn 0.000000 -1.000000 0.000000
vn 0.000000 1.000000 0.000000
vn 0.000000 1.000000 0.000000
vn 0.000000 1.000000 0.000000
vn 0.000000 1.000000 0.000000
vn 0.000000 1.000000 0.000000
vn 0.000000 1.000000 0.000000
vn 0.000000 1.000000 0.000000
vn 0.000000 1.000000 0.000000
vn 0.000000 -0.083595 -0.996500
vn 0.000000 -0.083596 -0.996500
vn 0.000000 -0.083595 -0.996500
vn 0.000000 -0.083595 -0.996500
vn 0.000000 -0.083597 -0.996500
vn 0.000000 -0.083598 -0.996500
vn 0.000000 -0.083598 -0.996500
vn 0.000000 -0.083598 -0.996500
vn 0.000000 0.083596 -0.996500
vn 0.000000 0.083596 -0.996500
vn 0.000000 0.083596 -0.996500
vn 0.000000 0.083596 -0.996500
vn 0.000000 0.083599 -0.996500
vn 0.000000 0.083598 -0.996500
vn 0.000000 0.083598 -0.996500
vn 0.000000 0.083598 -0.996500
vn 0.090573 0.000000 -0.995890
vn 0.090573 0.000000 -0.995890
vn 0.090573 0.000000 -0.995890
vn 0.090573 0.000000 -0.995890
vn -0.090562 0.000000 -0.995891
vn -0.090562 0.000000 -0.995891
vn -0.090562 0.000000 -0.995891
vn -0.090562 0.000000 -0.995891
vn 0.000000 1.000000 0.000000
vn 0.000000 1.000000 0.000000
vn 0.000000 1.000000 0.000000
vn 0.000000 1.000000 0.000000
vn 0.000000 0.083596 -0.996500
vn 0.000000 0.083596 -0.996500
vn 0.000000 -1.000000 0.000000
vn 0.000000 -1.000000 0.000000
vn 0.000000 -1.000000 0.000000
vn 0.000000 -1.000000 0.000000
vn 0.000000 0.083599 -0.996499
vn 0.000000 0.083599 -0.996499
vn 0.000000 1.000000 0.000000
vn 0.000000 1.000000 0.000000
vn 0.000000 1.000000 0.000000
vn 0.000000 1.000000 0.000000
vn 0.000000 -1.000000 0.000000
vn 0.000000 -1.000000 0.000000
vn 0.000000 -1.000000 0.000000
vn 0.000000 -1.000000 0.000000
vn 0.000000 -0.083597 -0.996500
vn 0.000000 -0.083597 -0.996500
vn 0.000000 1.000000 0.000000
vn 0.000000 1.000000 0.000000
vn 0.000000 1.000000 0.000000
vn 0.000000 1.000000 0.000000
vn 0.000000 -0.083597 -0.996500
vn 0.000000 -0.083597 -0.996500
vn 0.000000 -1.000000 0.000000
vn 0.000000 -1.000000 0.000000
vn 0.000000 -1.000000 0.000000
vn 0.000000 -1.000000 0.000000
vn 0.000000 0.000000 1.000000
vn 0.000000 0.000000 1.000000
vn 0.000000 0.000000 1.000000
vn 0.000000 0.000000 1.000000
vn 0.000000 0.000000 1.000000
vn 0.000000 0.000000 1.000000
vn 0.000000 0.000000 1.000000
vn 0.000000 0.000000 1.000000
vn -0.999955 0.009508 0.000000
vn -0.999955 0.009508 0.000000
vn -0.999955 0.009508 0.000000
vn -0.999955 0.009508 0.000000
vn 0.999955 0.009508 0.000000
vn 0.999955 0.009508 0.000000
vn 0.999955 0.009508 0.000000
vn 0.999955 0.009508 0.000000
vn 0.000000 0.000000 -1.000000
vn 0.000000 0.000000 -1.000000
vn 0.000000 0.000000 -1.000000
vn 0.000000 0.000000 -1.000000
vn 0.000000 0.000000 -1.000000
vn 0.000000 0.000000 -1.000000
vn 0.000000 0.000000 -1.000000
vn 0.000000 0.000000 -1.000000
s 1
g RightElevator LooseAdornments
usemtl initialShadingGroup
f 1/12/1 12/23/2 13/24/3 2/13/4
f 2/13/4 13/24/3 14/25/5 3/14/6
f 3/14/6 14/25/5 15/26/7 4/15/8
f 4/15/8 15/26/7 16/27/9 5/16/10
f 5/16/10 16/27/9 17/28/11 6/17/12
f 6/17/12 17/28/11 18/29/13 7/18/14
f 7/18/14 18/29/13 19/30/15 8/19/16
f 8/19/16 19/30/15 20/31/17 9/20/18
f 9/20/18 20/31/17 21/32/19 10/21/20
f 10/21/20 21/32/19 22/33/21 11/22/22
s 2
f 2/2/23 23/45/24 67/145/25 1/1/26
f 3/3/27 23/45/24 2/2/23
f 4/4/28 23/45/24 3/3/27
f 5/5/29 23/45/24 4/4/28
f 6/6/30 23/45/24 5/5/29
f 7/7/31 23/45/24 6/6/30
f 8/8/32 23/45/24 7/7/31
f 9/9/33 23/45/24 8/8/32
f 10/10/34 23/45/24 9/9/33
f 11/11/35 76/158/36 23/45/24 10/10/34
s 3
f 12/43/37 86/171/38 24/46/39 13/42/40
f 13/42/40 24/46/39 14/41/41
f 14/41/41 24/46/39 15/40/42
f 15/40/42 24/46/39 16/39/43
f 16/39/43 24/46/39 17/38/44
f 17/38/44 24/46/39 18/37/45
f 18/37/45 24/46/39 19/36/46
f 19/36/46 24/46/39 20/35/47
f 20/35/47 24/46/39 21/34/48
f 21/34/48 24/46/39 77/160/49 22/44/50
s off
f 1/47/51 61/137/52 62/138/53 12/48/54
f 22/50/55 64/141/56 65/142/57 11/51/58
s 4
f 67/146/59 68/147/60 61/137/61 1/54/62
s 5
f 11/57/63 65/142/64 75/156/65 76/157/66
s 6
f 12/61/67 62/138/68 85/170/69 86/172/70
s 7
f 77/159/71 78/161/72 64/141/73 22/66/74
s 8
f 31/68/75 32/69/76 43/70/77 42/71/78
f 32/69/76 33/72/79 44/73/80 43/70/77
f 33/72/79 34/74/81 45/75/82 44/73/80
f 34/74/81 35/76/83 46/77/84 45/75/82
f 35/76/83 36/78/85 47/79/86 46/77/84
f 36/78/85 37/80/87 48/81/88 47/79/86
f 37/80/87 38/82/89 49/83/90 48/81/88
f 38/82/89 39/84/91 50/85/92 49/83/90
f 39/84/91 40/86/93 51/87/94 50/85/92
f 40/86/93 41/88/95 52/89/96 51/87/94
s 9
f 32/90/97 31/91/98 71/151/99 53/92/100
f 33/93/101 32/90/97 53/92/100
f 34/94/102 33/93/101 53/92/100
f 35/95/103 34/94/102 53/92/100
f 36/96/104 35/95/103 53/92/100
f 37/97/105 36/96/104 53/92/100
f 38/98/106 37/97/105 53/92/100
f 39/99/107 38/98/106 53/92/100
f 40/100/108 39/99/107 53/92/100
f 41/101/109 40/100/108 53/92/100 72/152/110
s 10
f 42/102/111 43/103/112 54/104/113 82/167/114
f 43/103/112 44/105/115 54/104/113
f 44/105/115 45/106/116 54/104/113
f 45/106/116 46/107/117 54/104/113
f 46/107/117 47/108/118 54/104/113
f 47/108/118 48/109/119 54/104/113
f 48/109/119 49/110/120 54/104/113
f 49/110/120 50/111/121 54/104/113
f 50/111/121 51/112/122 54/104/113
f 51/112/122 52/113/123 81/164/124 54/104/113
s off
f 31/114/125 42/115/126 56/116/127 55/117/128
f 52/118/129 41/119/130 57/120/131 58/121/132
s 11
f 71/150/133 31/123/134 55/124/135 70/149/136
s 12
f 41/126/137 72/153/138 73/154/139 57/129/140
s 13
f 42/130/141 82/166/142 83/168/143 56/133/144
s 14
f 81/165/145 52/135/146 58/136/147 80/163/148
s 15
f 28/67/149 79/162/150 80/163/151 58/136/152
s 16
f 84/169/153 26/64/154 56/133/155 83/168/156
s 17
f 25/55/157 69/148/158 70/149/159 55/124/160
s 18
f 74/155/161 27/60/162 57/129/163 73/154/164
s off
f 26/49/165 25/55/166 55/117/167 56/133/168
f 28/67/169 58/121/170 57/129/171 27/52/172
s 4
f 23/53/173 66/143/174 68/147/60 67/146/59
f 69/148/175 68/147/60 66/143/174 29/56/176
s 17
f 70/149/159 69/148/158 29/56/177 59/125/178
s 11
f 53/122/179 71/150/133 70/149/136 59/125/180
s 12
f 72/153/138 53/127/181 59/128/182 73/154/139
s 18
f 29/59/183 74/155/161 73/154/164 59/128/184
s 5
f 66/144/185 75/156/65 74/155/186 29/59/187
f 76/157/66 75/156/65 66/144/185 23/58/188
s 7
f 24/65/189 63/139/190 78/161/72 77/159/71
f 79/162/191 78/161/72 63/139/190 30/63/192
s 15
f 80/163/151 79/162/150 30/63/193 60/132/194
s 14
f 54/134/195 81/165/145 80/163/148 60/132/196
s 13
f 82/166/142 54/131/197 60/132/198 83/168/143
s 16
f 30/63/199 84/169/153 83/168/156 60/132/200
s 6
f 63/140/201 85/170/69 84/169/202 30/63/203
f 86/172/70 85/170/69 63/140/201 24/62/204
s off
f 75/156/205 65/142/206 64/141/207 78/161/208
f 85/170/209 62/138/210 61/137/211 68/147/212
f 74/155/213 75/156/214 78/161/215 79/162/216
f 68/147/217 69/148/218 84/169/219 85/170/220
f 26/64/221 84/169/222 69/148/223 25/55/224
f 28/67/225 27/60/226 74/155/227 79/162/228
