v 0.538677 1.82299 0
vn 0 0 1
vt 0.772444 0.954975
v -0.459165 1.91304 0
vn 0 0 1
vt 0.273523 1
v -0.831822 1.20075 0
vn 0 0 1
vt 0.0871944 0.643853
v -0.355531 -0.0326316 0
vn 0 0 1
vt 0.32534 0.0271625
v -1.81608e-008 0 0
vn 0 0 1
vt 0.503106 0.0434783
v 0.424502 -0.0869565 0
vn 0 0 1
vt 0.715357 0
v 0.946052 0.842478 0
vn 0 0 1
vt 0.976132 0.464717
f 4/4/4 6/6/6 5/5/5
f 5/5/5 6/6/6 7/7/7
f 3/3/3 4/4/4 5/5/5
f 1/1/1 2/2/2 3/3/3
f 7/7/7 1/1/1 3/3/3
f 3/3/3 5/5/5 7/7/7
