# This file uses centimeters as units for non-parametric coordinates.

mtllib DogRose_Leaf_2.mtl
g default
v 0.515386 -1.121024 0.099097
v 0.435045 0.029529 0.132097
v 0.161483 -1.794237 -0.037743
v -0.000000 -0.000000 0.000000
v -0.173280 0.044090 0.027988
v -0.379363 -1.402232 0.226576
v -0.495048 -0.390859 0.259894
vt 0.047723 0.017246
vt 0.456522 0.024845
vt 0.630546 0.000000
vt 0.999234 0.212228
vt 0.000000 0.593508
vt 0.912138 0.719516
vt 0.348605 0.924101
vn -0.160996 -0.006229 -0.986935
vn -0.160996 -0.006229 -0.986935
vn -0.160996 -0.006229 -0.986935
vn -0.160996 -0.006229 -0.986935
vn -0.160996 -0.006229 -0.986935
vn -0.160996 -0.006229 -0.986935
vn -0.160996 -0.006229 -0.986935
vn -0.160996 -0.006229 -0.986935
vn -0.160996 -0.006229 -0.986935
vn -0.160996 -0.006229 -0.986935
vn -0.160996 -0.006229 -0.986935
vn -0.160996 -0.006229 -0.986935
vn -0.160996 -0.006229 -0.986935
vn -0.160996 -0.006229 -0.986935
vn -0.160996 -0.006229 -0.986935
vn -0.160996 -0.006229 -0.986935
vn -0.160996 -0.006229 -0.986935
vn -0.160996 -0.006229 -0.986935
s off
g DogRose_Leaf_2:Mesh
usemtl initialShadingGroup
f 2/1/1 4/2/2 5/3/3
f 4/2/4 7/4/5 5/3/6
f 1/5/7 4/2/8 2/1/9
f 4/2/10 6/6/11 7/4/12
f 4/2/13 3/7/14 6/6/15
f 3/7/16 4/2/17 1/5/18
