v -0.474688 -0.665365 -0.197234
vn -0.383325 -0.0218505 0.923355
vt 0.0439453 0.332682
v -0.474688 -1.32096 -0.197234
vn -0.280979 0.0874009 0.955726
vt 0.0439453 0.660482
v -0.180743 -0.00976563 -0.0285948
vn -0.2713 -0.0330089 0.961929
vt 0.337891 0.00488281
v -0.0557429 -1.97656 -0.00271985
vn -0.0604636 0.248214 0.966817
vt 0.462891 0.988281
v -0.0157039 -1.97656 -0.000215863
vn -0.0210051 0.0876412 0.995931
vt 0.50293 0.988281
v 0.000409428 -0.00976563 -1.4673e-007
vn 0.0847357 -0.0959707 0.991771
vt 0.519043 0.00488281
v 0.000409428 -0.665365 -1.4673e-007
vn 0.0413215 -0.0116845 0.999078
vt 0.519043 0.332682
v 0.000409428 -1.32096 -1.4673e-007
vn -0.0822789 -0.000137128 0.996609
vt 0.519043 0.660482
v 0.0194524 -0.00976563 -0.000331216
vn 0.0166983 -0.277853 0.960479
vt 0.538086 0.00488281
v 0.475507 -0.665365 -0.197915
vn 0.268386 -0.0949005 0.958625
vt 0.994141 0.332682
v 0.475507 -1.32096 -0.197915
vn 0.384543 -0.00325157 0.923101
vt 0.994141 0.660482
f 3/3/3 7/7/7 6/6/6
f 3/3/3 1/1/1 7/7/7
f 6/6/6 10/10/10 9/9/9
f 6/6/6 7/7/7 10/10/10
f 1/1/1 8/8/8 7/7/7
f 1/1/1 2/2/2 8/8/8
f 7/7/7 11/11/11 10/10/10
f 7/7/7 8/8/8 11/11/11
f 2/2/2 5/5/5 8/8/8
f 2/2/2 4/4/4 5/5/5
f 8/8/8 5/5/5 11/11/11
